Doto-BlackRound.ufo
<glyph name="quotedbl" format="2">
  <advance width="600"/>
  <unicode hex="0022"/>
  <outline>
    <contour>
      <point x="149" y="695" type="line"/>
      <point x="151" y="695" type="line" smooth="yes"/>
      <point x="175" y="695"/>
      <point x="195" y="675"/>
      <point x="195" y="651" type="curve" smooth="yes"/>
      <point x="195" y="649" type="line" smooth="yes"/>
      <point x="195" y="625"/>
      <point x="175" y="605"/>
      <point x="151" y="605" type="curve" smooth="yes"/>
      <point x="149" y="605" type="line" smooth="yes"/>
      <point x="125" y="605"/>
      <point x="105" y="625"/>
      <point x="105" y="649" type="curve" smooth="yes"/>
      <point x="105" y="651" type="line" smooth="yes"/>
      <point x="105" y="675"/>
      <point x="125" y="695"/>
      <point x="149" y="695" type="curve"/>
    </contour>
    <contour>
      <point x="349" y="695" type="line"/>
      <point x="351" y="695" type="line" smooth="yes"/>
      <point x="375" y="695"/>
      <point x="395" y="675"/>
      <point x="395" y="651" type="curve" smooth="yes"/>
      <point x="395" y="649" type="line" smooth="yes"/>
      <point x="395" y="625"/>
      <point x="375" y="605"/>
      <point x="351" y="605" type="curve" smooth="yes"/>
      <point x="349" y="605" type="line" smooth="yes"/>
      <point x="325" y="605"/>
      <point x="305" y="625"/>
      <point x="305" y="649" type="curve" smooth="yes"/>
      <point x="305" y="651" type="line" smooth="yes"/>
      <point x="305" y="675"/>
      <point x="325" y="695"/>
      <point x="349" y="695" type="curve"/>
    </contour>
    <contour>
      <point x="149" y="595" type="line"/>
      <point x="151" y="595" type="line" smooth="yes"/>
      <point x="175" y="595"/>
      <point x="195" y="575"/>
      <point x="195" y="551" type="curve" smooth="yes"/>
      <point x="195" y="549" type="line" smooth="yes"/>
      <point x="195" y="525"/>
      <point x="175" y="505"/>
      <point x="151" y="505" type="curve" smooth="yes"/>
      <point x="149" y="505" type="line" smooth="yes"/>
      <point x="125" y="505"/>
      <point x="105" y="525"/>
      <point x="105" y="549" type="curve" smooth="yes"/>
      <point x="105" y="551" type="line" smooth="yes"/>
      <point x="105" y="575"/>
      <point x="125" y="595"/>
      <point x="149" y="595" type="curve"/>
    </contour>
    <contour>
      <point x="349" y="595" type="line"/>
      <point x="351" y="595" type="line" smooth="yes"/>
      <point x="375" y="595"/>
      <point x="395" y="575"/>
      <point x="395" y="551" type="curve" smooth="yes"/>
      <point x="395" y="549" type="line" smooth="yes"/>
      <point x="395" y="525"/>
      <point x="375" y="505"/>
      <point x="351" y="505" type="curve" smooth="yes"/>
      <point x="349" y="505" type="line" smooth="yes"/>
      <point x="325" y="505"/>
      <point x="305" y="525"/>
      <point x="305" y="549" type="curve" smooth="yes"/>
      <point x="305" y="551" type="line" smooth="yes"/>
      <point x="305" y="575"/>
      <point x="325" y="595"/>
      <point x="349" y="595" type="curve"/>
    </contour>
    <contour>
      <point x="149" y="495" type="line"/>
      <point x="151" y="495" type="line" smooth="yes"/>
      <point x="175" y="495"/>
      <point x="195" y="475"/>
      <point x="195" y="451" type="curve" smooth="yes"/>
      <point x="195" y="449" type="line" smooth="yes"/>
      <point x="195" y="425"/>
      <point x="175" y="405"/>
      <point x="151" y="405" type="curve" smooth="yes"/>
      <point x="149" y="405" type="line" smooth="yes"/>
      <point x="125" y="405"/>
      <point x="105" y="425"/>
      <point x="105" y="449" type="curve" smooth="yes"/>
      <point x="105" y="451" type="line" smooth="yes"/>
      <point x="105" y="475"/>
      <point x="125" y="495"/>
      <point x="149" y="495" type="curve"/>
    </contour>
    <contour>
      <point x="349" y="495" type="line"/>
      <point x="351" y="495" type="line" smooth="yes"/>
      <point x="375" y="495"/>
      <point x="395" y="475"/>
      <point x="395" y="451" type="curve" smooth="yes"/>
      <point x="395" y="449" type="line" smooth="yes"/>
      <point x="395" y="425"/>
      <point x="375" y="405"/>
      <point x="351" y="405" type="curve" smooth="yes"/>
      <point x="349" y="405" type="line" smooth="yes"/>
      <point x="325" y="405"/>
      <point x="305" y="425"/>
      <point x="305" y="449" type="curve" smooth="yes"/>
      <point x="305" y="451" type="line" smooth="yes"/>
      <point x="305" y="475"/>
      <point x="325" y="495"/>
      <point x="349" y="495" type="curve"/>
    </contour>
  </outline>
</glyph>
<glyph name="quotesingle" format="2">
  <advance width="600"/>
  <unicode hex="0027"/>
  <outline>
    <contour>
      <point x="249" y="695" type="line"/>
      <point x="251" y="695" type="line" smooth="yes"/>
      <point x="275" y="695"/>
      <point x="295" y="675"/>
      <point x="295" y="651" type="curve" smooth="yes"/>
      <point x="295" y="649" type="line" smooth="yes"/>
      <point x="295" y="625"/>
      <point x="275" y="605"/>
      <point x="251" y="605" type="curve" smooth="yes"/>
      <point x="249" y="605" type="line" smooth="yes"/>
      <point x="225" y="605"/>
      <point x="205" y="625"/>
      <point x="205" y="649" type="curve" smooth="yes"/>
      <point x="205" y="651" type="line" smooth="yes"/>
      <point x="205" y="675"/>
      <point x="225" y="695"/>
      <point x="249" y="695" type="curve"/>
    </contour>
    <contour>
      <point x="249" y="595" type="line"/>
      <point x="251" y="595" type="line" smooth="yes"/>
      <point x="275" y="595"/>
      <point x="295" y="575"/>
      <point x="295" y="551" type="curve" smooth="yes"/>
      <point x="295" y="549" type="line" smooth="yes"/>
      <point x="295" y="525"/>
      <point x="275" y="505"/>
      <point x="251" y="505" type="curve" smooth="yes"/>
      <point x="249" y="505" type="line" smooth="yes"/>
      <point x="225" y="505"/>
      <point x="205" y="525"/>
      <point x="205" y="549" type="curve" smooth="yes"/>
      <point x="205" y="551" type="line" smooth="yes"/>
      <point x="205" y="575"/>
      <point x="225" y="595"/>
      <point x="249" y="595" type="curve"/>
    </contour>
    <contour>
      <point x="249" y="495" type="line"/>
      <point x="251" y="495" type="line" smooth="yes"/>
      <point x="275" y="495"/>
      <point x="295" y="475"/>
      <point x="295" y="451" type="curve" smooth="yes"/>
      <point x="295" y="449" type="line" smooth="yes"/>
      <point x="295" y="425"/>
      <point x="275" y="405"/>
      <point x="251" y="405" type="curve" smooth="yes"/>
      <point x="249" y="405" type="line" smooth="yes"/>
      <point x="225" y="405"/>
      <point x="205" y="425"/>
      <point x="205" y="449" type="curve" smooth="yes"/>
      <point x="205" y="451" type="line" smooth="yes"/>
      <point x="205" y="475"/>
      <point x="225" y="495"/>
      <point x="249" y="495" type="curve"/>
    </contour>
  </outline>
</glyph>
<glyph name="comma" format="2">
  <advance width="600"/>
  <unicode hex="002C"/>
  <outline>
    <contour>
      <point x="249" y="195" type="line"/>
      <point x="251" y="195" type="line" smooth="yes"/>
      <point x="275" y="195"/>
      <point x="295" y="175"/>
      <point x="295" y="151" type="curve" smooth="yes"/>
      <point x="295" y="149" type="line" smooth="yes"/>
      <point x="295" y="125"/>
      <point x="275" y="105"/>
      <point x="251" y="105" type="curve" smooth="yes"/>
      <point x="249" y="105" type="line" smooth="yes"/>
      <point x="225" y="105"/>
      <point x="205" y="125"/>
      <point x="205" y="149" type="curve" smooth="yes"/>
      <point x="205" y="151" type="line" smooth="yes"/>
      <point x="205" y="175"/>
      <point x="225" y="195"/>
      <point x="249" y="195" type="curve"/>
    </contour>
    <contour>
      <point x="349" y="195" type="line"/>
      <point x="351" y="195" type="line" smooth="yes"/>
      <point x="375" y="195"/>
      <point x="395" y="175"/>
      <point x="395" y="151" type="curve" smooth="yes"/>
      <point x="395" y="149" type="line" smooth="yes"/>
      <point x="395" y="125"/>
      <point x="375" y="105"/>
      <point x="351" y="105" type="curve" smooth="yes"/>
      <point x="349" y="105" type="line" smooth="yes"/>
      <point x="325" y="105"/>
      <point x="305" y="125"/>
      <point x="305" y="149" type="curve" smooth="yes"/>
      <point x="305" y="151" type="line" smooth="yes"/>
      <point x="305" y="175"/>
      <point x="325" y="195"/>
      <point x="349" y="195" type="curve"/>
    </contour>
    <contour>
      <point x="249" y="95" type="line"/>
      <point x="251" y="95" type="line" smooth="yes"/>
      <point x="275" y="95"/>
      <point x="295" y="75"/>
      <point x="295" y="51" type="curve" smooth="yes"/>
      <point x="295" y="49" type="line" smooth="yes"/>
      <point x="295" y="25"/>
      <point x="275" y="5"/>
      <point x="251" y="5" type="curve" smooth="yes"/>
      <point x="249" y="5" type="line" smooth="yes"/>
      <point x="225" y="5"/>
      <point x="205" y="25"/>
      <point x="205" y="49" type="curve" smooth="yes"/>
      <point x="205" y="51" type="line" smooth="yes"/>
      <point x="205" y="75"/>
      <point x="225" y="95"/>
      <point x="249" y="95" type="curve"/>
    </contour>
    <contour>
      <point x="149" y="-5" type="line"/>
      <point x="151" y="-5" type="line" smooth="yes"/>
      <point x="175" y="-5"/>
      <point x="195" y="-25"/>
      <point x="195" y="-49" type="curve" smooth="yes"/>
      <point x="195" y="-51" type="line" smooth="yes"/>
      <point x="195" y="-75"/>
      <point x="175" y="-95"/>
      <point x="151" y="-95" type="curve" smooth="yes"/>
      <point x="149" y="-95" type="line" smooth="yes"/>
      <point x="125" y="-95"/>
      <point x="105" y="-75"/>
      <point x="105" y="-51" type="curve" smooth="yes"/>
      <point x="105" y="-49" type="line" smooth="yes"/>
      <point x="105" y="-25"/>
      <point x="125" y="-5"/>
      <point x="149" y="-5" type="curve"/>
    </contour>
  </outline>
</glyph>
<glyph name="slash" format="2">
  <advance width="600"/>
  <unicode hex="002F"/>
  <outline>
    <contour>
      <point x="449" y="695" type="line"/>
      <point x="451" y="695" type="line" smooth="yes"/>
      <point x="475" y="695"/>
      <point x="495" y="675"/>
      <point x="495" y="651" type="curve" smooth="yes"/>
      <point x="495" y="649" type="line" smooth="yes"/>
      <point x="495" y="625"/>
      <point x="475" y="605"/>
      <point x="451" y="605" type="curve" smooth="yes"/>
      <point x="449" y="605" type="line" smooth="yes"/>
      <point x="425" y="605"/>
      <point x="405" y="625"/>
      <point x="405" y="649" type="curve" smooth="yes"/>
      <point x="405" y="651" type="line" smooth="yes"/>
      <point x="405" y="675"/>
      <point x="425" y="695"/>
      <point x="449" y="695" type="curve"/>
    </contour>
    <contour>
      <point x="449" y="595" type="line"/>
      <point x="451" y="595" type="line" smooth="yes"/>
      <point x="475" y="595"/>
      <point x="495" y="575"/>
      <point x="495" y="551" type="curve" smooth="yes"/>
      <point x="495" y="549" type="line" smooth="yes"/>
      <point x="495" y="525"/>
      <point x="475" y="505"/>
      <point x="451" y="505" type="curve" smooth="yes"/>
      <point x="449" y="505" type="line" smooth="yes"/>
      <point x="425" y="505"/>
      <point x="405" y="525"/>
      <point x="405" y="549" type="curve" smooth="yes"/>
      <point x="405" y="551" type="line" smooth="yes"/>
      <point x="405" y="575"/>
      <point x="425" y="595"/>
      <point x="449" y="595" type="curve"/>
    </contour>
    <contour>
      <point x="349" y="495" type="line"/>
      <point x="351" y="495" type="line" smooth="yes"/>
      <point x="375" y="495"/>
      <point x="395" y="475"/>
      <point x="395" y="451" type="curve" smooth="yes"/>
      <point x="395" y="449" type="line" smooth="yes"/>
      <point x="395" y="425"/>
      <point x="375" y="405"/>
      <point x="351" y="405" type="curve" smooth="yes"/>
      <point x="349" y="405" type="line" smooth="yes"/>
      <point x="325" y="405"/>
      <point x="305" y="425"/>
      <point x="305" y="449" type="curve" smooth="yes"/>
      <point x="305" y="451" type="line" smooth="yes"/>
      <point x="305" y="475"/>
      <point x="325" y="495"/>
      <point x="349" y="495" type="curve"/>
    </contour>
    <contour>
      <point x="249" y="395" type="line"/>
      <point x="251" y="395" type="line" smooth="yes"/>
      <point x="275" y="395"/>
      <point x="295" y="375"/>
      <point x="295" y="351" type="curve" smooth="yes"/>
      <point x="295" y="349" type="line" smooth="yes"/>
      <point x="295" y="325"/>
      <point x="275" y="305"/>
      <point x="251" y="305" type="curve" smooth="yes"/>
      <point x="249" y="305" type="line" smooth="yes"/>
      <point x="225" y="305"/>
      <point x="205" y="325"/>
      <point x="205" y="349" type="curve" smooth="yes"/>
      <point x="205" y="351" type="line" smooth="yes"/>
      <point x="205" y="375"/>
      <point x="225" y="395"/>
      <point x="249" y="395" type="curve"/>
    </contour>
    <contour>
      <point x="149" y="295" type="line"/>
      <point x="151" y="295" type="line" smooth="yes"/>
      <point x="175" y="295"/>
      <point x="195" y="275"/>
      <point x="195" y="251" type="curve" smooth="yes"/>
      <point x="195" y="249" type="line" smooth="yes"/>
      <point x="195" y="225"/>
      <point x="175" y="205"/>
      <point x="151" y="205" type="curve" smooth="yes"/>
      <point x="149" y="205" type="line" smooth="yes"/>
      <point x="125" y="205"/>
      <point x="105" y="225"/>
      <point x="105" y="249" type="curve" smooth="yes"/>
      <point x="105" y="251" type="line" smooth="yes"/>
      <point x="105" y="275"/>
      <point x="125" y="295"/>
      <point x="149" y="295" type="curve"/>
    </contour>
    <contour>
      <point x="49" y="195" type="line"/>
      <point x="51" y="195" type="line" smooth="yes"/>
      <point x="75" y="195"/>
      <point x="95" y="175"/>
      <point x="95" y="151" type="curve" smooth="yes"/>
      <point x="95" y="149" type="line" smooth="yes"/>
      <point x="95" y="125"/>
      <point x="75" y="105"/>
      <point x="51" y="105" type="curve" smooth="yes"/>
      <point x="49" y="105" type="line" smooth="yes"/>
      <point x="25" y="105"/>
      <point x="5" y="125"/>
      <point x="5" y="149" type="curve" smooth="yes"/>
      <point x="5" y="151" type="line" smooth="yes"/>
      <point x="5" y="175"/>
      <point x="25" y="195"/>
      <point x="49" y="195" type="curve"/>
    </contour>
    <contour>
      <point x="49" y="95" type="line"/>
      <point x="51" y="95" type="line" smooth="yes"/>
      <point x="75" y="95"/>
      <point x="95" y="75"/>
      <point x="95" y="51" type="curve" smooth="yes"/>
      <point x="95" y="49" type="line" smooth="yes"/>
      <point x="95" y="25"/>
      <point x="75" y="5"/>
      <point x="51" y="5" type="curve" smooth="yes"/>
      <point x="49" y="5" type="line" smooth="yes"/>
      <point x="25" y="5"/>
      <point x="5" y="25"/>
      <point x="5" y="49" type="curve" smooth="yes"/>
      <point x="5" y="51" type="line" smooth="yes"/>
      <point x="5" y="75"/>
      <point x="25" y="95"/>
      <point x="49" y="95" type="curve"/>
    </contour>
  </outline>
</glyph>
<glyph name="equal" format="2">
  <advance width="600"/>
  <unicode hex="003D"/>
  <outline>
    <contour>
      <point x="49" y="495" type="line"/>
      <point x="51" y="495" type="line" smooth="yes"/>
      <point x="75" y="495"/>
      <point x="95" y="475"/>
      <point x="95" y="451" type="curve" smooth="yes"/>
      <point x="95" y="449" type="line" smooth="yes"/>
      <point x="95" y="425"/>
      <point x="75" y="405"/>
      <point x="51" y="405" type="curve" smooth="yes"/>
      <point x="49" y="405" type="line" smooth="yes"/>
      <point x="25" y="405"/>
      <point x="5" y="425"/>
      <point x="5" y="449" type="curve" smooth="yes"/>
      <point x="5" y="451" type="line" smooth="yes"/>
      <point x="5" y="475"/>
      <point x="25" y="495"/>
      <point x="49" y="495" type="curve"/>
    </contour>
    <contour>
      <point x="149" y="495" type="line"/>
      <point x="151" y="495" type="line" smooth="yes"/>
      <point x="175" y="495"/>
      <point x="195" y="475"/>
      <point x="195" y="451" type="curve" smooth="yes"/>
      <point x="195" y="449" type="line" smooth="yes"/>
      <point x="195" y="425"/>
      <point x="175" y="405"/>
      <point x="151" y="405" type="curve" smooth="yes"/>
      <point x="149" y="405" type="line" smooth="yes"/>
      <point x="125" y="405"/>
      <point x="105" y="425"/>
      <point x="105" y="449" type="curve" smooth="yes"/>
      <point x="105" y="451" type="line" smooth="yes"/>
      <point x="105" y="475"/>
      <point x="125" y="495"/>
      <point x="149" y="495" type="curve"/>
    </contour>
    <contour>
      <point x="249" y="495" type="line"/>
      <point x="251" y="495" type="line" smooth="yes"/>
      <point x="275" y="495"/>
      <point x="295" y="475"/>
      <point x="295" y="451" type="curve" smooth="yes"/>
      <point x="295" y="449" type="line" smooth="yes"/>
      <point x="295" y="425"/>
      <point x="275" y="405"/>
      <point x="251" y="405" type="curve" smooth="yes"/>
      <point x="249" y="405" type="line" smooth="yes"/>
      <point x="225" y="405"/>
      <point x="205" y="425"/>
      <point x="205" y="449" type="curve" smooth="yes"/>
      <point x="205" y="451" type="line" smooth="yes"/>
      <point x="205" y="475"/>
      <point x="225" y="495"/>
      <point x="249" y="495" type="curve"/>
    </contour>
    <contour>
      <point x="349" y="495" type="line"/>
      <point x="351" y="495" type="line" smooth="yes"/>
      <point x="375" y="495"/>
      <point x="395" y="475"/>
      <point x="395" y="451" type="curve" smooth="yes"/>
      <point x="395" y="449" type="line" smooth="yes"/>
      <point x="395" y="425"/>
      <point x="375" y="405"/>
      <point x="351" y="405" type="curve" smooth="yes"/>
      <point x="349" y="405" type="line" smooth="yes"/>
      <point x="325" y="405"/>
      <point x="305" y="425"/>
      <point x="305" y="449" type="curve" smooth="yes"/>
      <point x="305" y="451" type="line" smooth="yes"/>
      <point x="305" y="475"/>
      <point x="325" y="495"/>
      <point x="349" y="495" type="curve"/>
    </contour>
    <contour>
      <point x="449" y="495" type="line"/>
      <point x="451" y="495" type="line" smooth="yes"/>
      <point x="475" y="495"/>
      <point x="495" y="475"/>
      <point x="495" y="451" type="curve" smooth="yes"/>
      <point x="495" y="449" type="line" smooth="yes"/>
      <point x="495" y="425"/>
      <point x="475" y="405"/>
      <point x="451" y="405" type="curve" smooth="yes"/>
      <point x="449" y="405" type="line" smooth="yes"/>
      <point x="425" y="405"/>
      <point x="405" y="425"/>
      <point x="405" y="449" type="curve" smooth="yes"/>
      <point x="405" y="451" type="line" smooth="yes"/>
      <point x="405" y="475"/>
      <point x="425" y="495"/>
      <point x="449" y="495" type="curve"/>
    </contour>
    <contour>
      <point x="49" y="295" type="line"/>
      <point x="51" y="295" type="line" smooth="yes"/>
      <point x="75" y="295"/>
      <point x="95" y="275"/>
      <point x="95" y="251" type="curve" smooth="yes"/>
      <point x="95" y="249" type="line" smooth="yes"/>
      <point x="95" y="225"/>
      <point x="75" y="205"/>
      <point x="51" y="205" type="curve" smooth="yes"/>
      <point x="49" y="205" type="line" smooth="yes"/>
      <point x="25" y="205"/>
      <point x="5" y="225"/>
      <point x="5" y="249" type="curve" smooth="yes"/>
      <point x="5" y="251" type="line" smooth="yes"/>
      <point x="5" y="275"/>
      <point x="25" y="295"/>
      <point x="49" y="295" type="curve"/>
    </contour>
    <contour>
      <point x="149" y="295" type="line"/>
      <point x="151" y="295" type="line" smooth="yes"/>
      <point x="175" y="295"/>
      <point x="195" y="275"/>
      <point x="195" y="251" type="curve" smooth="yes"/>
      <point x="195" y="249" type="line" smooth="yes"/>
      <point x="195" y="225"/>
      <point x="175" y="205"/>
      <point x="151" y="205" type="curve" smooth="yes"/>
      <point x="149" y="205" type="line" smooth="yes"/>
      <point x="125" y="205"/>
      <point x="105" y="225"/>
      <point x="105" y="249" type="curve" smooth="yes"/>
      <point x="105" y="251" type="line" smooth="yes"/>
      <point x="105" y="275"/>
      <point x="125" y="295"/>
      <point x="149" y="295" type="curve"/>
    </contour>
    <contour>
      <point x="249" y="295" type="line"/>
      <point x="251" y="295" type="line" smooth="yes"/>
      <point x="275" y="295"/>
      <point x="295" y="275"/>
      <point x="295" y="251" type="curve" smooth="yes"/>
      <point x="295" y="249" type="line" smooth="yes"/>
      <point x="295" y="225"/>
      <point x="275" y="205"/>
      <point x="251" y="205" type="curve" smooth="yes"/>
      <point x="249" y="205" type="line" smooth="yes"/>
      <point x="225" y="205"/>
      <point x="205" y="225"/>
      <point x="205" y="249" type="curve" smooth="yes"/>
      <point x="205" y="251" type="line" smooth="yes"/>
      <point x="205" y="275"/>
      <point x="225" y="295"/>
      <point x="249" y="295" type="curve"/>
    </contour>
    <contour>
      <point x="349" y="295" type="line"/>
      <point x="351" y="295" type="line" smooth="yes"/>
      <point x="375" y="295"/>
      <point x="395" y="275"/>
      <point x="395" y="251" type="curve" smooth="yes"/>
      <point x="395" y="249" type="line" smooth="yes"/>
      <point x="395" y="225"/>
      <point x="375" y="205"/>
      <point x="351" y="205" type="curve" smooth="yes"/>
      <point x="349" y="205" type="line" smooth="yes"/>
      <point x="325" y="205"/>
      <point x="305" y="225"/>
      <point x="305" y="249" type="curve" smooth="yes"/>
      <point x="305" y="251" type="line" smooth="yes"/>
      <point x="305" y="275"/>
      <point x="325" y="295"/>
      <point x="349" y="295" type="curve"/>
    </contour>
    <contour>
      <point x="449" y="295" type="line"/>
      <point x="451" y="295" type="line" smooth="yes"/>
      <point x="475" y="295"/>
      <point x="495" y="275"/>
      <point x="495" y="251" type="curve" smooth="yes"/>
      <point x="495" y="249" type="line" smooth="yes"/>
      <point x="495" y="225"/>
      <point x="475" y="205"/>
      <point x="451" y="205" type="curve" smooth="yes"/>
      <point x="449" y="205" type="line" smooth="yes"/>
      <point x="425" y="205"/>
      <point x="405" y="225"/>
      <point x="405" y="249" type="curve" smooth="yes"/>
      <point x="405" y="251" type="line" smooth="yes"/>
      <point x="405" y="275"/>
      <point x="425" y="295"/>
      <point x="449" y="295" type="curve"/>
    </contour>
  </outline>
</glyph>
<glyph name="greater" format="2">
  <advance width="600"/>
  <unicode hex="003E"/>
  <outline>
    <contour>
      <point x="149" y="695" type="line"/>
      <point x="151" y="695" type="line" smooth="yes"/>
      <point x="175" y="695"/>
      <point x="195" y="675"/>
      <point x="195" y="651" type="curve" smooth="yes"/>
      <point x="195" y="649" type="line" smooth="yes"/>
      <point x="195" y="625"/>
      <point x="175" y="605"/>
      <point x="151" y="605" type="curve" smooth="yes"/>
      <point x="149" y="605" type="line" smooth="yes"/>
      <point x="125" y="605"/>
      <point x="105" y="625"/>
      <point x="105" y="649" type="curve" smooth="yes"/>
      <point x="105" y="651" type="line" smooth="yes"/>
      <point x="105" y="675"/>
      <point x="125" y="695"/>
      <point x="149" y="695" type="curve"/>
    </contour>
    <contour>
      <point x="249" y="595" type="line"/>
      <point x="251" y="595" type="line" smooth="yes"/>
      <point x="275" y="595"/>
      <point x="295" y="575"/>
      <point x="295" y="551" type="curve" smooth="yes"/>
      <point x="295" y="549" type="line" smooth="yes"/>
      <point x="295" y="525"/>
      <point x="275" y="505"/>
      <point x="251" y="505" type="curve" smooth="yes"/>
      <point x="249" y="505" type="line" smooth="yes"/>
      <point x="225" y="505"/>
      <point x="205" y="525"/>
      <point x="205" y="549" type="curve" smooth="yes"/>
      <point x="205" y="551" type="line" smooth="yes"/>
      <point x="205" y="575"/>
      <point x="225" y="595"/>
      <point x="249" y="595" type="curve"/>
    </contour>
    <contour>
      <point x="349" y="495" type="line"/>
      <point x="351" y="495" type="line" smooth="yes"/>
      <point x="375" y="495"/>
      <point x="395" y="475"/>
      <point x="395" y="451" type="curve" smooth="yes"/>
      <point x="395" y="449" type="line" smooth="yes"/>
      <point x="395" y="425"/>
      <point x="375" y="405"/>
      <point x="351" y="405" type="curve" smooth="yes"/>
      <point x="349" y="405" type="line" smooth="yes"/>
      <point x="325" y="405"/>
      <point x="305" y="425"/>
      <point x="305" y="449" type="curve" smooth="yes"/>
      <point x="305" y="451" type="line" smooth="yes"/>
      <point x="305" y="475"/>
      <point x="325" y="495"/>
      <point x="349" y="495" type="curve"/>
    </contour>
    <contour>
      <point x="449" y="395" type="line"/>
      <point x="451" y="395" type="line" smooth="yes"/>
      <point x="475" y="395"/>
      <point x="495" y="375"/>
      <point x="495" y="351" type="curve" smooth="yes"/>
      <point x="495" y="349" type="line" smooth="yes"/>
      <point x="495" y="325"/>
      <point x="475" y="305"/>
      <point x="451" y="305" type="curve" smooth="yes"/>
      <point x="449" y="305" type="line" smooth="yes"/>
      <point x="425" y="305"/>
      <point x="405" y="325"/>
      <point x="405" y="349" type="curve" smooth="yes"/>
      <point x="405" y="351" type="line" smooth="yes"/>
      <point x="405" y="375"/>
      <point x="425" y="395"/>
      <point x="449" y="395" type="curve"/>
    </contour>
    <contour>
      <point x="349" y="295" type="line"/>
      <point x="351" y="295" type="line" smooth="yes"/>
      <point x="375" y="295"/>
      <point x="395" y="275"/>
      <point x="395" y="251" type="curve" smooth="yes"/>
      <point x="395" y="249" type="line" smooth="yes"/>
      <point x="395" y="225"/>
      <point x="375" y="205"/>
      <point x="351" y="205" type="curve" smooth="yes"/>
      <point x="349" y="205" type="line" smooth="yes"/>
      <point x="325" y="205"/>
      <point x="305" y="225"/>
      <point x="305" y="249" type="curve" smooth="yes"/>
      <point x="305" y="251" type="line" smooth="yes"/>
      <point x="305" y="275"/>
      <point x="325" y="295"/>
      <point x="349" y="295" type="curve"/>
    </contour>
    <contour>
      <point x="249" y="195" type="line"/>
      <point x="251" y="195" type="line" smooth="yes"/>
      <point x="275" y="195"/>
      <point x="295" y="175"/>
      <point x="295" y="151" type="curve" smooth="yes"/>
      <point x="295" y="149" type="line" smooth="yes"/>
      <point x="295" y="125"/>
      <point x="275" y="105"/>
      <point x="251" y="105" type="curve" smooth="yes"/>
      <point x="249" y="105" type="line" smooth="yes"/>
      <point x="225" y="105"/>
      <point x="205" y="125"/>
      <point x="205" y="149" type="curve" smooth="yes"/>
      <point x="205" y="151" type="line" smooth="yes"/>
      <point x="205" y="175"/>
      <point x="225" y="195"/>
      <point x="249" y="195" type="curve"/>
    </contour>
    <contour>
      <point x="149" y="95" type="line"/>
      <point x="151" y="95" type="line" smooth="yes"/>
      <point x="175" y="95"/>
      <point x="195" y="75"/>
      <point x="195" y="51" type="curve" smooth="yes"/>
      <point x="195" y="49" type="line" smooth="yes"/>
      <point x="195" y="25"/>
      <point x="175" y="5"/>
      <point x="151" y="5" type="curve" smooth="yes"/>
      <point x="149" y="5" type="line" smooth="yes"/>
      <point x="125" y="5"/>
      <point x="105" y="25"/>
      <point x="105" y="49" type="curve" smooth="yes"/>
      <point x="105" y="51" type="line" smooth="yes"/>
      <point x="105" y="75"/>
      <point x="125" y="95"/>
      <point x="149" y="95" type="curve"/>
    </contour>
  </outline>
</glyph>
<glyph name="X" format="2">
  <advance width="600"/>
  <unicode hex="0058"/>
  <outline>
    <contour>
      <point x="49" y="695" type="line"/>
      <point x="51" y="695" type="line" smooth="yes"/>
      <point x="75" y="695"/>
      <point x="95" y="675"/>
      <point x="95" y="651" type="curve" smooth="yes"/>
      <point x="95" y="649" type="line" smooth="yes"/>
      <point x="95" y="625"/>
      <point x="75" y="605"/>
      <point x="51" y="605" type="curve" smooth="yes"/>
      <point x="49" y="605" type="line" smooth="yes"/>
      <point x="25" y="605"/>
      <point x="5" y="625"/>
      <point x="5" y="649" type="curve" smooth="yes"/>
      <point x="5" y="651" type="line" smooth="yes"/>
      <point x="5" y="675"/>
      <point x="25" y="695"/>
      <point x="49" y="695" type="curve"/>
    </contour>
    <contour>
      <point x="449" y="695" type="line"/>
      <point x="451" y="695" type="line" smooth="yes"/>
      <point x="475" y="695"/>
      <point x="495" y="675"/>
      <point x="495" y="651" type="curve" smooth="yes"/>
      <point x="495" y="649" type="line" smooth="yes"/>
      <point x="495" y="625"/>
      <point x="475" y="605"/>
      <point x="451" y="605" type="curve" smooth="yes"/>
      <point x="449" y="605" type="line" smooth="yes"/>
      <point x="425" y="605"/>
      <point x="405" y="625"/>
      <point x="405" y="649" type="curve" smooth="yes"/>
      <point x="405" y="651" type="line" smooth="yes"/>
      <point x="405" y="675"/>
      <point x="425" y="695"/>
      <point x="449" y="695" type="curve"/>
    </contour>
    <contour>
      <point x="49" y="595" type="line"/>
      <point x="51" y="595" type="line" smooth="yes"/>
      <point x="75" y="595"/>
      <point x="95" y="575"/>
      <point x="95" y="551" type="curve" smooth="yes"/>
      <point x="95" y="549" type="line" smooth="yes"/>
      <point x="95" y="525"/>
      <point x="75" y="505"/>
      <point x="51" y="505" type="curve" smooth="yes"/>
      <point x="49" y="505" type="line" smooth="yes"/>
      <point x="25" y="505"/>
      <point x="5" y="525"/>
      <point x="5" y="549" type="curve" smooth="yes"/>
      <point x="5" y="551" type="line" smooth="yes"/>
      <point x="5" y="575"/>
      <point x="25" y="595"/>
      <point x="49" y="595" type="curve"/>
    </contour>
    <contour>
      <point x="449" y="595" type="line"/>
      <point x="451" y="595" type="line" smooth="yes"/>
      <point x="475" y="595"/>
      <point x="495" y="575"/>
      <point x="495" y="551" type="curve" smooth="yes"/>
      <point x="495" y="549" type="line" smooth="yes"/>
      <point x="495" y="525"/>
      <point x="475" y="505"/>
      <point x="451" y="505" type="curve" smooth="yes"/>
      <point x="449" y="505" type="line" smooth="yes"/>
      <point x="425" y="505"/>
      <point x="405" y="525"/>
      <point x="405" y="549" type="curve" smooth="yes"/>
      <point x="405" y="551" type="line" smooth="yes"/>
      <point x="405" y="575"/>
      <point x="425" y="595"/>
      <point x="449" y="595" type="curve"/>
    </contour>
    <contour>
      <point x="149" y="495" type="line"/>
      <point x="151" y="495" type="line" smooth="yes"/>
      <point x="175" y="495"/>
      <point x="195" y="475"/>
      <point x="195" y="451" type="curve" smooth="yes"/>
      <point x="195" y="449" type="line" smooth="yes"/>
      <point x="195" y="425"/>
      <point x="175" y="405"/>
      <point x="151" y="405" type="curve" smooth="yes"/>
      <point x="149" y="405" type="line" smooth="yes"/>
      <point x="125" y="405"/>
      <point x="105" y="425"/>
      <point x="105" y="449" type="curve" smooth="yes"/>
      <point x="105" y="451" type="line" smooth="yes"/>
      <point x="105" y="475"/>
      <point x="125" y="495"/>
      <point x="149" y="495" type="curve"/>
    </contour>
    <contour>
      <point x="349" y="495" type="line"/>
      <point x="351" y="495" type="line" smooth="yes"/>
      <point x="375" y="495"/>
      <point x="395" y="475"/>
      <point x="395" y="451" type="curve" smooth="yes"/>
      <point x="395" y="449" type="line" smooth="yes"/>
      <point x="395" y="425"/>
      <point x="375" y="405"/>
      <point x="351" y="405" type="curve" smooth="yes"/>
      <point x="349" y="405" type="line" smooth="yes"/>
      <point x="325" y="405"/>
      <point x="305" y="425"/>
      <point x="305" y="449" type="curve" smooth="yes"/>
      <point x="305" y="451" type="line" smooth="yes"/>
      <point x="305" y="475"/>
      <point x="325" y="495"/>
      <point x="349" y="495" type="curve"/>
    </contour>
    <contour>
      <point x="249" y="395" type="line"/>
      <point x="251" y="395" type="line" smooth="yes"/>
      <point x="275" y="395"/>
      <point x="295" y="375"/>
      <point x="295" y="351" type="curve" smooth="yes"/>
      <point x="295" y="349" type="line" smooth="yes"/>
      <point x="295" y="325"/>
      <point x="275" y="305"/>
      <point x="251" y="305" type="curve" smooth="yes"/>
      <point x="249" y="305" type="line" smooth="yes"/>
      <point x="225" y="305"/>
      <point x="205" y="325"/>
      <point x="205" y="349" type="curve" smooth="yes"/>
      <point x="205" y="351" type="line" smooth="yes"/>
      <point x="205" y="375"/>
      <point x="225" y="395"/>
      <point x="249" y="395" type="curve"/>
    </contour>
    <contour>
      <point x="149" y="295" type="line"/>
      <point x="151" y="295" type="line" smooth="yes"/>
      <point x="175" y="295"/>
      <point x="195" y="275"/>
      <point x="195" y="251" type="curve" smooth="yes"/>
      <point x="195" y="249" type="line" smooth="yes"/>
      <point x="195" y="225"/>
      <point x="175" y="205"/>
      <point x="151" y="205" type="curve" smooth="yes"/>
      <point x="149" y="205" type="line" smooth="yes"/>
      <point x="125" y="205"/>
      <point x="105" y="225"/>
      <point x="105" y="249" type="curve" smooth="yes"/>
      <point x="105" y="251" type="line" smooth="yes"/>
      <point x="105" y="275"/>
      <point x="125" y="295"/>
      <point x="149" y="295" type="curve"/>
    </contour>
    <contour>
      <point x="349" y="295" type="line"/>
      <point x="351" y="295" type="line" smooth="yes"/>
      <point x="375" y="295"/>
      <point x="395" y="275"/>
      <point x="395" y="251" type="curve" smooth="yes"/>
      <point x="395" y="249" type="line" smooth="yes"/>
      <point x="395" y="225"/>
      <point x="375" y="205"/>
      <point x="351" y="205" type="curve" smooth="yes"/>
      <point x="349" y="205" type="line" smooth="yes"/>
      <point x="325" y="205"/>
      <point x="305" y="225"/>
      <point x="305" y="249" type="curve" smooth="yes"/>
      <point x="305" y="251" type="line" smooth="yes"/>
      <point x="305" y="275"/>
      <point x="325" y="295"/>
      <point x="349" y="295" type="curve"/>
    </contour>
    <contour>
      <point x="49" y="195" type="line"/>
      <point x="51" y="195" type="line" smooth="yes"/>
      <point x="75" y="195"/>
      <point x="95" y="175"/>
      <point x="95" y="151" type="curve" smooth="yes"/>
      <point x="95" y="149" type="line" smooth="yes"/>
      <point x="95" y="125"/>
      <point x="75" y="105"/>
      <point x="51" y="105" type="curve" smooth="yes"/>
      <point x="49" y="105" type="line" smooth="yes"/>
      <point x="25" y="105"/>
      <point x="5" y="125"/>
      <point x="5" y="149" type="curve" smooth="yes"/>
      <point x="5" y="151" type="line" smooth="yes"/>
      <point x="5" y="175"/>
      <point x="25" y="195"/>
      <point x="49" y="195" type="curve"/>
    </contour>
    <contour>
      <point x="449" y="195" type="line"/>
      <point x="451" y="195" type="line" smooth="yes"/>
      <point x="475" y="195"/>
      <point x="495" y="175"/>
      <point x="495" y="151" type="curve" smooth="yes"/>
      <point x="495" y="149" type="line" smooth="yes"/>
      <point x="495" y="125"/>
      <point x="475" y="105"/>
      <point x="451" y="105" type="curve" smooth="yes"/>
      <point x="449" y="105" type="line" smooth="yes"/>
      <point x="425" y="105"/>
      <point x="405" y="125"/>
      <point x="405" y="149" type="curve" smooth="yes"/>
      <point x="405" y="151" type="line" smooth="yes"/>
      <point x="405" y="175"/>
      <point x="425" y="195"/>
      <point x="449" y="195" type="curve"/>
    </contour>
    <contour>
      <point x="49" y="95" type="line"/>
      <point x="51" y="95" type="line" smooth="yes"/>
      <point x="75" y="95"/>
      <point x="95" y="75"/>
      <point x="95" y="51" type="curve" smooth="yes"/>
      <point x="95" y="49" type="line" smooth="yes"/>
      <point x="95" y="25"/>
      <point x="75" y="5"/>
      <point x="51" y="5" type="curve" smooth="yes"/>
      <point x="49" y="5" type="line" smooth="yes"/>
      <point x="25" y="5"/>
      <point x="5" y="25"/>
      <point x="5" y="49" type="curve" smooth="yes"/>
      <point x="5" y="51" type="line" smooth="yes"/>
      <point x="5" y="75"/>
      <point x="25" y="95"/>
      <point x="49" y="95" type="curve"/>
    </contour>
    <contour>
      <point x="449" y="95" type="line"/>
      <point x="451" y="95" type="line" smooth="yes"/>
      <point x="475" y="95"/>
      <point x="495" y="75"/>
      <point x="495" y="51" type="curve" smooth="yes"/>
      <point x="495" y="49" type="line" smooth="yes"/>
      <point x="495" y="25"/>
      <point x="475" y="5"/>
      <point x="451" y="5" type="curve" smooth="yes"/>
      <point x="449" y="5" type="line" smooth="yes"/>
      <point x="425" y="5"/>
      <point x="405" y="25"/>
      <point x="405" y="49" type="curve" smooth="yes"/>
      <point x="405" y="51" type="line" smooth="yes"/>
      <point x="405" y="75"/>
      <point x="425" y="95"/>
      <point x="449" y="95" type="curve"/>
    </contour>
  </outline>
</glyph>
<glyph name="bracketright" format="2">
  <advance width="600"/>
  <unicode hex="005D"/>
  <outline>
    <contour>
      <point x="149" y="695" type="line"/>
      <point x="151" y="695" type="line" smooth="yes"/>
      <point x="175" y="695"/>
      <point x="195" y="675"/>
      <point x="195" y="651" type="curve" smooth="yes"/>
      <point x="195" y="649" type="line" smooth="yes"/>
      <point x="195" y="625"/>
      <point x="175" y="605"/>
      <point x="151" y="605" type="curve" smooth="yes"/>
      <point x="149" y="605" type="line" smooth="yes"/>
      <point x="125" y="605"/>
      <point x="105" y="625"/>
      <point x="105" y="649" type="curve" smooth="yes"/>
      <point x="105" y="651" type="line" smooth="yes"/>
      <point x="105" y="675"/>
      <point x="125" y="695"/>
      <point x="149" y="695" type="curve"/>
    </contour>
    <contour>
      <point x="249" y="695" type="line"/>
      <point x="251" y="695" type="line" smooth="yes"/>
      <point x="275" y="695"/>
      <point x="295" y="675"/>
      <point x="295" y="651" type="curve" smooth="yes"/>
      <point x="295" y="649" type="line" smooth="yes"/>
      <point x="295" y="625"/>
      <point x="275" y="605"/>
      <point x="251" y="605" type="curve" smooth="yes"/>
      <point x="249" y="605" type="line" smooth="yes"/>
      <point x="225" y="605"/>
      <point x="205" y="625"/>
      <point x="205" y="649" type="curve" smooth="yes"/>
      <point x="205" y="651" type="line" smooth="yes"/>
      <point x="205" y="675"/>
      <point x="225" y="695"/>
      <point x="249" y="695" type="curve"/>
    </contour>
    <contour>
      <point x="349" y="695" type="line"/>
      <point x="351" y="695" type="line" smooth="yes"/>
      <point x="375" y="695"/>
      <point x="395" y="675"/>
      <point x="395" y="651" type="curve" smooth="yes"/>
      <point x="395" y="649" type="line" smooth="yes"/>
      <point x="395" y="625"/>
      <point x="375" y="605"/>
      <point x="351" y="605" type="curve" smooth="yes"/>
      <point x="349" y="605" type="line" smooth="yes"/>
      <point x="325" y="605"/>
      <point x="305" y="625"/>
      <point x="305" y="649" type="curve" smooth="yes"/>
      <point x="305" y="651" type="line" smooth="yes"/>
      <point x="305" y="675"/>
      <point x="325" y="695"/>
      <point x="349" y="695" type="curve"/>
    </contour>
    <contour>
      <point x="349" y="595" type="line"/>
      <point x="351" y="595" type="line" smooth="yes"/>
      <point x="375" y="595"/>
      <point x="395" y="575"/>
      <point x="395" y="551" type="curve" smooth="yes"/>
      <point x="395" y="549" type="line" smooth="yes"/>
      <point x="395" y="525"/>
      <point x="375" y="505"/>
      <point x="351" y="505" type="curve" smooth="yes"/>
      <point x="349" y="505" type="line" smooth="yes"/>
      <point x="325" y="505"/>
      <point x="305" y="525"/>
      <point x="305" y="549" type="curve" smooth="yes"/>
      <point x="305" y="551" type="line" smooth="yes"/>
      <point x="305" y="575"/>
      <point x="325" y="595"/>
      <point x="349" y="595" type="curve"/>
    </contour>
    <contour>
      <point x="349" y="495" type="line"/>
      <point x="351" y="495" type="line" smooth="yes"/>
      <point x="375" y="495"/>
      <point x="395" y="475"/>
      <point x="395" y="451" type="curve" smooth="yes"/>
      <point x="395" y="449" type="line" smooth="yes"/>
      <point x="395" y="425"/>
      <point x="375" y="405"/>
      <point x="351" y="405" type="curve" smooth="yes"/>
      <point x="349" y="405" type="line" smooth="yes"/>
      <point x="325" y="405"/>
      <point x="305" y="425"/>
      <point x="305" y="449" type="curve" smooth="yes"/>
      <point x="305" y="451" type="line" smooth="yes"/>
      <point x="305" y="475"/>
      <point x="325" y="495"/>
      <point x="349" y="495" type="curve"/>
    </contour>
    <contour>
      <point x="349" y="395" type="line"/>
      <point x="351" y="395" type="line" smooth="yes"/>
      <point x="375" y="395"/>
      <point x="395" y="375"/>
      <point x="395" y="351" type="curve" smooth="yes"/>
      <point x="395" y="349" type="line" smooth="yes"/>
      <point x="395" y="325"/>
      <point x="375" y="305"/>
      <point x="351" y="305" type="curve" smooth="yes"/>
      <point x="349" y="305" type="line" smooth="yes"/>
      <point x="325" y="305"/>
      <point x="305" y="325"/>
      <point x="305" y="349" type="curve" smooth="yes"/>
      <point x="305" y="351" type="line" smooth="yes"/>
      <point x="305" y="375"/>
      <point x="325" y="395"/>
      <point x="349" y="395" type="curve"/>
    </contour>
    <contour>
      <point x="349" y="295" type="line"/>
      <point x="351" y="295" type="line" smooth="yes"/>
      <point x="375" y="295"/>
      <point x="395" y="275"/>
      <point x="395" y="251" type="curve" smooth="yes"/>
      <point x="395" y="249" type="line" smooth="yes"/>
      <point x="395" y="225"/>
      <point x="375" y="205"/>
      <point x="351" y="205" type="curve" smooth="yes"/>
      <point x="349" y="205" type="line" smooth="yes"/>
      <point x="325" y="205"/>
      <point x="305" y="225"/>
      <point x="305" y="249" type="curve" smooth="yes"/>
      <point x="305" y="251" type="line" smooth="yes"/>
      <point x="305" y="275"/>
      <point x="325" y="295"/>
      <point x="349" y="295" type="curve"/>
    </contour>
    <contour>
      <point x="349" y="195" type="line"/>
      <point x="351" y="195" type="line" smooth="yes"/>
      <point x="375" y="195"/>
      <point x="395" y="175"/>
      <point x="395" y="151" type="curve" smooth="yes"/>
      <point x="395" y="149" type="line" smooth="yes"/>
      <point x="395" y="125"/>
      <point x="375" y="105"/>
      <point x="351" y="105" type="curve" smooth="yes"/>
      <point x="349" y="105" type="line" smooth="yes"/>
      <point x="325" y="105"/>
      <point x="305" y="125"/>
      <point x="305" y="149" type="curve" smooth="yes"/>
      <point x="305" y="151" type="line" smooth="yes"/>
      <point x="305" y="175"/>
      <point x="325" y="195"/>
      <point x="349" y="195" type="curve"/>
    </contour>
    <contour>
      <point x="149" y="95" type="line"/>
      <point x="151" y="95" type="line" smooth="yes"/>
      <point x="175" y="95"/>
      <point x="195" y="75"/>
      <point x="195" y="51" type="curve" smooth="yes"/>
      <point x="195" y="49" type="line" smooth="yes"/>
      <point x="195" y="25"/>
      <point x="175" y="5"/>
      <point x="151" y="5" type="curve" smooth="yes"/>
      <point x="149" y="5" type="line" smooth="yes"/>
      <point x="125" y="5"/>
      <point x="105" y="25"/>
      <point x="105" y="49" type="curve" smooth="yes"/>
      <point x="105" y="51" type="line" smooth="yes"/>
      <point x="105" y="75"/>
      <point x="125" y="95"/>
      <point x="149" y="95" type="curve"/>
    </contour>
    <contour>
      <point x="249" y="95" type="line"/>
      <point x="251" y="95" type="line" smooth="yes"/>
      <point x="275" y="95"/>
      <point x="295" y="75"/>
      <point x="295" y="51" type="curve" smooth="yes"/>
      <point x="295" y="49" type="line" smooth="yes"/>
      <point x="295" y="25"/>
      <point x="275" y="5"/>
      <point x="251" y="5" type="curve" smooth="yes"/>
      <point x="249" y="5" type="line" smooth="yes"/>
      <point x="225" y="5"/>
      <point x="205" y="25"/>
      <point x="205" y="49" type="curve" smooth="yes"/>
      <point x="205" y="51" type="line" smooth="yes"/>
      <point x="205" y="75"/>
      <point x="225" y="95"/>
      <point x="249" y="95" type="curve"/>
    </contour>
    <contour>
      <point x="349" y="95" type="line"/>
      <point x="351" y="95" type="line" smooth="yes"/>
      <point x="375" y="95"/>
      <point x="395" y="75"/>
      <point x="395" y="51" type="curve" smooth="yes"/>
      <point x="395" y="49" type="line" smooth="yes"/>
      <point x="395" y="25"/>
      <point x="375" y="5"/>
      <point x="351" y="5" type="curve" smooth="yes"/>
      <point x="349" y="5" type="line" smooth="yes"/>
      <point x="325" y="5"/>
      <point x="305" y="25"/>
      <point x="305" y="49" type="curve" smooth="yes"/>
      <point x="305" y="51" type="line" smooth="yes"/>
      <point x="305" y="75"/>
      <point x="325" y="95"/>
      <point x="349" y="95" type="curve"/>
    </contour>
  </outline>
</glyph>
<glyph name="grave" format="2">
  <advance width="600"/>
  <unicode hex="0060"/>
  <outline>
    <contour>
      <point x="249" y="795" type="line"/>
      <point x="251" y="795" type="line" smooth="yes"/>
      <point x="275" y="795"/>
      <point x="295" y="775"/>
      <point x="295" y="751" type="curve" smooth="yes"/>
      <point x="295" y="749" type="line" smooth="yes"/>
      <point x="295" y="725"/>
      <point x="275" y="705"/>
      <point x="251" y="705" type="curve" smooth="yes"/>
      <point x="249" y="705" type="line" smooth="yes"/>
      <point x="225" y="705"/>
      <point x="205" y="725"/>
      <point x="205" y="749" type="curve" smooth="yes"/>
      <point x="205" y="751" type="line" smooth="yes"/>
      <point x="205" y="775"/>
      <point x="225" y="795"/>
      <point x="249" y="795" type="curve"/>
    </contour>
    <contour>
      <point x="349" y="695" type="line"/>
      <point x="351" y="695" type="line" smooth="yes"/>
      <point x="375" y="695"/>
      <point x="395" y="675"/>
      <point x="395" y="651" type="curve" smooth="yes"/>
      <point x="395" y="649" type="line" smooth="yes"/>
      <point x="395" y="625"/>
      <point x="375" y="605"/>
      <point x="351" y="605" type="curve" smooth="yes"/>
      <point x="349" y="605" type="line" smooth="yes"/>
      <point x="325" y="605"/>
      <point x="305" y="625"/>
      <point x="305" y="649" type="curve" smooth="yes"/>
      <point x="305" y="651" type="line" smooth="yes"/>
      <point x="305" y="675"/>
      <point x="325" y="695"/>
      <point x="349" y="695" type="curve"/>
    </contour>
  </outline>
</glyph>
<glyph name="n" format="2">
  <advance width="600"/>
  <unicode hex="006E"/>
  <outline>
    <contour>
      <point x="49" y="495" type="line"/>
      <point x="51" y="495" type="line" smooth="yes"/>
      <point x="75" y="495"/>
      <point x="95" y="475"/>
      <point x="95" y="451" type="curve" smooth="yes"/>
      <point x="95" y="449" type="line" smooth="yes"/>
      <point x="95" y="425"/>
      <point x="75" y="405"/>
      <point x="51" y="405" type="curve" smooth="yes"/>
      <point x="49" y="405" type="line" smooth="yes"/>
      <point x="25" y="405"/>
      <point x="5" y="425"/>
      <point x="5" y="449" type="curve" smooth="yes"/>
      <point x="5" y="451" type="line" smooth="yes"/>
      <point x="5" y="475"/>
      <point x="25" y="495"/>
      <point x="49" y="495" type="curve"/>
    </contour>
    <contour>
      <point x="249" y="495" type="line"/>
      <point x="251" y="495" type="line" smooth="yes"/>
      <point x="275" y="495"/>
      <point x="295" y="475"/>
      <point x="295" y="451" type="curve" smooth="yes"/>
      <point x="295" y="449" type="line" smooth="yes"/>
      <point x="295" y="425"/>
      <point x="275" y="405"/>
      <point x="251" y="405" type="curve" smooth="yes"/>
      <point x="249" y="405" type="line" smooth="yes"/>
      <point x="225" y="405"/>
      <point x="205" y="425"/>
      <point x="205" y="449" type="curve" smooth="yes"/>
      <point x="205" y="451" type="line" smooth="yes"/>
      <point x="205" y="475"/>
      <point x="225" y="495"/>
      <point x="249" y="495" type="curve"/>
    </contour>
    <contour>
      <point x="349" y="495" type="line"/>
      <point x="351" y="495" type="line" smooth="yes"/>
      <point x="375" y="495"/>
      <point x="395" y="475"/>
      <point x="395" y="451" type="curve" smooth="yes"/>
      <point x="395" y="449" type="line" smooth="yes"/>
      <point x="395" y="425"/>
      <point x="375" y="405"/>
      <point x="351" y="405" type="curve" smooth="yes"/>
      <point x="349" y="405" type="line" smooth="yes"/>
      <point x="325" y="405"/>
      <point x="305" y="425"/>
      <point x="305" y="449" type="curve" smooth="yes"/>
      <point x="305" y="451" type="line" smooth="yes"/>
      <point x="305" y="475"/>
      <point x="325" y="495"/>
      <point x="349" y="495" type="curve"/>
    </contour>
    <contour>
      <point x="49" y="395" type="line"/>
      <point x="51" y="395" type="line" smooth="yes"/>
      <point x="75" y="395"/>
      <point x="95" y="375"/>
      <point x="95" y="351" type="curve" smooth="yes"/>
      <point x="95" y="349" type="line" smooth="yes"/>
      <point x="95" y="325"/>
      <point x="75" y="305"/>
      <point x="51" y="305" type="curve" smooth="yes"/>
      <point x="49" y="305" type="line" smooth="yes"/>
      <point x="25" y="305"/>
      <point x="5" y="325"/>
      <point x="5" y="349" type="curve" smooth="yes"/>
      <point x="5" y="351" type="line" smooth="yes"/>
      <point x="5" y="375"/>
      <point x="25" y="395"/>
      <point x="49" y="395" type="curve"/>
    </contour>
    <contour>
      <point x="149" y="395" type="line"/>
      <point x="151" y="395" type="line" smooth="yes"/>
      <point x="175" y="395"/>
      <point x="195" y="375"/>
      <point x="195" y="351" type="curve" smooth="yes"/>
      <point x="195" y="349" type="line" smooth="yes"/>
      <point x="195" y="325"/>
      <point x="175" y="305"/>
      <point x="151" y="305" type="curve" smooth="yes"/>
      <point x="149" y="305" type="line" smooth="yes"/>
      <point x="125" y="305"/>
      <point x="105" y="325"/>
      <point x="105" y="349" type="curve" smooth="yes"/>
      <point x="105" y="351" type="line" smooth="yes"/>
      <point x="105" y="375"/>
      <point x="125" y="395"/>
      <point x="149" y="395" type="curve"/>
    </contour>
    <contour>
      <point x="449" y="395" type="line"/>
      <point x="451" y="395" type="line" smooth="yes"/>
      <point x="475" y="395"/>
      <point x="495" y="375"/>
      <point x="495" y="351" type="curve" smooth="yes"/>
      <point x="495" y="349" type="line" smooth="yes"/>
      <point x="495" y="325"/>
      <point x="475" y="305"/>
      <point x="451" y="305" type="curve" smooth="yes"/>
      <point x="449" y="305" type="line" smooth="yes"/>
      <point x="425" y="305"/>
      <point x="405" y="325"/>
      <point x="405" y="349" type="curve" smooth="yes"/>
      <point x="405" y="351" type="line" smooth="yes"/>
      <point x="405" y="375"/>
      <point x="425" y="395"/>
      <point x="449" y="395" type="curve"/>
    </contour>
    <contour>
      <point x="49" y="295" type="line"/>
      <point x="51" y="295" type="line" smooth="yes"/>
      <point x="75" y="295"/>
      <point x="95" y="275"/>
      <point x="95" y="251" type="curve" smooth="yes"/>
      <point x="95" y="249" type="line" smooth="yes"/>
      <point x="95" y="225"/>
      <point x="75" y="205"/>
      <point x="51" y="205" type="curve" smooth="yes"/>
      <point x="49" y="205" type="line" smooth="yes"/>
      <point x="25" y="205"/>
      <point x="5" y="225"/>
      <point x="5" y="249" type="curve" smooth="yes"/>
      <point x="5" y="251" type="line" smooth="yes"/>
      <point x="5" y="275"/>
      <point x="25" y="295"/>
      <point x="49" y="295" type="curve"/>
    </contour>
    <contour>
      <point x="449" y="295" type="line"/>
      <point x="451" y="295" type="line" smooth="yes"/>
      <point x="475" y="295"/>
      <point x="495" y="275"/>
      <point x="495" y="251" type="curve" smooth="yes"/>
      <point x="495" y="249" type="line" smooth="yes"/>
      <point x="495" y="225"/>
      <point x="475" y="205"/>
      <point x="451" y="205" type="curve" smooth="yes"/>
      <point x="449" y="205" type="line" smooth="yes"/>
      <point x="425" y="205"/>
      <point x="405" y="225"/>
      <point x="405" y="249" type="curve" smooth="yes"/>
      <point x="405" y="251" type="line" smooth="yes"/>
      <point x="405" y="275"/>
      <point x="425" y="295"/>
      <point x="449" y="295" type="curve"/>
    </contour>
    <contour>
      <point x="49" y="195" type="line"/>
      <point x="51" y="195" type="line" smooth="yes"/>
      <point x="75" y="195"/>
      <point x="95" y="175"/>
      <point x="95" y="151" type="curve" smooth="yes"/>
      <point x="95" y="149" type="line" smooth="yes"/>
      <point x="95" y="125"/>
      <point x="75" y="105"/>
      <point x="51" y="105" type="curve" smooth="yes"/>
      <point x="49" y="105" type="line" smooth="yes"/>
      <point x="25" y="105"/>
      <point x="5" y="125"/>
      <point x="5" y="149" type="curve" smooth="yes"/>
      <point x="5" y="151" type="line" smooth="yes"/>
      <point x="5" y="175"/>
      <point x="25" y="195"/>
      <point x="49" y="195" type="curve"/>
    </contour>
    <contour>
      <point x="449" y="195" type="line"/>
      <point x="451" y="195" type="line" smooth="yes"/>
      <point x="475" y="195"/>
      <point x="495" y="175"/>
      <point x="495" y="151" type="curve" smooth="yes"/>
      <point x="495" y="149" type="line" smooth="yes"/>
      <point x="495" y="125"/>
      <point x="475" y="105"/>
      <point x="451" y="105" type="curve" smooth="yes"/>
      <point x="449" y="105" type="line" smooth="yes"/>
      <point x="425" y="105"/>
      <point x="405" y="125"/>
      <point x="405" y="149" type="curve" smooth="yes"/>
      <point x="405" y="151" type="line" smooth="yes"/>
      <point x="405" y="175"/>
      <point x="425" y="195"/>
      <point x="449" y="195" type="curve"/>
    </contour>
    <contour>
      <point x="49" y="95" type="line"/>
      <point x="51" y="95" type="line" smooth="yes"/>
      <point x="75" y="95"/>
      <point x="95" y="75"/>
      <point x="95" y="51" type="curve" smooth="yes"/>
      <point x="95" y="49" type="line" smooth="yes"/>
      <point x="95" y="25"/>
      <point x="75" y="5"/>
      <point x="51" y="5" type="curve" smooth="yes"/>
      <point x="49" y="5" type="line" smooth="yes"/>
      <point x="25" y="5"/>
      <point x="5" y="25"/>
      <point x="5" y="49" type="curve" smooth="yes"/>
      <point x="5" y="51" type="line" smooth="yes"/>
      <point x="5" y="75"/>
      <point x="25" y="95"/>
      <point x="49" y="95" type="curve"/>
    </contour>
    <contour>
      <point x="449" y="95" type="line"/>
      <point x="451" y="95" type="line" smooth="yes"/>
      <point x="475" y="95"/>
      <point x="495" y="75"/>
      <point x="495" y="51" type="curve" smooth="yes"/>
      <point x="495" y="49" type="line" smooth="yes"/>
      <point x="495" y="25"/>
      <point x="475" y="5"/>
      <point x="451" y="5" type="curve" smooth="yes"/>
      <point x="449" y="5" type="line" smooth="yes"/>
      <point x="425" y="5"/>
      <point x="405" y="25"/>
      <point x="405" y="49" type="curve" smooth="yes"/>
      <point x="405" y="51" type="line" smooth="yes"/>
      <point x="405" y="75"/>
      <point x="425" y="95"/>
      <point x="449" y="95" type="curve"/>
    </contour>
  </outline>
</glyph>
<glyph name="x" format="2">
  <advance width="600"/>
  <unicode hex="0078"/>
  <outline>
    <contour>
      <point x="49" y="495" type="line"/>
      <point x="51" y="495" type="line" smooth="yes"/>
      <point x="75" y="495"/>
      <point x="95" y="475"/>
      <point x="95" y="451" type="curve" smooth="yes"/>
      <point x="95" y="449" type="line" smooth="yes"/>
      <point x="95" y="425"/>
      <point x="75" y="405"/>
      <point x="51" y="405" type="curve" smooth="yes"/>
      <point x="49" y="405" type="line" smooth="yes"/>
      <point x="25" y="405"/>
      <point x="5" y="425"/>
      <point x="5" y="449" type="curve" smooth="yes"/>
      <point x="5" y="451" type="line" smooth="yes"/>
      <point x="5" y="475"/>
      <point x="25" y="495"/>
      <point x="49" y="495" type="curve"/>
    </contour>
    <contour>
      <point x="449" y="495" type="line"/>
      <point x="451" y="495" type="line" smooth="yes"/>
      <point x="475" y="495"/>
      <point x="495" y="475"/>
      <point x="495" y="451" type="curve" smooth="yes"/>
      <point x="495" y="449" type="line" smooth="yes"/>
      <point x="495" y="425"/>
      <point x="475" y="405"/>
      <point x="451" y="405" type="curve" smooth="yes"/>
      <point x="449" y="405" type="line" smooth="yes"/>
      <point x="425" y="405"/>
      <point x="405" y="425"/>
      <point x="405" y="449" type="curve" smooth="yes"/>
      <point x="405" y="451" type="line" smooth="yes"/>
      <point x="405" y="475"/>
      <point x="425" y="495"/>
      <point x="449" y="495" type="curve"/>
    </contour>
    <contour>
      <point x="149" y="395" type="line"/>
      <point x="151" y="395" type="line" smooth="yes"/>
      <point x="175" y="395"/>
      <point x="195" y="375"/>
      <point x="195" y="351" type="curve" smooth="yes"/>
      <point x="195" y="349" type="line" smooth="yes"/>
      <point x="195" y="325"/>
      <point x="175" y="305"/>
      <point x="151" y="305" type="curve" smooth="yes"/>
      <point x="149" y="305" type="line" smooth="yes"/>
      <point x="125" y="305"/>
      <point x="105" y="325"/>
      <point x="105" y="349" type="curve" smooth="yes"/>
      <point x="105" y="351" type="line" smooth="yes"/>
      <point x="105" y="375"/>
      <point x="125" y="395"/>
      <point x="149" y="395" type="curve"/>
    </contour>
    <contour>
      <point x="349" y="395" type="line"/>
      <point x="351" y="395" type="line" smooth="yes"/>
      <point x="375" y="395"/>
      <point x="395" y="375"/>
      <point x="395" y="351" type="curve" smooth="yes"/>
      <point x="395" y="349" type="line" smooth="yes"/>
      <point x="395" y="325"/>
      <point x="375" y="305"/>
      <point x="351" y="305" type="curve" smooth="yes"/>
      <point x="349" y="305" type="line" smooth="yes"/>
      <point x="325" y="305"/>
      <point x="305" y="325"/>
      <point x="305" y="349" type="curve" smooth="yes"/>
      <point x="305" y="351" type="line" smooth="yes"/>
      <point x="305" y="375"/>
      <point x="325" y="395"/>
      <point x="349" y="395" type="curve"/>
    </contour>
    <contour>
      <point x="249" y="295" type="line"/>
      <point x="251" y="295" type="line" smooth="yes"/>
      <point x="275" y="295"/>
      <point x="295" y="275"/>
      <point x="295" y="251" type="curve" smooth="yes"/>
      <point x="295" y="249" type="line" smooth="yes"/>
      <point x="295" y="225"/>
      <point x="275" y="205"/>
      <point x="251" y="205" type="curve" smooth="yes"/>
      <point x="249" y="205" type="line" smooth="yes"/>
      <point x="225" y="205"/>
      <point x="205" y="225"/>
      <point x="205" y="249" type="curve" smooth="yes"/>
      <point x="205" y="251" type="line" smooth="yes"/>
      <point x="205" y="275"/>
      <point x="225" y="295"/>
      <point x="249" y="295" type="curve"/>
    </contour>
    <contour>
      <point x="149" y="195" type="line"/>
      <point x="151" y="195" type="line" smooth="yes"/>
      <point x="175" y="195"/>
      <point x="195" y="175"/>
      <point x="195" y="151" type="curve" smooth="yes"/>
      <point x="195" y="149" type="line" smooth="yes"/>
      <point x="195" y="125"/>
      <point x="175" y="105"/>
      <point x="151" y="105" type="curve" smooth="yes"/>
      <point x="149" y="105" type="line" smooth="yes"/>
      <point x="125" y="105"/>
      <point x="105" y="125"/>
      <point x="105" y="149" type="curve" smooth="yes"/>
      <point x="105" y="151" type="line" smooth="yes"/>
      <point x="105" y="175"/>
      <point x="125" y="195"/>
      <point x="149" y="195" type="curve"/>
    </contour>
    <contour>
      <point x="349" y="195" type="line"/>
      <point x="351" y="195" type="line" smooth="yes"/>
      <point x="375" y="195"/>
      <point x="395" y="175"/>
      <point x="395" y="151" type="curve" smooth="yes"/>
      <point x="395" y="149" type="line" smooth="yes"/>
      <point x="395" y="125"/>
      <point x="375" y="105"/>
      <point x="351" y="105" type="curve" smooth="yes"/>
      <point x="349" y="105" type="line" smooth="yes"/>
      <point x="325" y="105"/>
      <point x="305" y="125"/>
      <point x="305" y="149" type="curve" smooth="yes"/>
      <point x="305" y="151" type="line" smooth="yes"/>
      <point x="305" y="175"/>
      <point x="325" y="195"/>
      <point x="349" y="195" type="curve"/>
    </contour>
    <contour>
      <point x="49" y="95" type="line"/>
      <point x="51" y="95" type="line" smooth="yes"/>
      <point x="75" y="95"/>
      <point x="95" y="75"/>
      <point x="95" y="51" type="curve" smooth="yes"/>
      <point x="95" y="49" type="line" smooth="yes"/>
      <point x="95" y="25"/>
      <point x="75" y="5"/>
      <point x="51" y="5" type="curve" smooth="yes"/>
      <point x="49" y="5" type="line" smooth="yes"/>
      <point x="25" y="5"/>
      <point x="5" y="25"/>
      <point x="5" y="49" type="curve" smooth="yes"/>
      <point x="5" y="51" type="line" smooth="yes"/>
      <point x="5" y="75"/>
      <point x="25" y="95"/>
      <point x="49" y="95" type="curve"/>
    </contour>
    <contour>
      <point x="449" y="95" type="line"/>
      <point x="451" y="95" type="line" smooth="yes"/>
      <point x="475" y="95"/>
      <point x="495" y="75"/>
      <point x="495" y="51" type="curve" smooth="yes"/>
      <point x="495" y="49" type="line" smooth="yes"/>
      <point x="495" y="25"/>
      <point x="475" y="5"/>
      <point x="451" y="5" type="curve" smooth="yes"/>
      <point x="449" y="5" type="line" smooth="yes"/>
      <point x="425" y="5"/>
      <point x="405" y="25"/>
      <point x="405" y="49" type="curve" smooth="yes"/>
      <point x="405" y="51" type="line" smooth="yes"/>
      <point x="405" y="75"/>
      <point x="425" y="95"/>
      <point x="449" y="95" type="curve"/>
    </contour>
  </outline>
</glyph>
<glyph name="braceleft" format="2">
  <advance width="600"/>
  <unicode hex="007B"/>
  <outline>
    <contour>
      <point x="349" y="695" type="line"/>
      <point x="351" y="695" type="line" smooth="yes"/>
      <point x="375" y="695"/>
      <point x="395" y="675"/>
      <point x="395" y="651" type="curve" smooth="yes"/>
      <point x="395" y="649" type="line" smooth="yes"/>
      <point x="395" y="625"/>
      <point x="375" y="605"/>
      <point x="351" y="605" type="curve" smooth="yes"/>
      <point x="349" y="605" type="line" smooth="yes"/>
      <point x="325" y="605"/>
      <point x="305" y="625"/>
      <point x="305" y="649" type="curve" smooth="yes"/>
      <point x="305" y="651" type="line" smooth="yes"/>
      <point x="305" y="675"/>
      <point x="325" y="695"/>
      <point x="349" y="695" type="curve"/>
    </contour>
    <contour>
      <point x="449" y="695" type="line"/>
      <point x="451" y="695" type="line" smooth="yes"/>
      <point x="475" y="695"/>
      <point x="495" y="675"/>
      <point x="495" y="651" type="curve" smooth="yes"/>
      <point x="495" y="649" type="line" smooth="yes"/>
      <point x="495" y="625"/>
      <point x="475" y="605"/>
      <point x="451" y="605" type="curve" smooth="yes"/>
      <point x="449" y="605" type="line" smooth="yes"/>
      <point x="425" y="605"/>
      <point x="405" y="625"/>
      <point x="405" y="649" type="curve" smooth="yes"/>
      <point x="405" y="651" type="line" smooth="yes"/>
      <point x="405" y="675"/>
      <point x="425" y="695"/>
      <point x="449" y="695" type="curve"/>
    </contour>
    <contour>
      <point x="249" y="595" type="line"/>
      <point x="251" y="595" type="line" smooth="yes"/>
      <point x="275" y="595"/>
      <point x="295" y="575"/>
      <point x="295" y="551" type="curve" smooth="yes"/>
      <point x="295" y="549" type="line" smooth="yes"/>
      <point x="295" y="525"/>
      <point x="275" y="505"/>
      <point x="251" y="505" type="curve" smooth="yes"/>
      <point x="249" y="505" type="line" smooth="yes"/>
      <point x="225" y="505"/>
      <point x="205" y="525"/>
      <point x="205" y="549" type="curve" smooth="yes"/>
      <point x="205" y="551" type="line" smooth="yes"/>
      <point x="205" y="575"/>
      <point x="225" y="595"/>
      <point x="249" y="595" type="curve"/>
    </contour>
    <contour>
      <point x="349" y="495" type="line"/>
      <point x="351" y="495" type="line" smooth="yes"/>
      <point x="375" y="495"/>
      <point x="395" y="475"/>
      <point x="395" y="451" type="curve" smooth="yes"/>
      <point x="395" y="449" type="line" smooth="yes"/>
      <point x="395" y="425"/>
      <point x="375" y="405"/>
      <point x="351" y="405" type="curve" smooth="yes"/>
      <point x="349" y="405" type="line" smooth="yes"/>
      <point x="325" y="405"/>
      <point x="305" y="425"/>
      <point x="305" y="449" type="curve" smooth="yes"/>
      <point x="305" y="451" type="line" smooth="yes"/>
      <point x="305" y="475"/>
      <point x="325" y="495"/>
      <point x="349" y="495" type="curve"/>
    </contour>
    <contour>
      <point x="149" y="395" type="line"/>
      <point x="151" y="395" type="line" smooth="yes"/>
      <point x="175" y="395"/>
      <point x="195" y="375"/>
      <point x="195" y="351" type="curve" smooth="yes"/>
      <point x="195" y="349" type="line" smooth="yes"/>
      <point x="195" y="325"/>
      <point x="175" y="305"/>
      <point x="151" y="305" type="curve" smooth="yes"/>
      <point x="149" y="305" type="line" smooth="yes"/>
      <point x="125" y="305"/>
      <point x="105" y="325"/>
      <point x="105" y="349" type="curve" smooth="yes"/>
      <point x="105" y="351" type="line" smooth="yes"/>
      <point x="105" y="375"/>
      <point x="125" y="395"/>
      <point x="149" y="395" type="curve"/>
    </contour>
    <contour>
      <point x="249" y="395" type="line"/>
      <point x="251" y="395" type="line" smooth="yes"/>
      <point x="275" y="395"/>
      <point x="295" y="375"/>
      <point x="295" y="351" type="curve" smooth="yes"/>
      <point x="295" y="349" type="line" smooth="yes"/>
      <point x="295" y="325"/>
      <point x="275" y="305"/>
      <point x="251" y="305" type="curve" smooth="yes"/>
      <point x="249" y="305" type="line" smooth="yes"/>
      <point x="225" y="305"/>
      <point x="205" y="325"/>
      <point x="205" y="349" type="curve" smooth="yes"/>
      <point x="205" y="351" type="line" smooth="yes"/>
      <point x="205" y="375"/>
      <point x="225" y="395"/>
      <point x="249" y="395" type="curve"/>
    </contour>
    <contour>
      <point x="349" y="295" type="line"/>
      <point x="351" y="295" type="line" smooth="yes"/>
      <point x="375" y="295"/>
      <point x="395" y="275"/>
      <point x="395" y="251" type="curve" smooth="yes"/>
      <point x="395" y="249" type="line" smooth="yes"/>
      <point x="395" y="225"/>
      <point x="375" y="205"/>
      <point x="351" y="205" type="curve" smooth="yes"/>
      <point x="349" y="205" type="line" smooth="yes"/>
      <point x="325" y="205"/>
      <point x="305" y="225"/>
      <point x="305" y="249" type="curve" smooth="yes"/>
      <point x="305" y="251" type="line" smooth="yes"/>
      <point x="305" y="275"/>
      <point x="325" y="295"/>
      <point x="349" y="295" type="curve"/>
    </contour>
    <contour>
      <point x="249" y="195" type="line"/>
      <point x="251" y="195" type="line" smooth="yes"/>
      <point x="275" y="195"/>
      <point x="295" y="175"/>
      <point x="295" y="151" type="curve" smooth="yes"/>
      <point x="295" y="149" type="line" smooth="yes"/>
      <point x="295" y="125"/>
      <point x="275" y="105"/>
      <point x="251" y="105" type="curve" smooth="yes"/>
      <point x="249" y="105" type="line" smooth="yes"/>
      <point x="225" y="105"/>
      <point x="205" y="125"/>
      <point x="205" y="149" type="curve" smooth="yes"/>
      <point x="205" y="151" type="line" smooth="yes"/>
      <point x="205" y="175"/>
      <point x="225" y="195"/>
      <point x="249" y="195" type="curve"/>
    </contour>
    <contour>
      <point x="349" y="95" type="line"/>
      <point x="351" y="95" type="line" smooth="yes"/>
      <point x="375" y="95"/>
      <point x="395" y="75"/>
      <point x="395" y="51" type="curve" smooth="yes"/>
      <point x="395" y="49" type="line" smooth="yes"/>
      <point x="395" y="25"/>
      <point x="375" y="5"/>
      <point x="351" y="5" type="curve" smooth="yes"/>
      <point x="349" y="5" type="line" smooth="yes"/>
      <point x="325" y="5"/>
      <point x="305" y="25"/>
      <point x="305" y="49" type="curve" smooth="yes"/>
      <point x="305" y="51" type="line" smooth="yes"/>
      <point x="305" y="75"/>
      <point x="325" y="95"/>
      <point x="349" y="95" type="curve"/>
    </contour>
    <contour>
      <point x="449" y="95" type="line"/>
      <point x="451" y="95" type="line" smooth="yes"/>
      <point x="475" y="95"/>
      <point x="495" y="75"/>
      <point x="495" y="51" type="curve" smooth="yes"/>
      <point x="495" y="49" type="line" smooth="yes"/>
      <point x="495" y="25"/>
      <point x="475" y="5"/>
      <point x="451" y="5" type="curve" smooth="yes"/>
      <point x="449" y="5" type="line" smooth="yes"/>
      <point x="425" y="5"/>
      <point x="405" y="25"/>
      <point x="405" y="49" type="curve" smooth="yes"/>
      <point x="405" y="51" type="line" smooth="yes"/>
      <point x="405" y="75"/>
      <point x="425" y="95"/>
      <point x="449" y="95" type="curve"/>
    </contour>
  </outline>
</glyph>
<glyph name="cent" format="2">
  <advance width="600"/>
  <unicode hex="00A2"/>
  <outline>
    <contour>
      <point x="249" y="595" type="line"/>
      <point x="251" y="595" type="line" smooth="yes"/>
      <point x="275" y="595"/>
      <point x="295" y="575"/>
      <point x="295" y="551" type="curve" smooth="yes"/>
      <point x="295" y="549" type="line" smooth="yes"/>
      <point x="295" y="525"/>
      <point x="275" y="505"/>
      <point x="251" y="505" type="curve" smooth="yes"/>
      <point x="249" y="505" type="line" smooth="yes"/>
      <point x="225" y="505"/>
      <point x="205" y="525"/>
      <point x="205" y="549" type="curve" smooth="yes"/>
      <point x="205" y="551" type="line" smooth="yes"/>
      <point x="205" y="575"/>
      <point x="225" y="595"/>
      <point x="249" y="595" type="curve"/>
    </contour>
    <contour>
      <point x="149" y="495" type="line"/>
      <point x="151" y="495" type="line" smooth="yes"/>
      <point x="175" y="495"/>
      <point x="195" y="475"/>
      <point x="195" y="451" type="curve" smooth="yes"/>
      <point x="195" y="449" type="line" smooth="yes"/>
      <point x="195" y="425"/>
      <point x="175" y="405"/>
      <point x="151" y="405" type="curve" smooth="yes"/>
      <point x="149" y="405" type="line" smooth="yes"/>
      <point x="125" y="405"/>
      <point x="105" y="425"/>
      <point x="105" y="449" type="curve" smooth="yes"/>
      <point x="105" y="451" type="line" smooth="yes"/>
      <point x="105" y="475"/>
      <point x="125" y="495"/>
      <point x="149" y="495" type="curve"/>
    </contour>
    <contour>
      <point x="249" y="495" type="line"/>
      <point x="251" y="495" type="line" smooth="yes"/>
      <point x="275" y="495"/>
      <point x="295" y="475"/>
      <point x="295" y="451" type="curve" smooth="yes"/>
      <point x="295" y="449" type="line" smooth="yes"/>
      <point x="295" y="425"/>
      <point x="275" y="405"/>
      <point x="251" y="405" type="curve" smooth="yes"/>
      <point x="249" y="405" type="line" smooth="yes"/>
      <point x="225" y="405"/>
      <point x="205" y="425"/>
      <point x="205" y="449" type="curve" smooth="yes"/>
      <point x="205" y="451" type="line" smooth="yes"/>
      <point x="205" y="475"/>
      <point x="225" y="495"/>
      <point x="249" y="495" type="curve"/>
    </contour>
    <contour>
      <point x="349" y="495" type="line"/>
      <point x="351" y="495" type="line" smooth="yes"/>
      <point x="375" y="495"/>
      <point x="395" y="475"/>
      <point x="395" y="451" type="curve" smooth="yes"/>
      <point x="395" y="449" type="line" smooth="yes"/>
      <point x="395" y="425"/>
      <point x="375" y="405"/>
      <point x="351" y="405" type="curve" smooth="yes"/>
      <point x="349" y="405" type="line" smooth="yes"/>
      <point x="325" y="405"/>
      <point x="305" y="425"/>
      <point x="305" y="449" type="curve" smooth="yes"/>
      <point x="305" y="451" type="line" smooth="yes"/>
      <point x="305" y="475"/>
      <point x="325" y="495"/>
      <point x="349" y="495" type="curve"/>
    </contour>
    <contour>
      <point x="449" y="495" type="line"/>
      <point x="451" y="495" type="line" smooth="yes"/>
      <point x="475" y="495"/>
      <point x="495" y="475"/>
      <point x="495" y="451" type="curve" smooth="yes"/>
      <point x="495" y="449" type="line" smooth="yes"/>
      <point x="495" y="425"/>
      <point x="475" y="405"/>
      <point x="451" y="405" type="curve" smooth="yes"/>
      <point x="449" y="405" type="line" smooth="yes"/>
      <point x="425" y="405"/>
      <point x="405" y="425"/>
      <point x="405" y="449" type="curve" smooth="yes"/>
      <point x="405" y="451" type="line" smooth="yes"/>
      <point x="405" y="475"/>
      <point x="425" y="495"/>
      <point x="449" y="495" type="curve"/>
    </contour>
    <contour>
      <point x="49" y="395" type="line"/>
      <point x="51" y="395" type="line" smooth="yes"/>
      <point x="75" y="395"/>
      <point x="95" y="375"/>
      <point x="95" y="351" type="curve" smooth="yes"/>
      <point x="95" y="349" type="line" smooth="yes"/>
      <point x="95" y="325"/>
      <point x="75" y="305"/>
      <point x="51" y="305" type="curve" smooth="yes"/>
      <point x="49" y="305" type="line" smooth="yes"/>
      <point x="25" y="305"/>
      <point x="5" y="325"/>
      <point x="5" y="349" type="curve" smooth="yes"/>
      <point x="5" y="351" type="line" smooth="yes"/>
      <point x="5" y="375"/>
      <point x="25" y="395"/>
      <point x="49" y="395" type="curve"/>
    </contour>
    <contour>
      <point x="249" y="395" type="line"/>
      <point x="251" y="395" type="line" smooth="yes"/>
      <point x="275" y="395"/>
      <point x="295" y="375"/>
      <point x="295" y="351" type="curve" smooth="yes"/>
      <point x="295" y="349" type="line" smooth="yes"/>
      <point x="295" y="325"/>
      <point x="275" y="305"/>
      <point x="251" y="305" type="curve" smooth="yes"/>
      <point x="249" y="305" type="line" smooth="yes"/>
      <point x="225" y="305"/>
      <point x="205" y="325"/>
      <point x="205" y="349" type="curve" smooth="yes"/>
      <point x="205" y="351" type="line" smooth="yes"/>
      <point x="205" y="375"/>
      <point x="225" y="395"/>
      <point x="249" y="395" type="curve"/>
    </contour>
    <contour>
      <point x="49" y="295" type="line"/>
      <point x="51" y="295" type="line" smooth="yes"/>
      <point x="75" y="295"/>
      <point x="95" y="275"/>
      <point x="95" y="251" type="curve" smooth="yes"/>
      <point x="95" y="249" type="line" smooth="yes"/>
      <point x="95" y="225"/>
      <point x="75" y="205"/>
      <point x="51" y="205" type="curve" smooth="yes"/>
      <point x="49" y="205" type="line" smooth="yes"/>
      <point x="25" y="205"/>
      <point x="5" y="225"/>
      <point x="5" y="249" type="curve" smooth="yes"/>
      <point x="5" y="251" type="line" smooth="yes"/>
      <point x="5" y="275"/>
      <point x="25" y="295"/>
      <point x="49" y="295" type="curve"/>
    </contour>
    <contour>
      <point x="249" y="295" type="line"/>
      <point x="251" y="295" type="line" smooth="yes"/>
      <point x="275" y="295"/>
      <point x="295" y="275"/>
      <point x="295" y="251" type="curve" smooth="yes"/>
      <point x="295" y="249" type="line" smooth="yes"/>
      <point x="295" y="225"/>
      <point x="275" y="205"/>
      <point x="251" y="205" type="curve" smooth="yes"/>
      <point x="249" y="205" type="line" smooth="yes"/>
      <point x="225" y="205"/>
      <point x="205" y="225"/>
      <point x="205" y="249" type="curve" smooth="yes"/>
      <point x="205" y="251" type="line" smooth="yes"/>
      <point x="205" y="275"/>
      <point x="225" y="295"/>
      <point x="249" y="295" type="curve"/>
    </contour>
    <contour>
      <point x="49" y="195" type="line"/>
      <point x="51" y="195" type="line" smooth="yes"/>
      <point x="75" y="195"/>
      <point x="95" y="175"/>
      <point x="95" y="151" type="curve" smooth="yes"/>
      <point x="95" y="149" type="line" smooth="yes"/>
      <point x="95" y="125"/>
      <point x="75" y="105"/>
      <point x="51" y="105" type="curve" smooth="yes"/>
      <point x="49" y="105" type="line" smooth="yes"/>
      <point x="25" y="105"/>
      <point x="5" y="125"/>
      <point x="5" y="149" type="curve" smooth="yes"/>
      <point x="5" y="151" type="line" smooth="yes"/>
      <point x="5" y="175"/>
      <point x="25" y="195"/>
      <point x="49" y="195" type="curve"/>
    </contour>
    <contour>
      <point x="249" y="195" type="line"/>
      <point x="251" y="195" type="line" smooth="yes"/>
      <point x="275" y="195"/>
      <point x="295" y="175"/>
      <point x="295" y="151" type="curve" smooth="yes"/>
      <point x="295" y="149" type="line" smooth="yes"/>
      <point x="295" y="125"/>
      <point x="275" y="105"/>
      <point x="251" y="105" type="curve" smooth="yes"/>
      <point x="249" y="105" type="line" smooth="yes"/>
      <point x="225" y="105"/>
      <point x="205" y="125"/>
      <point x="205" y="149" type="curve" smooth="yes"/>
      <point x="205" y="151" type="line" smooth="yes"/>
      <point x="205" y="175"/>
      <point x="225" y="195"/>
      <point x="249" y="195" type="curve"/>
    </contour>
    <contour>
      <point x="149" y="95" type="line"/>
      <point x="151" y="95" type="line" smooth="yes"/>
      <point x="175" y="95"/>
      <point x="195" y="75"/>
      <point x="195" y="51" type="curve" smooth="yes"/>
      <point x="195" y="49" type="line" smooth="yes"/>
      <point x="195" y="25"/>
      <point x="175" y="5"/>
      <point x="151" y="5" type="curve" smooth="yes"/>
      <point x="149" y="5" type="line" smooth="yes"/>
      <point x="125" y="5"/>
      <point x="105" y="25"/>
      <point x="105" y="49" type="curve" smooth="yes"/>
      <point x="105" y="51" type="line" smooth="yes"/>
      <point x="105" y="75"/>
      <point x="125" y="95"/>
      <point x="149" y="95" type="curve"/>
    </contour>
    <contour>
      <point x="249" y="95" type="line"/>
      <point x="251" y="95" type="line" smooth="yes"/>
      <point x="275" y="95"/>
      <point x="295" y="75"/>
      <point x="295" y="51" type="curve" smooth="yes"/>
      <point x="295" y="49" type="line" smooth="yes"/>
      <point x="295" y="25"/>
      <point x="275" y="5"/>
      <point x="251" y="5" type="curve" smooth="yes"/>
      <point x="249" y="5" type="line" smooth="yes"/>
      <point x="225" y="5"/>
      <point x="205" y="25"/>
      <point x="205" y="49" type="curve" smooth="yes"/>
      <point x="205" y="51" type="line" smooth="yes"/>
      <point x="205" y="75"/>
      <point x="225" y="95"/>
      <point x="249" y="95" type="curve"/>
    </contour>
    <contour>
      <point x="349" y="95" type="line"/>
      <point x="351" y="95" type="line" smooth="yes"/>
      <point x="375" y="95"/>
      <point x="395" y="75"/>
      <point x="395" y="51" type="curve" smooth="yes"/>
      <point x="395" y="49" type="line" smooth="yes"/>
      <point x="395" y="25"/>
      <point x="375" y="5"/>
      <point x="351" y="5" type="curve" smooth="yes"/>
      <point x="349" y="5" type="line" smooth="yes"/>
      <point x="325" y="5"/>
      <point x="305" y="25"/>
      <point x="305" y="49" type="curve" smooth="yes"/>
      <point x="305" y="51" type="line" smooth="yes"/>
      <point x="305" y="75"/>
      <point x="325" y="95"/>
      <point x="349" y="95" type="curve"/>
    </contour>
    <contour>
      <point x="449" y="95" type="line"/>
      <point x="451" y="95" type="line" smooth="yes"/>
      <point x="475" y="95"/>
      <point x="495" y="75"/>
      <point x="495" y="51" type="curve" smooth="yes"/>
      <point x="495" y="49" type="line" smooth="yes"/>
      <point x="495" y="25"/>
      <point x="475" y="5"/>
      <point x="451" y="5" type="curve" smooth="yes"/>
      <point x="449" y="5" type="line" smooth="yes"/>
      <point x="425" y="5"/>
      <point x="405" y="25"/>
      <point x="405" y="49" type="curve" smooth="yes"/>
      <point x="405" y="51" type="line" smooth="yes"/>
      <point x="405" y="75"/>
      <point x="425" y="95"/>
      <point x="449" y="95" type="curve"/>
    </contour>
    <contour>
      <point x="249" y="-5" type="line"/>
      <point x="251" y="-5" type="line" smooth="yes"/>
      <point x="275" y="-5"/>
      <point x="295" y="-25"/>
      <point x="295" y="-49" type="curve" smooth="yes"/>
      <point x="295" y="-51" type="line" smooth="yes"/>
      <point x="295" y="-75"/>
      <point x="275" y="-95"/>
      <point x="251" y="-95" type="curve" smooth="yes"/>
      <point x="249" y="-95" type="line" smooth="yes"/>
      <point x="225" y="-95"/>
      <point x="205" y="-75"/>
      <point x="205" y="-51" type="curve" smooth="yes"/>
      <point x="205" y="-49" type="line" smooth="yes"/>
      <point x="205" y="-25"/>
      <point x="225" y="-5"/>
      <point x="249" y="-5" type="curve"/>
    </contour>
  </outline>
</glyph>
<glyph name="section" format="2">
  <advance width="600"/>
  <unicode hex="00A7"/>
  <outline>
    <contour>
      <point x="149" y="695" type="line"/>
      <point x="151" y="695" type="line" smooth="yes"/>
      <point x="175" y="695"/>
      <point x="195" y="675"/>
      <point x="195" y="651" type="curve" smooth="yes"/>
      <point x="195" y="649" type="line" smooth="yes"/>
      <point x="195" y="625"/>
      <point x="175" y="605"/>
      <point x="151" y="605" type="curve" smooth="yes"/>
      <point x="149" y="605" type="line" smooth="yes"/>
      <point x="125" y="605"/>
      <point x="105" y="625"/>
      <point x="105" y="649" type="curve" smooth="yes"/>
      <point x="105" y="651" type="line" smooth="yes"/>
      <point x="105" y="675"/>
      <point x="125" y="695"/>
      <point x="149" y="695" type="curve"/>
    </contour>
    <contour>
      <point x="249" y="695" type="line"/>
      <point x="251" y="695" type="line" smooth="yes"/>
      <point x="275" y="695"/>
      <point x="295" y="675"/>
      <point x="295" y="651" type="curve" smooth="yes"/>
      <point x="295" y="649" type="line" smooth="yes"/>
      <point x="295" y="625"/>
      <point x="275" y="605"/>
      <point x="251" y="605" type="curve" smooth="yes"/>
      <point x="249" y="605" type="line" smooth="yes"/>
      <point x="225" y="605"/>
      <point x="205" y="625"/>
      <point x="205" y="649" type="curve" smooth="yes"/>
      <point x="205" y="651" type="line" smooth="yes"/>
      <point x="205" y="675"/>
      <point x="225" y="695"/>
      <point x="249" y="695" type="curve"/>
    </contour>
    <contour>
      <point x="349" y="695" type="line"/>
      <point x="351" y="695" type="line" smooth="yes"/>
      <point x="375" y="695"/>
      <point x="395" y="675"/>
      <point x="395" y="651" type="curve" smooth="yes"/>
      <point x="395" y="649" type="line" smooth="yes"/>
      <point x="395" y="625"/>
      <point x="375" y="605"/>
      <point x="351" y="605" type="curve" smooth="yes"/>
      <point x="349" y="605" type="line" smooth="yes"/>
      <point x="325" y="605"/>
      <point x="305" y="625"/>
      <point x="305" y="649" type="curve" smooth="yes"/>
      <point x="305" y="651" type="line" smooth="yes"/>
      <point x="305" y="675"/>
      <point x="325" y="695"/>
      <point x="349" y="695" type="curve"/>
    </contour>
    <contour>
      <point x="49" y="595" type="line"/>
      <point x="51" y="595" type="line" smooth="yes"/>
      <point x="75" y="595"/>
      <point x="95" y="575"/>
      <point x="95" y="551" type="curve" smooth="yes"/>
      <point x="95" y="549" type="line" smooth="yes"/>
      <point x="95" y="525"/>
      <point x="75" y="505"/>
      <point x="51" y="505" type="curve" smooth="yes"/>
      <point x="49" y="505" type="line" smooth="yes"/>
      <point x="25" y="505"/>
      <point x="5" y="525"/>
      <point x="5" y="549" type="curve" smooth="yes"/>
      <point x="5" y="551" type="line" smooth="yes"/>
      <point x="5" y="575"/>
      <point x="25" y="595"/>
      <point x="49" y="595" type="curve"/>
    </contour>
    <contour>
      <point x="49" y="495" type="line"/>
      <point x="51" y="495" type="line" smooth="yes"/>
      <point x="75" y="495"/>
      <point x="95" y="475"/>
      <point x="95" y="451" type="curve" smooth="yes"/>
      <point x="95" y="449" type="line" smooth="yes"/>
      <point x="95" y="425"/>
      <point x="75" y="405"/>
      <point x="51" y="405" type="curve" smooth="yes"/>
      <point x="49" y="405" type="line" smooth="yes"/>
      <point x="25" y="405"/>
      <point x="5" y="425"/>
      <point x="5" y="449" type="curve" smooth="yes"/>
      <point x="5" y="451" type="line" smooth="yes"/>
      <point x="5" y="475"/>
      <point x="25" y="495"/>
      <point x="49" y="495" type="curve"/>
    </contour>
    <contour>
      <point x="149" y="495" type="line"/>
      <point x="151" y="495" type="line" smooth="yes"/>
      <point x="175" y="495"/>
      <point x="195" y="475"/>
      <point x="195" y="451" type="curve" smooth="yes"/>
      <point x="195" y="449" type="line" smooth="yes"/>
      <point x="195" y="425"/>
      <point x="175" y="405"/>
      <point x="151" y="405" type="curve" smooth="yes"/>
      <point x="149" y="405" type="line" smooth="yes"/>
      <point x="125" y="405"/>
      <point x="105" y="425"/>
      <point x="105" y="449" type="curve" smooth="yes"/>
      <point x="105" y="451" type="line" smooth="yes"/>
      <point x="105" y="475"/>
      <point x="125" y="495"/>
      <point x="149" y="495" type="curve"/>
    </contour>
    <contour>
      <point x="249" y="495" type="line"/>
      <point x="251" y="495" type="line" smooth="yes"/>
      <point x="275" y="495"/>
      <point x="295" y="475"/>
      <point x="295" y="451" type="curve" smooth="yes"/>
      <point x="295" y="449" type="line" smooth="yes"/>
      <point x="295" y="425"/>
      <point x="275" y="405"/>
      <point x="251" y="405" type="curve" smooth="yes"/>
      <point x="249" y="405" type="line" smooth="yes"/>
      <point x="225" y="405"/>
      <point x="205" y="425"/>
      <point x="205" y="449" type="curve" smooth="yes"/>
      <point x="205" y="451" type="line" smooth="yes"/>
      <point x="205" y="475"/>
      <point x="225" y="495"/>
      <point x="249" y="495" type="curve"/>
    </contour>
    <contour>
      <point x="49" y="395" type="line"/>
      <point x="51" y="395" type="line" smooth="yes"/>
      <point x="75" y="395"/>
      <point x="95" y="375"/>
      <point x="95" y="351" type="curve" smooth="yes"/>
      <point x="95" y="349" type="line" smooth="yes"/>
      <point x="95" y="325"/>
      <point x="75" y="305"/>
      <point x="51" y="305" type="curve" smooth="yes"/>
      <point x="49" y="305" type="line" smooth="yes"/>
      <point x="25" y="305"/>
      <point x="5" y="325"/>
      <point x="5" y="349" type="curve" smooth="yes"/>
      <point x="5" y="351" type="line" smooth="yes"/>
      <point x="5" y="375"/>
      <point x="25" y="395"/>
      <point x="49" y="395" type="curve"/>
    </contour>
    <contour>
      <point x="349" y="395" type="line"/>
      <point x="351" y="395" type="line" smooth="yes"/>
      <point x="375" y="395"/>
      <point x="395" y="375"/>
      <point x="395" y="351" type="curve" smooth="yes"/>
      <point x="395" y="349" type="line" smooth="yes"/>
      <point x="395" y="325"/>
      <point x="375" y="305"/>
      <point x="351" y="305" type="curve" smooth="yes"/>
      <point x="349" y="305" type="line" smooth="yes"/>
      <point x="325" y="305"/>
      <point x="305" y="325"/>
      <point x="305" y="349" type="curve" smooth="yes"/>
      <point x="305" y="351" type="line" smooth="yes"/>
      <point x="305" y="375"/>
      <point x="325" y="395"/>
      <point x="349" y="395" type="curve"/>
    </contour>
    <contour>
      <point x="149" y="295" type="line"/>
      <point x="151" y="295" type="line" smooth="yes"/>
      <point x="175" y="295"/>
      <point x="195" y="275"/>
      <point x="195" y="251" type="curve" smooth="yes"/>
      <point x="195" y="249" type="line" smooth="yes"/>
      <point x="195" y="225"/>
      <point x="175" y="205"/>
      <point x="151" y="205" type="curve" smooth="yes"/>
      <point x="149" y="205" type="line" smooth="yes"/>
      <point x="125" y="205"/>
      <point x="105" y="225"/>
      <point x="105" y="249" type="curve" smooth="yes"/>
      <point x="105" y="251" type="line" smooth="yes"/>
      <point x="105" y="275"/>
      <point x="125" y="295"/>
      <point x="149" y="295" type="curve"/>
    </contour>
    <contour>
      <point x="449" y="295" type="line"/>
      <point x="451" y="295" type="line" smooth="yes"/>
      <point x="475" y="295"/>
      <point x="495" y="275"/>
      <point x="495" y="251" type="curve" smooth="yes"/>
      <point x="495" y="249" type="line" smooth="yes"/>
      <point x="495" y="225"/>
      <point x="475" y="205"/>
      <point x="451" y="205" type="curve" smooth="yes"/>
      <point x="449" y="205" type="line" smooth="yes"/>
      <point x="425" y="205"/>
      <point x="405" y="225"/>
      <point x="405" y="249" type="curve" smooth="yes"/>
      <point x="405" y="251" type="line" smooth="yes"/>
      <point x="405" y="275"/>
      <point x="425" y="295"/>
      <point x="449" y="295" type="curve"/>
    </contour>
    <contour>
      <point x="249" y="195" type="line"/>
      <point x="251" y="195" type="line" smooth="yes"/>
      <point x="275" y="195"/>
      <point x="295" y="175"/>
      <point x="295" y="151" type="curve" smooth="yes"/>
      <point x="295" y="149" type="line" smooth="yes"/>
      <point x="295" y="125"/>
      <point x="275" y="105"/>
      <point x="251" y="105" type="curve" smooth="yes"/>
      <point x="249" y="105" type="line" smooth="yes"/>
      <point x="225" y="105"/>
      <point x="205" y="125"/>
      <point x="205" y="149" type="curve" smooth="yes"/>
      <point x="205" y="151" type="line" smooth="yes"/>
      <point x="205" y="175"/>
      <point x="225" y="195"/>
      <point x="249" y="195" type="curve"/>
    </contour>
    <contour>
      <point x="349" y="195" type="line"/>
      <point x="351" y="195" type="line" smooth="yes"/>
      <point x="375" y="195"/>
      <point x="395" y="175"/>
      <point x="395" y="151" type="curve" smooth="yes"/>
      <point x="395" y="149" type="line" smooth="yes"/>
      <point x="395" y="125"/>
      <point x="375" y="105"/>
      <point x="351" y="105" type="curve" smooth="yes"/>
      <point x="349" y="105" type="line" smooth="yes"/>
      <point x="325" y="105"/>
      <point x="305" y="125"/>
      <point x="305" y="149" type="curve" smooth="yes"/>
      <point x="305" y="151" type="line" smooth="yes"/>
      <point x="305" y="175"/>
      <point x="325" y="195"/>
      <point x="349" y="195" type="curve"/>
    </contour>
    <contour>
      <point x="449" y="195" type="line"/>
      <point x="451" y="195" type="line" smooth="yes"/>
      <point x="475" y="195"/>
      <point x="495" y="175"/>
      <point x="495" y="151" type="curve" smooth="yes"/>
      <point x="495" y="149" type="line" smooth="yes"/>
      <point x="495" y="125"/>
      <point x="475" y="105"/>
      <point x="451" y="105" type="curve" smooth="yes"/>
      <point x="449" y="105" type="line" smooth="yes"/>
      <point x="425" y="105"/>
      <point x="405" y="125"/>
      <point x="405" y="149" type="curve" smooth="yes"/>
      <point x="405" y="151" type="line" smooth="yes"/>
      <point x="405" y="175"/>
      <point x="425" y="195"/>
      <point x="449" y="195" type="curve"/>
    </contour>
    <contour>
      <point x="449" y="95" type="line"/>
      <point x="451" y="95" type="line" smooth="yes"/>
      <point x="475" y="95"/>
      <point x="495" y="75"/>
      <point x="495" y="51" type="curve" smooth="yes"/>
      <point x="495" y="49" type="line" smooth="yes"/>
      <point x="495" y="25"/>
      <point x="475" y="5"/>
      <point x="451" y="5" type="curve" smooth="yes"/>
      <point x="449" y="5" type="line" smooth="yes"/>
      <point x="425" y="5"/>
      <point x="405" y="25"/>
      <point x="405" y="49" type="curve" smooth="yes"/>
      <point x="405" y="51" type="line" smooth="yes"/>
      <point x="405" y="75"/>
      <point x="425" y="95"/>
      <point x="449" y="95" type="curve"/>
    </contour>
    <contour>
      <point x="149" y="-5" type="line"/>
      <point x="151" y="-5" type="line" smooth="yes"/>
      <point x="175" y="-5"/>
      <point x="195" y="-25"/>
      <point x="195" y="-49" type="curve" smooth="yes"/>
      <point x="195" y="-51" type="line" smooth="yes"/>
      <point x="195" y="-75"/>
      <point x="175" y="-95"/>
      <point x="151" y="-95" type="curve" smooth="yes"/>
      <point x="149" y="-95" type="line" smooth="yes"/>
      <point x="125" y="-95"/>
      <point x="105" y="-75"/>
      <point x="105" y="-51" type="curve" smooth="yes"/>
      <point x="105" y="-49" type="line" smooth="yes"/>
      <point x="105" y="-25"/>
      <point x="125" y="-5"/>
      <point x="149" y="-5" type="curve"/>
    </contour>
    <contour>
      <point x="249" y="-5" type="line"/>
      <point x="251" y="-5" type="line" smooth="yes"/>
      <point x="275" y="-5"/>
      <point x="295" y="-25"/>
      <point x="295" y="-49" type="curve" smooth="yes"/>
      <point x="295" y="-51" type="line" smooth="yes"/>
      <point x="295" y="-75"/>
      <point x="275" y="-95"/>
      <point x="251" y="-95" type="curve" smooth="yes"/>
      <point x="249" y="-95" type="line" smooth="yes"/>
      <point x="225" y="-95"/>
      <point x="205" y="-75"/>
      <point x="205" y="-51" type="curve" smooth="yes"/>
      <point x="205" y="-49" type="line" smooth="yes"/>
      <point x="205" y="-25"/>
      <point x="225" y="-5"/>
      <point x="249" y="-5" type="curve"/>
    </contour>
    <contour>
      <point x="349" y="-5" type="line"/>
      <point x="351" y="-5" type="line" smooth="yes"/>
      <point x="375" y="-5"/>
      <point x="395" y="-25"/>
      <point x="395" y="-49" type="curve" smooth="yes"/>
      <point x="395" y="-51" type="line" smooth="yes"/>
      <point x="395" y="-75"/>
      <point x="375" y="-95"/>
      <point x="351" y="-95" type="curve" smooth="yes"/>
      <point x="349" y="-95" type="line" smooth="yes"/>
      <point x="325" y="-95"/>
      <point x="305" y="-75"/>
      <point x="305" y="-51" type="curve" smooth="yes"/>
      <point x="305" y="-49" type="line" smooth="yes"/>
      <point x="305" y="-25"/>
      <point x="325" y="-5"/>
      <point x="349" y="-5" type="curve"/>
    </contour>
  </outline>
</glyph>
<glyph name="dieresis" format="2">
  <advance width="600"/>
  <unicode hex="00A8"/>
  <outline>
    <contour>
      <point x="149" y="795" type="line"/>
      <point x="151" y="795" type="line" smooth="yes"/>
      <point x="175" y="795"/>
      <point x="195" y="775"/>
      <point x="195" y="751" type="curve" smooth="yes"/>
      <point x="195" y="749" type="line" smooth="yes"/>
      <point x="195" y="725"/>
      <point x="175" y="705"/>
      <point x="151" y="705" type="curve" smooth="yes"/>
      <point x="149" y="705" type="line" smooth="yes"/>
      <point x="125" y="705"/>
      <point x="105" y="725"/>
      <point x="105" y="749" type="curve" smooth="yes"/>
      <point x="105" y="751" type="line" smooth="yes"/>
      <point x="105" y="775"/>
      <point x="125" y="795"/>
      <point x="149" y="795" type="curve"/>
    </contour>
    <contour>
      <point x="349" y="795" type="line"/>
      <point x="351" y="795" type="line" smooth="yes"/>
      <point x="375" y="795"/>
      <point x="395" y="775"/>
      <point x="395" y="751" type="curve" smooth="yes"/>
      <point x="395" y="749" type="line" smooth="yes"/>
      <point x="395" y="725"/>
      <point x="375" y="705"/>
      <point x="351" y="705" type="curve" smooth="yes"/>
      <point x="349" y="705" type="line" smooth="yes"/>
      <point x="325" y="705"/>
      <point x="305" y="725"/>
      <point x="305" y="749" type="curve" smooth="yes"/>
      <point x="305" y="751" type="line" smooth="yes"/>
      <point x="305" y="775"/>
      <point x="325" y="795"/>
      <point x="349" y="795" type="curve"/>
    </contour>
  </outline>
</glyph>
<glyph name="macron" format="2">
  <advance width="600"/>
  <unicode hex="00AF"/>
  <outline>
    <contour>
      <point x="49" y="795" type="line"/>
      <point x="51" y="795" type="line" smooth="yes"/>
      <point x="75" y="795"/>
      <point x="95" y="775"/>
      <point x="95" y="751" type="curve" smooth="yes"/>
      <point x="95" y="749" type="line" smooth="yes"/>
      <point x="95" y="725"/>
      <point x="75" y="705"/>
      <point x="51" y="705" type="curve" smooth="yes"/>
      <point x="49" y="705" type="line" smooth="yes"/>
      <point x="25" y="705"/>
      <point x="5" y="725"/>
      <point x="5" y="749" type="curve" smooth="yes"/>
      <point x="5" y="751" type="line" smooth="yes"/>
      <point x="5" y="775"/>
      <point x="25" y="795"/>
      <point x="49" y="795" type="curve"/>
    </contour>
    <contour>
      <point x="149" y="795" type="line"/>
      <point x="151" y="795" type="line" smooth="yes"/>
      <point x="175" y="795"/>
      <point x="195" y="775"/>
      <point x="195" y="751" type="curve" smooth="yes"/>
      <point x="195" y="749" type="line" smooth="yes"/>
      <point x="195" y="725"/>
      <point x="175" y="705"/>
      <point x="151" y="705" type="curve" smooth="yes"/>
      <point x="149" y="705" type="line" smooth="yes"/>
      <point x="125" y="705"/>
      <point x="105" y="725"/>
      <point x="105" y="749" type="curve" smooth="yes"/>
      <point x="105" y="751" type="line" smooth="yes"/>
      <point x="105" y="775"/>
      <point x="125" y="795"/>
      <point x="149" y="795" type="curve"/>
    </contour>
    <contour>
      <point x="249" y="795" type="line"/>
      <point x="251" y="795" type="line" smooth="yes"/>
      <point x="275" y="795"/>
      <point x="295" y="775"/>
      <point x="295" y="751" type="curve" smooth="yes"/>
      <point x="295" y="749" type="line" smooth="yes"/>
      <point x="295" y="725"/>
      <point x="275" y="705"/>
      <point x="251" y="705" type="curve" smooth="yes"/>
      <point x="249" y="705" type="line" smooth="yes"/>
      <point x="225" y="705"/>
      <point x="205" y="725"/>
      <point x="205" y="749" type="curve" smooth="yes"/>
      <point x="205" y="751" type="line" smooth="yes"/>
      <point x="205" y="775"/>
      <point x="225" y="795"/>
      <point x="249" y="795" type="curve"/>
    </contour>
    <contour>
      <point x="349" y="795" type="line"/>
      <point x="351" y="795" type="line" smooth="yes"/>
      <point x="375" y="795"/>
      <point x="395" y="775"/>
      <point x="395" y="751" type="curve" smooth="yes"/>
      <point x="395" y="749" type="line" smooth="yes"/>
      <point x="395" y="725"/>
      <point x="375" y="705"/>
      <point x="351" y="705" type="curve" smooth="yes"/>
      <point x="349" y="705" type="line" smooth="yes"/>
      <point x="325" y="705"/>
      <point x="305" y="725"/>
      <point x="305" y="749" type="curve" smooth="yes"/>
      <point x="305" y="751" type="line" smooth="yes"/>
      <point x="305" y="775"/>
      <point x="325" y="795"/>
      <point x="349" y="795" type="curve"/>
    </contour>
    <contour>
      <point x="449" y="795" type="line"/>
      <point x="451" y="795" type="line" smooth="yes"/>
      <point x="475" y="795"/>
      <point x="495" y="775"/>
      <point x="495" y="751" type="curve" smooth="yes"/>
      <point x="495" y="749" type="line" smooth="yes"/>
      <point x="495" y="725"/>
      <point x="475" y="705"/>
      <point x="451" y="705" type="curve" smooth="yes"/>
      <point x="449" y="705" type="line" smooth="yes"/>
      <point x="425" y="705"/>
      <point x="405" y="725"/>
      <point x="405" y="749" type="curve" smooth="yes"/>
      <point x="405" y="751" type="line" smooth="yes"/>
      <point x="405" y="775"/>
      <point x="425" y="795"/>
      <point x="449" y="795" type="curve"/>
    </contour>
  </outline>
</glyph>
<glyph name="degree" format="2">
  <advance width="600"/>
  <unicode hex="00B0"/>
  <outline>
    <contour>
      <point x="249" y="695" type="line"/>
      <point x="251" y="695" type="line" smooth="yes"/>
      <point x="275" y="695"/>
      <point x="295" y="675"/>
      <point x="295" y="651" type="curve" smooth="yes"/>
      <point x="295" y="649" type="line" smooth="yes"/>
      <point x="295" y="625"/>
      <point x="275" y="605"/>
      <point x="251" y="605" type="curve" smooth="yes"/>
      <point x="249" y="605" type="line" smooth="yes"/>
      <point x="225" y="605"/>
      <point x="205" y="625"/>
      <point x="205" y="649" type="curve" smooth="yes"/>
      <point x="205" y="651" type="line" smooth="yes"/>
      <point x="205" y="675"/>
      <point x="225" y="695"/>
      <point x="249" y="695" type="curve"/>
    </contour>
    <contour>
      <point x="149" y="595" type="line"/>
      <point x="151" y="595" type="line" smooth="yes"/>
      <point x="175" y="595"/>
      <point x="195" y="575"/>
      <point x="195" y="551" type="curve" smooth="yes"/>
      <point x="195" y="549" type="line" smooth="yes"/>
      <point x="195" y="525"/>
      <point x="175" y="505"/>
      <point x="151" y="505" type="curve" smooth="yes"/>
      <point x="149" y="505" type="line" smooth="yes"/>
      <point x="125" y="505"/>
      <point x="105" y="525"/>
      <point x="105" y="549" type="curve" smooth="yes"/>
      <point x="105" y="551" type="line" smooth="yes"/>
      <point x="105" y="575"/>
      <point x="125" y="595"/>
      <point x="149" y="595" type="curve"/>
    </contour>
    <contour>
      <point x="349" y="595" type="line"/>
      <point x="351" y="595" type="line" smooth="yes"/>
      <point x="375" y="595"/>
      <point x="395" y="575"/>
      <point x="395" y="551" type="curve" smooth="yes"/>
      <point x="395" y="549" type="line" smooth="yes"/>
      <point x="395" y="525"/>
      <point x="375" y="505"/>
      <point x="351" y="505" type="curve" smooth="yes"/>
      <point x="349" y="505" type="line" smooth="yes"/>
      <point x="325" y="505"/>
      <point x="305" y="525"/>
      <point x="305" y="549" type="curve" smooth="yes"/>
      <point x="305" y="551" type="line" smooth="yes"/>
      <point x="305" y="575"/>
      <point x="325" y="595"/>
      <point x="349" y="595" type="curve"/>
    </contour>
    <contour>
      <point x="249" y="495" type="line"/>
      <point x="251" y="495" type="line" smooth="yes"/>
      <point x="275" y="495"/>
      <point x="295" y="475"/>
      <point x="295" y="451" type="curve" smooth="yes"/>
      <point x="295" y="449" type="line" smooth="yes"/>
      <point x="295" y="425"/>
      <point x="275" y="405"/>
      <point x="251" y="405" type="curve" smooth="yes"/>
      <point x="249" y="405" type="line" smooth="yes"/>
      <point x="225" y="405"/>
      <point x="205" y="425"/>
      <point x="205" y="449" type="curve" smooth="yes"/>
      <point x="205" y="451" type="line" smooth="yes"/>
      <point x="205" y="475"/>
      <point x="225" y="495"/>
      <point x="249" y="495" type="curve"/>
    </contour>
  </outline>
</glyph>
<glyph name="paragraph" format="2">
  <advance width="600"/>
  <unicode hex="00B6"/>
  <outline>
    <contour>
      <point x="149" y="695" type="line"/>
      <point x="151" y="695" type="line" smooth="yes"/>
      <point x="175" y="695"/>
      <point x="195" y="675"/>
      <point x="195" y="651" type="curve" smooth="yes"/>
      <point x="195" y="649" type="line" smooth="yes"/>
      <point x="195" y="625"/>
      <point x="175" y="605"/>
      <point x="151" y="605" type="curve" smooth="yes"/>
      <point x="149" y="605" type="line" smooth="yes"/>
      <point x="125" y="605"/>
      <point x="105" y="625"/>
      <point x="105" y="649" type="curve" smooth="yes"/>
      <point x="105" y="651" type="line" smooth="yes"/>
      <point x="105" y="675"/>
      <point x="125" y="695"/>
      <point x="149" y="695" type="curve"/>
    </contour>
    <contour>
      <point x="249" y="695" type="line"/>
      <point x="251" y="695" type="line" smooth="yes"/>
      <point x="275" y="695"/>
      <point x="295" y="675"/>
      <point x="295" y="651" type="curve" smooth="yes"/>
      <point x="295" y="649" type="line" smooth="yes"/>
      <point x="295" y="625"/>
      <point x="275" y="605"/>
      <point x="251" y="605" type="curve" smooth="yes"/>
      <point x="249" y="605" type="line" smooth="yes"/>
      <point x="225" y="605"/>
      <point x="205" y="625"/>
      <point x="205" y="649" type="curve" smooth="yes"/>
      <point x="205" y="651" type="line" smooth="yes"/>
      <point x="205" y="675"/>
      <point x="225" y="695"/>
      <point x="249" y="695" type="curve"/>
    </contour>
    <contour>
      <point x="349" y="695" type="line"/>
      <point x="351" y="695" type="line" smooth="yes"/>
      <point x="375" y="695"/>
      <point x="395" y="675"/>
      <point x="395" y="651" type="curve" smooth="yes"/>
      <point x="395" y="649" type="line" smooth="yes"/>
      <point x="395" y="625"/>
      <point x="375" y="605"/>
      <point x="351" y="605" type="curve" smooth="yes"/>
      <point x="349" y="605" type="line" smooth="yes"/>
      <point x="325" y="605"/>
      <point x="305" y="625"/>
      <point x="305" y="649" type="curve" smooth="yes"/>
      <point x="305" y="651" type="line" smooth="yes"/>
      <point x="305" y="675"/>
      <point x="325" y="695"/>
      <point x="349" y="695" type="curve"/>
    </contour>
    <contour>
      <point x="449" y="695" type="line"/>
      <point x="451" y="695" type="line" smooth="yes"/>
      <point x="475" y="695"/>
      <point x="495" y="675"/>
      <point x="495" y="651" type="curve" smooth="yes"/>
      <point x="495" y="649" type="line" smooth="yes"/>
      <point x="495" y="625"/>
      <point x="475" y="605"/>
      <point x="451" y="605" type="curve" smooth="yes"/>
      <point x="449" y="605" type="line" smooth="yes"/>
      <point x="425" y="605"/>
      <point x="405" y="625"/>
      <point x="405" y="649" type="curve" smooth="yes"/>
      <point x="405" y="651" type="line" smooth="yes"/>
      <point x="405" y="675"/>
      <point x="425" y="695"/>
      <point x="449" y="695" type="curve"/>
    </contour>
    <contour>
      <point x="49" y="595" type="line"/>
      <point x="51" y="595" type="line" smooth="yes"/>
      <point x="75" y="595"/>
      <point x="95" y="575"/>
      <point x="95" y="551" type="curve" smooth="yes"/>
      <point x="95" y="549" type="line" smooth="yes"/>
      <point x="95" y="525"/>
      <point x="75" y="505"/>
      <point x="51" y="505" type="curve" smooth="yes"/>
      <point x="49" y="505" type="line" smooth="yes"/>
      <point x="25" y="505"/>
      <point x="5" y="525"/>
      <point x="5" y="549" type="curve" smooth="yes"/>
      <point x="5" y="551" type="line" smooth="yes"/>
      <point x="5" y="575"/>
      <point x="25" y="595"/>
      <point x="49" y="595" type="curve"/>
    </contour>
    <contour>
      <point x="149" y="595" type="line"/>
      <point x="151" y="595" type="line" smooth="yes"/>
      <point x="175" y="595"/>
      <point x="195" y="575"/>
      <point x="195" y="551" type="curve" smooth="yes"/>
      <point x="195" y="549" type="line" smooth="yes"/>
      <point x="195" y="525"/>
      <point x="175" y="505"/>
      <point x="151" y="505" type="curve" smooth="yes"/>
      <point x="149" y="505" type="line" smooth="yes"/>
      <point x="125" y="505"/>
      <point x="105" y="525"/>
      <point x="105" y="549" type="curve" smooth="yes"/>
      <point x="105" y="551" type="line" smooth="yes"/>
      <point x="105" y="575"/>
      <point x="125" y="595"/>
      <point x="149" y="595" type="curve"/>
    </contour>
    <contour>
      <point x="249" y="595" type="line"/>
      <point x="251" y="595" type="line" smooth="yes"/>
      <point x="275" y="595"/>
      <point x="295" y="575"/>
      <point x="295" y="551" type="curve" smooth="yes"/>
      <point x="295" y="549" type="line" smooth="yes"/>
      <point x="295" y="525"/>
      <point x="275" y="505"/>
      <point x="251" y="505" type="curve" smooth="yes"/>
      <point x="249" y="505" type="line" smooth="yes"/>
      <point x="225" y="505"/>
      <point x="205" y="525"/>
      <point x="205" y="549" type="curve" smooth="yes"/>
      <point x="205" y="551" type="line" smooth="yes"/>
      <point x="205" y="575"/>
      <point x="225" y="595"/>
      <point x="249" y="595" type="curve"/>
    </contour>
    <contour>
      <point x="449" y="595" type="line"/>
      <point x="451" y="595" type="line" smooth="yes"/>
      <point x="475" y="595"/>
      <point x="495" y="575"/>
      <point x="495" y="551" type="curve" smooth="yes"/>
      <point x="495" y="549" type="line" smooth="yes"/>
      <point x="495" y="525"/>
      <point x="475" y="505"/>
      <point x="451" y="505" type="curve" smooth="yes"/>
      <point x="449" y="505" type="line" smooth="yes"/>
      <point x="425" y="505"/>
      <point x="405" y="525"/>
      <point x="405" y="549" type="curve" smooth="yes"/>
      <point x="405" y="551" type="line" smooth="yes"/>
      <point x="405" y="575"/>
      <point x="425" y="595"/>
      <point x="449" y="595" type="curve"/>
    </contour>
    <contour>
      <point x="49" y="495" type="line"/>
      <point x="51" y="495" type="line" smooth="yes"/>
      <point x="75" y="495"/>
      <point x="95" y="475"/>
      <point x="95" y="451" type="curve" smooth="yes"/>
      <point x="95" y="449" type="line" smooth="yes"/>
      <point x="95" y="425"/>
      <point x="75" y="405"/>
      <point x="51" y="405" type="curve" smooth="yes"/>
      <point x="49" y="405" type="line" smooth="yes"/>
      <point x="25" y="405"/>
      <point x="5" y="425"/>
      <point x="5" y="449" type="curve" smooth="yes"/>
      <point x="5" y="451" type="line" smooth="yes"/>
      <point x="5" y="475"/>
      <point x="25" y="495"/>
      <point x="49" y="495" type="curve"/>
    </contour>
    <contour>
      <point x="149" y="495" type="line"/>
      <point x="151" y="495" type="line" smooth="yes"/>
      <point x="175" y="495"/>
      <point x="195" y="475"/>
      <point x="195" y="451" type="curve" smooth="yes"/>
      <point x="195" y="449" type="line" smooth="yes"/>
      <point x="195" y="425"/>
      <point x="175" y="405"/>
      <point x="151" y="405" type="curve" smooth="yes"/>
      <point x="149" y="405" type="line" smooth="yes"/>
      <point x="125" y="405"/>
      <point x="105" y="425"/>
      <point x="105" y="449" type="curve" smooth="yes"/>
      <point x="105" y="451" type="line" smooth="yes"/>
      <point x="105" y="475"/>
      <point x="125" y="495"/>
      <point x="149" y="495" type="curve"/>
    </contour>
    <contour>
      <point x="249" y="495" type="line"/>
      <point x="251" y="495" type="line" smooth="yes"/>
      <point x="275" y="495"/>
      <point x="295" y="475"/>
      <point x="295" y="451" type="curve" smooth="yes"/>
      <point x="295" y="449" type="line" smooth="yes"/>
      <point x="295" y="425"/>
      <point x="275" y="405"/>
      <point x="251" y="405" type="curve" smooth="yes"/>
      <point x="249" y="405" type="line" smooth="yes"/>
      <point x="225" y="405"/>
      <point x="205" y="425"/>
      <point x="205" y="449" type="curve" smooth="yes"/>
      <point x="205" y="451" type="line" smooth="yes"/>
      <point x="205" y="475"/>
      <point x="225" y="495"/>
      <point x="249" y="495" type="curve"/>
    </contour>
    <contour>
      <point x="449" y="495" type="line"/>
      <point x="451" y="495" type="line" smooth="yes"/>
      <point x="475" y="495"/>
      <point x="495" y="475"/>
      <point x="495" y="451" type="curve" smooth="yes"/>
      <point x="495" y="449" type="line" smooth="yes"/>
      <point x="495" y="425"/>
      <point x="475" y="405"/>
      <point x="451" y="405" type="curve" smooth="yes"/>
      <point x="449" y="405" type="line" smooth="yes"/>
      <point x="425" y="405"/>
      <point x="405" y="425"/>
      <point x="405" y="449" type="curve" smooth="yes"/>
      <point x="405" y="451" type="line" smooth="yes"/>
      <point x="405" y="475"/>
      <point x="425" y="495"/>
      <point x="449" y="495" type="curve"/>
    </contour>
    <contour>
      <point x="149" y="395" type="line"/>
      <point x="151" y="395" type="line" smooth="yes"/>
      <point x="175" y="395"/>
      <point x="195" y="375"/>
      <point x="195" y="351" type="curve" smooth="yes"/>
      <point x="195" y="349" type="line" smooth="yes"/>
      <point x="195" y="325"/>
      <point x="175" y="305"/>
      <point x="151" y="305" type="curve" smooth="yes"/>
      <point x="149" y="305" type="line" smooth="yes"/>
      <point x="125" y="305"/>
      <point x="105" y="325"/>
      <point x="105" y="349" type="curve" smooth="yes"/>
      <point x="105" y="351" type="line" smooth="yes"/>
      <point x="105" y="375"/>
      <point x="125" y="395"/>
      <point x="149" y="395" type="curve"/>
    </contour>
    <contour>
      <point x="249" y="395" type="line"/>
      <point x="251" y="395" type="line" smooth="yes"/>
      <point x="275" y="395"/>
      <point x="295" y="375"/>
      <point x="295" y="351" type="curve" smooth="yes"/>
      <point x="295" y="349" type="line" smooth="yes"/>
      <point x="295" y="325"/>
      <point x="275" y="305"/>
      <point x="251" y="305" type="curve" smooth="yes"/>
      <point x="249" y="305" type="line" smooth="yes"/>
      <point x="225" y="305"/>
      <point x="205" y="325"/>
      <point x="205" y="349" type="curve" smooth="yes"/>
      <point x="205" y="351" type="line" smooth="yes"/>
      <point x="205" y="375"/>
      <point x="225" y="395"/>
      <point x="249" y="395" type="curve"/>
    </contour>
    <contour>
      <point x="449" y="395" type="line"/>
      <point x="451" y="395" type="line" smooth="yes"/>
      <point x="475" y="395"/>
      <point x="495" y="375"/>
      <point x="495" y="351" type="curve" smooth="yes"/>
      <point x="495" y="349" type="line" smooth="yes"/>
      <point x="495" y="325"/>
      <point x="475" y="305"/>
      <point x="451" y="305" type="curve" smooth="yes"/>
      <point x="449" y="305" type="line" smooth="yes"/>
      <point x="425" y="305"/>
      <point x="405" y="325"/>
      <point x="405" y="349" type="curve" smooth="yes"/>
      <point x="405" y="351" type="line" smooth="yes"/>
      <point x="405" y="375"/>
      <point x="425" y="395"/>
      <point x="449" y="395" type="curve"/>
    </contour>
    <contour>
      <point x="249" y="295" type="line"/>
      <point x="251" y="295" type="line" smooth="yes"/>
      <point x="275" y="295"/>
      <point x="295" y="275"/>
      <point x="295" y="251" type="curve" smooth="yes"/>
      <point x="295" y="249" type="line" smooth="yes"/>
      <point x="295" y="225"/>
      <point x="275" y="205"/>
      <point x="251" y="205" type="curve" smooth="yes"/>
      <point x="249" y="205" type="line" smooth="yes"/>
      <point x="225" y="205"/>
      <point x="205" y="225"/>
      <point x="205" y="249" type="curve" smooth="yes"/>
      <point x="205" y="251" type="line" smooth="yes"/>
      <point x="205" y="275"/>
      <point x="225" y="295"/>
      <point x="249" y="295" type="curve"/>
    </contour>
    <contour>
      <point x="449" y="295" type="line"/>
      <point x="451" y="295" type="line" smooth="yes"/>
      <point x="475" y="295"/>
      <point x="495" y="275"/>
      <point x="495" y="251" type="curve" smooth="yes"/>
      <point x="495" y="249" type="line" smooth="yes"/>
      <point x="495" y="225"/>
      <point x="475" y="205"/>
      <point x="451" y="205" type="curve" smooth="yes"/>
      <point x="449" y="205" type="line" smooth="yes"/>
      <point x="425" y="205"/>
      <point x="405" y="225"/>
      <point x="405" y="249" type="curve" smooth="yes"/>
      <point x="405" y="251" type="line" smooth="yes"/>
      <point x="405" y="275"/>
      <point x="425" y="295"/>
      <point x="449" y="295" type="curve"/>
    </contour>
    <contour>
      <point x="249" y="195" type="line"/>
      <point x="251" y="195" type="line" smooth="yes"/>
      <point x="275" y="195"/>
      <point x="295" y="175"/>
      <point x="295" y="151" type="curve" smooth="yes"/>
      <point x="295" y="149" type="line" smooth="yes"/>
      <point x="295" y="125"/>
      <point x="275" y="105"/>
      <point x="251" y="105" type="curve" smooth="yes"/>
      <point x="249" y="105" type="line" smooth="yes"/>
      <point x="225" y="105"/>
      <point x="205" y="125"/>
      <point x="205" y="149" type="curve" smooth="yes"/>
      <point x="205" y="151" type="line" smooth="yes"/>
      <point x="205" y="175"/>
      <point x="225" y="195"/>
      <point x="249" y="195" type="curve"/>
    </contour>
    <contour>
      <point x="449" y="195" type="line"/>
      <point x="451" y="195" type="line" smooth="yes"/>
      <point x="475" y="195"/>
      <point x="495" y="175"/>
      <point x="495" y="151" type="curve" smooth="yes"/>
      <point x="495" y="149" type="line" smooth="yes"/>
      <point x="495" y="125"/>
      <point x="475" y="105"/>
      <point x="451" y="105" type="curve" smooth="yes"/>
      <point x="449" y="105" type="line" smooth="yes"/>
      <point x="425" y="105"/>
      <point x="405" y="125"/>
      <point x="405" y="149" type="curve" smooth="yes"/>
      <point x="405" y="151" type="line" smooth="yes"/>
      <point x="405" y="175"/>
      <point x="425" y="195"/>
      <point x="449" y="195" type="curve"/>
    </contour>
    <contour>
      <point x="249" y="95" type="line"/>
      <point x="251" y="95" type="line" smooth="yes"/>
      <point x="275" y="95"/>
      <point x="295" y="75"/>
      <point x="295" y="51" type="curve" smooth="yes"/>
      <point x="295" y="49" type="line" smooth="yes"/>
      <point x="295" y="25"/>
      <point x="275" y="5"/>
      <point x="251" y="5" type="curve" smooth="yes"/>
      <point x="249" y="5" type="line" smooth="yes"/>
      <point x="225" y="5"/>
      <point x="205" y="25"/>
      <point x="205" y="49" type="curve" smooth="yes"/>
      <point x="205" y="51" type="line" smooth="yes"/>
      <point x="205" y="75"/>
      <point x="225" y="95"/>
      <point x="249" y="95" type="curve"/>
    </contour>
    <contour>
      <point x="449" y="95" type="line"/>
      <point x="451" y="95" type="line" smooth="yes"/>
      <point x="475" y="95"/>
      <point x="495" y="75"/>
      <point x="495" y="51" type="curve" smooth="yes"/>
      <point x="495" y="49" type="line" smooth="yes"/>
      <point x="495" y="25"/>
      <point x="475" y="5"/>
      <point x="451" y="5" type="curve" smooth="yes"/>
      <point x="449" y="5" type="line" smooth="yes"/>
      <point x="425" y="5"/>
      <point x="405" y="25"/>
      <point x="405" y="49" type="curve" smooth="yes"/>
      <point x="405" y="51" type="line" smooth="yes"/>
      <point x="405" y="75"/>
      <point x="425" y="95"/>
      <point x="449" y="95" type="curve"/>
    </contour>
  </outline>
</glyph>
<glyph name="periodcentered" format="2">
  <advance width="600"/>
  <unicode hex="00B7"/>
  <outline>
    <contour>
      <point x="249" y="395" type="line"/>
      <point x="251" y="395" type="line" smooth="yes"/>
      <point x="275" y="395"/>
      <point x="295" y="375"/>
      <point x="295" y="351" type="curve" smooth="yes"/>
      <point x="295" y="349" type="line" smooth="yes"/>
      <point x="295" y="325"/>
      <point x="275" y="305"/>
      <point x="251" y="305" type="curve" smooth="yes"/>
      <point x="249" y="305" type="line" smooth="yes"/>
      <point x="225" y="305"/>
      <point x="205" y="325"/>
      <point x="205" y="349" type="curve" smooth="yes"/>
      <point x="205" y="351" type="line" smooth="yes"/>
      <point x="205" y="375"/>
      <point x="225" y="395"/>
      <point x="249" y="395" type="curve"/>
    </contour>
  </outline>
</glyph>
<glyph name="guillemotright" format="2">
  <advance width="600"/>
  <unicode hex="00BB"/>
  <outline>
    <contour>
      <point x="49" y="495" type="line"/>
      <point x="51" y="495" type="line" smooth="yes"/>
      <point x="75" y="495"/>
      <point x="95" y="475"/>
      <point x="95" y="451" type="curve" smooth="yes"/>
      <point x="95" y="449" type="line" smooth="yes"/>
      <point x="95" y="425"/>
      <point x="75" y="405"/>
      <point x="51" y="405" type="curve" smooth="yes"/>
      <point x="49" y="405" type="line" smooth="yes"/>
      <point x="25" y="405"/>
      <point x="5" y="425"/>
      <point x="5" y="449" type="curve" smooth="yes"/>
      <point x="5" y="451" type="line" smooth="yes"/>
      <point x="5" y="475"/>
      <point x="25" y="495"/>
      <point x="49" y="495" type="curve"/>
    </contour>
    <contour>
      <point x="349" y="495" type="line"/>
      <point x="351" y="495" type="line" smooth="yes"/>
      <point x="375" y="495"/>
      <point x="395" y="475"/>
      <point x="395" y="451" type="curve" smooth="yes"/>
      <point x="395" y="449" type="line" smooth="yes"/>
      <point x="395" y="425"/>
      <point x="375" y="405"/>
      <point x="351" y="405" type="curve" smooth="yes"/>
      <point x="349" y="405" type="line" smooth="yes"/>
      <point x="325" y="405"/>
      <point x="305" y="425"/>
      <point x="305" y="449" type="curve" smooth="yes"/>
      <point x="305" y="451" type="line" smooth="yes"/>
      <point x="305" y="475"/>
      <point x="325" y="495"/>
      <point x="349" y="495" type="curve"/>
    </contour>
    <contour>
      <point x="149" y="395" type="line"/>
      <point x="151" y="395" type="line" smooth="yes"/>
      <point x="175" y="395"/>
      <point x="195" y="375"/>
      <point x="195" y="351" type="curve" smooth="yes"/>
      <point x="195" y="349" type="line" smooth="yes"/>
      <point x="195" y="325"/>
      <point x="175" y="305"/>
      <point x="151" y="305" type="curve" smooth="yes"/>
      <point x="149" y="305" type="line" smooth="yes"/>
      <point x="125" y="305"/>
      <point x="105" y="325"/>
      <point x="105" y="349" type="curve" smooth="yes"/>
      <point x="105" y="351" type="line" smooth="yes"/>
      <point x="105" y="375"/>
      <point x="125" y="395"/>
      <point x="149" y="395" type="curve"/>
    </contour>
    <contour>
      <point x="449" y="395" type="line"/>
      <point x="451" y="395" type="line" smooth="yes"/>
      <point x="475" y="395"/>
      <point x="495" y="375"/>
      <point x="495" y="351" type="curve" smooth="yes"/>
      <point x="495" y="349" type="line" smooth="yes"/>
      <point x="495" y="325"/>
      <point x="475" y="305"/>
      <point x="451" y="305" type="curve" smooth="yes"/>
      <point x="449" y="305" type="line" smooth="yes"/>
      <point x="425" y="305"/>
      <point x="405" y="325"/>
      <point x="405" y="349" type="curve" smooth="yes"/>
      <point x="405" y="351" type="line" smooth="yes"/>
      <point x="405" y="375"/>
      <point x="425" y="395"/>
      <point x="449" y="395" type="curve"/>
    </contour>
    <contour>
      <point x="249" y="295" type="line"/>
      <point x="251" y="295" type="line" smooth="yes"/>
      <point x="275" y="295"/>
      <point x="295" y="275"/>
      <point x="295" y="251" type="curve" smooth="yes"/>
      <point x="295" y="249" type="line" smooth="yes"/>
      <point x="295" y="225"/>
      <point x="275" y="205"/>
      <point x="251" y="205" type="curve" smooth="yes"/>
      <point x="249" y="205" type="line" smooth="yes"/>
      <point x="225" y="205"/>
      <point x="205" y="225"/>
      <point x="205" y="249" type="curve" smooth="yes"/>
      <point x="205" y="251" type="line" smooth="yes"/>
      <point x="205" y="275"/>
      <point x="225" y="295"/>
      <point x="249" y="295" type="curve"/>
    </contour>
    <contour>
      <point x="549" y="295" type="line"/>
      <point x="551" y="295" type="line" smooth="yes"/>
      <point x="575" y="295"/>
      <point x="595" y="275"/>
      <point x="595" y="251" type="curve" smooth="yes"/>
      <point x="595" y="249" type="line" smooth="yes"/>
      <point x="595" y="225"/>
      <point x="575" y="205"/>
      <point x="551" y="205" type="curve" smooth="yes"/>
      <point x="549" y="205" type="line" smooth="yes"/>
      <point x="525" y="205"/>
      <point x="505" y="225"/>
      <point x="505" y="249" type="curve" smooth="yes"/>
      <point x="505" y="251" type="line" smooth="yes"/>
      <point x="505" y="275"/>
      <point x="525" y="295"/>
      <point x="549" y="295" type="curve"/>
    </contour>
    <contour>
      <point x="149" y="195" type="line"/>
      <point x="151" y="195" type="line" smooth="yes"/>
      <point x="175" y="195"/>
      <point x="195" y="175"/>
      <point x="195" y="151" type="curve" smooth="yes"/>
      <point x="195" y="149" type="line" smooth="yes"/>
      <point x="195" y="125"/>
      <point x="175" y="105"/>
      <point x="151" y="105" type="curve" smooth="yes"/>
      <point x="149" y="105" type="line" smooth="yes"/>
      <point x="125" y="105"/>
      <point x="105" y="125"/>
      <point x="105" y="149" type="curve" smooth="yes"/>
      <point x="105" y="151" type="line" smooth="yes"/>
      <point x="105" y="175"/>
      <point x="125" y="195"/>
      <point x="149" y="195" type="curve"/>
    </contour>
    <contour>
      <point x="449" y="195" type="line"/>
      <point x="451" y="195" type="line" smooth="yes"/>
      <point x="475" y="195"/>
      <point x="495" y="175"/>
      <point x="495" y="151" type="curve" smooth="yes"/>
      <point x="495" y="149" type="line" smooth="yes"/>
      <point x="495" y="125"/>
      <point x="475" y="105"/>
      <point x="451" y="105" type="curve" smooth="yes"/>
      <point x="449" y="105" type="line" smooth="yes"/>
      <point x="425" y="105"/>
      <point x="405" y="125"/>
      <point x="405" y="149" type="curve" smooth="yes"/>
      <point x="405" y="151" type="line" smooth="yes"/>
      <point x="405" y="175"/>
      <point x="425" y="195"/>
      <point x="449" y="195" type="curve"/>
    </contour>
    <contour>
      <point x="49" y="95" type="line"/>
      <point x="51" y="95" type="line" smooth="yes"/>
      <point x="75" y="95"/>
      <point x="95" y="75"/>
      <point x="95" y="51" type="curve" smooth="yes"/>
      <point x="95" y="49" type="line" smooth="yes"/>
      <point x="95" y="25"/>
      <point x="75" y="5"/>
      <point x="51" y="5" type="curve" smooth="yes"/>
      <point x="49" y="5" type="line" smooth="yes"/>
      <point x="25" y="5"/>
      <point x="5" y="25"/>
      <point x="5" y="49" type="curve" smooth="yes"/>
      <point x="5" y="51" type="line" smooth="yes"/>
      <point x="5" y="75"/>
      <point x="25" y="95"/>
      <point x="49" y="95" type="curve"/>
    </contour>
    <contour>
      <point x="349" y="95" type="line"/>
      <point x="351" y="95" type="line" smooth="yes"/>
      <point x="375" y="95"/>
      <point x="395" y="75"/>
      <point x="395" y="51" type="curve" smooth="yes"/>
      <point x="395" y="49" type="line" smooth="yes"/>
      <point x="395" y="25"/>
      <point x="375" y="5"/>
      <point x="351" y="5" type="curve" smooth="yes"/>
      <point x="349" y="5" type="line" smooth="yes"/>
      <point x="325" y="5"/>
      <point x="305" y="25"/>
      <point x="305" y="49" type="curve" smooth="yes"/>
      <point x="305" y="51" type="line" smooth="yes"/>
      <point x="305" y="75"/>
      <point x="325" y="95"/>
      <point x="349" y="95" type="curve"/>
    </contour>
  </outline>
</glyph>
<glyph name="Edieresis" format="2">
  <advance width="600"/>
  <unicode hex="00CB"/>
  <outline>
    <contour>
      <point x="149" y="795" type="line"/>
      <point x="151" y="795" type="line" smooth="yes"/>
      <point x="175" y="795"/>
      <point x="195" y="775"/>
      <point x="195" y="751" type="curve" smooth="yes"/>
      <point x="195" y="749" type="line" smooth="yes"/>
      <point x="195" y="725"/>
      <point x="175" y="705"/>
      <point x="151" y="705" type="curve" smooth="yes"/>
      <point x="149" y="705" type="line" smooth="yes"/>
      <point x="125" y="705"/>
      <point x="105" y="725"/>
      <point x="105" y="749" type="curve" smooth="yes"/>
      <point x="105" y="751" type="line" smooth="yes"/>
      <point x="105" y="775"/>
      <point x="125" y="795"/>
      <point x="149" y="795" type="curve"/>
    </contour>
    <contour>
      <point x="349" y="795" type="line"/>
      <point x="351" y="795" type="line" smooth="yes"/>
      <point x="375" y="795"/>
      <point x="395" y="775"/>
      <point x="395" y="751" type="curve" smooth="yes"/>
      <point x="395" y="749" type="line" smooth="yes"/>
      <point x="395" y="725"/>
      <point x="375" y="705"/>
      <point x="351" y="705" type="curve" smooth="yes"/>
      <point x="349" y="705" type="line" smooth="yes"/>
      <point x="325" y="705"/>
      <point x="305" y="725"/>
      <point x="305" y="749" type="curve" smooth="yes"/>
      <point x="305" y="751" type="line" smooth="yes"/>
      <point x="305" y="775"/>
      <point x="325" y="795"/>
      <point x="349" y="795" type="curve"/>
    </contour>
    <contour>
      <point x="49" y="695" type="line"/>
      <point x="51" y="695" type="line" smooth="yes"/>
      <point x="75" y="695"/>
      <point x="95" y="675"/>
      <point x="95" y="651" type="curve" smooth="yes"/>
      <point x="95" y="649" type="line" smooth="yes"/>
      <point x="95" y="625"/>
      <point x="75" y="605"/>
      <point x="51" y="605" type="curve" smooth="yes"/>
      <point x="49" y="605" type="line" smooth="yes"/>
      <point x="25" y="605"/>
      <point x="5" y="625"/>
      <point x="5" y="649" type="curve" smooth="yes"/>
      <point x="5" y="651" type="line" smooth="yes"/>
      <point x="5" y="675"/>
      <point x="25" y="695"/>
      <point x="49" y="695" type="curve"/>
    </contour>
    <contour>
      <point x="149" y="695" type="line"/>
      <point x="151" y="695" type="line" smooth="yes"/>
      <point x="175" y="695"/>
      <point x="195" y="675"/>
      <point x="195" y="651" type="curve" smooth="yes"/>
      <point x="195" y="649" type="line" smooth="yes"/>
      <point x="195" y="625"/>
      <point x="175" y="605"/>
      <point x="151" y="605" type="curve" smooth="yes"/>
      <point x="149" y="605" type="line" smooth="yes"/>
      <point x="125" y="605"/>
      <point x="105" y="625"/>
      <point x="105" y="649" type="curve" smooth="yes"/>
      <point x="105" y="651" type="line" smooth="yes"/>
      <point x="105" y="675"/>
      <point x="125" y="695"/>
      <point x="149" y="695" type="curve"/>
    </contour>
    <contour>
      <point x="249" y="695" type="line"/>
      <point x="251" y="695" type="line" smooth="yes"/>
      <point x="275" y="695"/>
      <point x="295" y="675"/>
      <point x="295" y="651" type="curve" smooth="yes"/>
      <point x="295" y="649" type="line" smooth="yes"/>
      <point x="295" y="625"/>
      <point x="275" y="605"/>
      <point x="251" y="605" type="curve" smooth="yes"/>
      <point x="249" y="605" type="line" smooth="yes"/>
      <point x="225" y="605"/>
      <point x="205" y="625"/>
      <point x="205" y="649" type="curve" smooth="yes"/>
      <point x="205" y="651" type="line" smooth="yes"/>
      <point x="205" y="675"/>
      <point x="225" y="695"/>
      <point x="249" y="695" type="curve"/>
    </contour>
    <contour>
      <point x="349" y="695" type="line"/>
      <point x="351" y="695" type="line" smooth="yes"/>
      <point x="375" y="695"/>
      <point x="395" y="675"/>
      <point x="395" y="651" type="curve" smooth="yes"/>
      <point x="395" y="649" type="line" smooth="yes"/>
      <point x="395" y="625"/>
      <point x="375" y="605"/>
      <point x="351" y="605" type="curve" smooth="yes"/>
      <point x="349" y="605" type="line" smooth="yes"/>
      <point x="325" y="605"/>
      <point x="305" y="625"/>
      <point x="305" y="649" type="curve" smooth="yes"/>
      <point x="305" y="651" type="line" smooth="yes"/>
      <point x="305" y="675"/>
      <point x="325" y="695"/>
      <point x="349" y="695" type="curve"/>
    </contour>
    <contour>
      <point x="449" y="695" type="line"/>
      <point x="451" y="695" type="line" smooth="yes"/>
      <point x="475" y="695"/>
      <point x="495" y="675"/>
      <point x="495" y="651" type="curve" smooth="yes"/>
      <point x="495" y="649" type="line" smooth="yes"/>
      <point x="495" y="625"/>
      <point x="475" y="605"/>
      <point x="451" y="605" type="curve" smooth="yes"/>
      <point x="449" y="605" type="line" smooth="yes"/>
      <point x="425" y="605"/>
      <point x="405" y="625"/>
      <point x="405" y="649" type="curve" smooth="yes"/>
      <point x="405" y="651" type="line" smooth="yes"/>
      <point x="405" y="675"/>
      <point x="425" y="695"/>
      <point x="449" y="695" type="curve"/>
    </contour>
    <contour>
      <point x="49" y="595" type="line"/>
      <point x="51" y="595" type="line" smooth="yes"/>
      <point x="75" y="595"/>
      <point x="95" y="575"/>
      <point x="95" y="551" type="curve" smooth="yes"/>
      <point x="95" y="549" type="line" smooth="yes"/>
      <point x="95" y="525"/>
      <point x="75" y="505"/>
      <point x="51" y="505" type="curve" smooth="yes"/>
      <point x="49" y="505" type="line" smooth="yes"/>
      <point x="25" y="505"/>
      <point x="5" y="525"/>
      <point x="5" y="549" type="curve" smooth="yes"/>
      <point x="5" y="551" type="line" smooth="yes"/>
      <point x="5" y="575"/>
      <point x="25" y="595"/>
      <point x="49" y="595" type="curve"/>
    </contour>
    <contour>
      <point x="49" y="495" type="line"/>
      <point x="51" y="495" type="line" smooth="yes"/>
      <point x="75" y="495"/>
      <point x="95" y="475"/>
      <point x="95" y="451" type="curve" smooth="yes"/>
      <point x="95" y="449" type="line" smooth="yes"/>
      <point x="95" y="425"/>
      <point x="75" y="405"/>
      <point x="51" y="405" type="curve" smooth="yes"/>
      <point x="49" y="405" type="line" smooth="yes"/>
      <point x="25" y="405"/>
      <point x="5" y="425"/>
      <point x="5" y="449" type="curve" smooth="yes"/>
      <point x="5" y="451" type="line" smooth="yes"/>
      <point x="5" y="475"/>
      <point x="25" y="495"/>
      <point x="49" y="495" type="curve"/>
    </contour>
    <contour>
      <point x="49" y="395" type="line"/>
      <point x="51" y="395" type="line" smooth="yes"/>
      <point x="75" y="395"/>
      <point x="95" y="375"/>
      <point x="95" y="351" type="curve" smooth="yes"/>
      <point x="95" y="349" type="line" smooth="yes"/>
      <point x="95" y="325"/>
      <point x="75" y="305"/>
      <point x="51" y="305" type="curve" smooth="yes"/>
      <point x="49" y="305" type="line" smooth="yes"/>
      <point x="25" y="305"/>
      <point x="5" y="325"/>
      <point x="5" y="349" type="curve" smooth="yes"/>
      <point x="5" y="351" type="line" smooth="yes"/>
      <point x="5" y="375"/>
      <point x="25" y="395"/>
      <point x="49" y="395" type="curve"/>
    </contour>
    <contour>
      <point x="149" y="395" type="line"/>
      <point x="151" y="395" type="line" smooth="yes"/>
      <point x="175" y="395"/>
      <point x="195" y="375"/>
      <point x="195" y="351" type="curve" smooth="yes"/>
      <point x="195" y="349" type="line" smooth="yes"/>
      <point x="195" y="325"/>
      <point x="175" y="305"/>
      <point x="151" y="305" type="curve" smooth="yes"/>
      <point x="149" y="305" type="line" smooth="yes"/>
      <point x="125" y="305"/>
      <point x="105" y="325"/>
      <point x="105" y="349" type="curve" smooth="yes"/>
      <point x="105" y="351" type="line" smooth="yes"/>
      <point x="105" y="375"/>
      <point x="125" y="395"/>
      <point x="149" y="395" type="curve"/>
    </contour>
    <contour>
      <point x="249" y="395" type="line"/>
      <point x="251" y="395" type="line" smooth="yes"/>
      <point x="275" y="395"/>
      <point x="295" y="375"/>
      <point x="295" y="351" type="curve" smooth="yes"/>
      <point x="295" y="349" type="line" smooth="yes"/>
      <point x="295" y="325"/>
      <point x="275" y="305"/>
      <point x="251" y="305" type="curve" smooth="yes"/>
      <point x="249" y="305" type="line" smooth="yes"/>
      <point x="225" y="305"/>
      <point x="205" y="325"/>
      <point x="205" y="349" type="curve" smooth="yes"/>
      <point x="205" y="351" type="line" smooth="yes"/>
      <point x="205" y="375"/>
      <point x="225" y="395"/>
      <point x="249" y="395" type="curve"/>
    </contour>
    <contour>
      <point x="349" y="395" type="line"/>
      <point x="351" y="395" type="line" smooth="yes"/>
      <point x="375" y="395"/>
      <point x="395" y="375"/>
      <point x="395" y="351" type="curve" smooth="yes"/>
      <point x="395" y="349" type="line" smooth="yes"/>
      <point x="395" y="325"/>
      <point x="375" y="305"/>
      <point x="351" y="305" type="curve" smooth="yes"/>
      <point x="349" y="305" type="line" smooth="yes"/>
      <point x="325" y="305"/>
      <point x="305" y="325"/>
      <point x="305" y="349" type="curve" smooth="yes"/>
      <point x="305" y="351" type="line" smooth="yes"/>
      <point x="305" y="375"/>
      <point x="325" y="395"/>
      <point x="349" y="395" type="curve"/>
    </contour>
    <contour>
      <point x="49" y="295" type="line"/>
      <point x="51" y="295" type="line" smooth="yes"/>
      <point x="75" y="295"/>
      <point x="95" y="275"/>
      <point x="95" y="251" type="curve" smooth="yes"/>
      <point x="95" y="249" type="line" smooth="yes"/>
      <point x="95" y="225"/>
      <point x="75" y="205"/>
      <point x="51" y="205" type="curve" smooth="yes"/>
      <point x="49" y="205" type="line" smooth="yes"/>
      <point x="25" y="205"/>
      <point x="5" y="225"/>
      <point x="5" y="249" type="curve" smooth="yes"/>
      <point x="5" y="251" type="line" smooth="yes"/>
      <point x="5" y="275"/>
      <point x="25" y="295"/>
      <point x="49" y="295" type="curve"/>
    </contour>
    <contour>
      <point x="49" y="195" type="line"/>
      <point x="51" y="195" type="line" smooth="yes"/>
      <point x="75" y="195"/>
      <point x="95" y="175"/>
      <point x="95" y="151" type="curve" smooth="yes"/>
      <point x="95" y="149" type="line" smooth="yes"/>
      <point x="95" y="125"/>
      <point x="75" y="105"/>
      <point x="51" y="105" type="curve" smooth="yes"/>
      <point x="49" y="105" type="line" smooth="yes"/>
      <point x="25" y="105"/>
      <point x="5" y="125"/>
      <point x="5" y="149" type="curve" smooth="yes"/>
      <point x="5" y="151" type="line" smooth="yes"/>
      <point x="5" y="175"/>
      <point x="25" y="195"/>
      <point x="49" y="195" type="curve"/>
    </contour>
    <contour>
      <point x="49" y="95" type="line"/>
      <point x="51" y="95" type="line" smooth="yes"/>
      <point x="75" y="95"/>
      <point x="95" y="75"/>
      <point x="95" y="51" type="curve" smooth="yes"/>
      <point x="95" y="49" type="line" smooth="yes"/>
      <point x="95" y="25"/>
      <point x="75" y="5"/>
      <point x="51" y="5" type="curve" smooth="yes"/>
      <point x="49" y="5" type="line" smooth="yes"/>
      <point x="25" y="5"/>
      <point x="5" y="25"/>
      <point x="5" y="49" type="curve" smooth="yes"/>
      <point x="5" y="51" type="line" smooth="yes"/>
      <point x="5" y="75"/>
      <point x="25" y="95"/>
      <point x="49" y="95" type="curve"/>
    </contour>
    <contour>
      <point x="149" y="95" type="line"/>
      <point x="151" y="95" type="line" smooth="yes"/>
      <point x="175" y="95"/>
      <point x="195" y="75"/>
      <point x="195" y="51" type="curve" smooth="yes"/>
      <point x="195" y="49" type="line" smooth="yes"/>
      <point x="195" y="25"/>
      <point x="175" y="5"/>
      <point x="151" y="5" type="curve" smooth="yes"/>
      <point x="149" y="5" type="line" smooth="yes"/>
      <point x="125" y="5"/>
      <point x="105" y="25"/>
      <point x="105" y="49" type="curve" smooth="yes"/>
      <point x="105" y="51" type="line" smooth="yes"/>
      <point x="105" y="75"/>
      <point x="125" y="95"/>
      <point x="149" y="95" type="curve"/>
    </contour>
    <contour>
      <point x="249" y="95" type="line"/>
      <point x="251" y="95" type="line" smooth="yes"/>
      <point x="275" y="95"/>
      <point x="295" y="75"/>
      <point x="295" y="51" type="curve" smooth="yes"/>
      <point x="295" y="49" type="line" smooth="yes"/>
      <point x="295" y="25"/>
      <point x="275" y="5"/>
      <point x="251" y="5" type="curve" smooth="yes"/>
      <point x="249" y="5" type="line" smooth="yes"/>
      <point x="225" y="5"/>
      <point x="205" y="25"/>
      <point x="205" y="49" type="curve" smooth="yes"/>
      <point x="205" y="51" type="line" smooth="yes"/>
      <point x="205" y="75"/>
      <point x="225" y="95"/>
      <point x="249" y="95" type="curve"/>
    </contour>
    <contour>
      <point x="349" y="95" type="line"/>
      <point x="351" y="95" type="line" smooth="yes"/>
      <point x="375" y="95"/>
      <point x="395" y="75"/>
      <point x="395" y="51" type="curve" smooth="yes"/>
      <point x="395" y="49" type="line" smooth="yes"/>
      <point x="395" y="25"/>
      <point x="375" y="5"/>
      <point x="351" y="5" type="curve" smooth="yes"/>
      <point x="349" y="5" type="line" smooth="yes"/>
      <point x="325" y="5"/>
      <point x="305" y="25"/>
      <point x="305" y="49" type="curve" smooth="yes"/>
      <point x="305" y="51" type="line" smooth="yes"/>
      <point x="305" y="75"/>
      <point x="325" y="95"/>
      <point x="349" y="95" type="curve"/>
    </contour>
    <contour>
      <point x="449" y="95" type="line"/>
      <point x="451" y="95" type="line" smooth="yes"/>
      <point x="475" y="95"/>
      <point x="495" y="75"/>
      <point x="495" y="51" type="curve" smooth="yes"/>
      <point x="495" y="49" type="line" smooth="yes"/>
      <point x="495" y="25"/>
      <point x="475" y="5"/>
      <point x="451" y="5" type="curve" smooth="yes"/>
      <point x="449" y="5" type="line" smooth="yes"/>
      <point x="425" y="5"/>
      <point x="405" y="25"/>
      <point x="405" y="49" type="curve" smooth="yes"/>
      <point x="405" y="51" type="line" smooth="yes"/>
      <point x="405" y="75"/>
      <point x="425" y="95"/>
      <point x="449" y="95" type="curve"/>
    </contour>
  </outline>
</glyph>
<glyph name="Ntilde" format="2">
  <advance width="600"/>
  <unicode hex="00D1"/>
  <outline>
    <contour>
      <point x="249" y="795" type="line"/>
      <point x="251" y="795" type="line" smooth="yes"/>
      <point x="275" y="795"/>
      <point x="295" y="775"/>
      <point x="295" y="751" type="curve" smooth="yes"/>
      <point x="295" y="749" type="line" smooth="yes"/>
      <point x="295" y="725"/>
      <point x="275" y="705"/>
      <point x="251" y="705" type="curve" smooth="yes"/>
      <point x="249" y="705" type="line" smooth="yes"/>
      <point x="225" y="705"/>
      <point x="205" y="725"/>
      <point x="205" y="749" type="curve" smooth="yes"/>
      <point x="205" y="751" type="line" smooth="yes"/>
      <point x="205" y="775"/>
      <point x="225" y="795"/>
      <point x="249" y="795" type="curve"/>
    </contour>
    <contour>
      <point x="449" y="795" type="line"/>
      <point x="451" y="795" type="line" smooth="yes"/>
      <point x="475" y="795"/>
      <point x="495" y="775"/>
      <point x="495" y="751" type="curve" smooth="yes"/>
      <point x="495" y="749" type="line" smooth="yes"/>
      <point x="495" y="725"/>
      <point x="475" y="705"/>
      <point x="451" y="705" type="curve" smooth="yes"/>
      <point x="449" y="705" type="line" smooth="yes"/>
      <point x="425" y="705"/>
      <point x="405" y="725"/>
      <point x="405" y="749" type="curve" smooth="yes"/>
      <point x="405" y="751" type="line" smooth="yes"/>
      <point x="405" y="775"/>
      <point x="425" y="795"/>
      <point x="449" y="795" type="curve"/>
    </contour>
    <contour>
      <point x="149" y="695" type="line"/>
      <point x="151" y="695" type="line" smooth="yes"/>
      <point x="175" y="695"/>
      <point x="195" y="675"/>
      <point x="195" y="651" type="curve" smooth="yes"/>
      <point x="195" y="649" type="line" smooth="yes"/>
      <point x="195" y="625"/>
      <point x="175" y="605"/>
      <point x="151" y="605" type="curve" smooth="yes"/>
      <point x="149" y="605" type="line" smooth="yes"/>
      <point x="125" y="605"/>
      <point x="105" y="625"/>
      <point x="105" y="649" type="curve" smooth="yes"/>
      <point x="105" y="651" type="line" smooth="yes"/>
      <point x="105" y="675"/>
      <point x="125" y="695"/>
      <point x="149" y="695" type="curve"/>
    </contour>
    <contour>
      <point x="349" y="695" type="line"/>
      <point x="351" y="695" type="line" smooth="yes"/>
      <point x="375" y="695"/>
      <point x="395" y="675"/>
      <point x="395" y="651" type="curve" smooth="yes"/>
      <point x="395" y="649" type="line" smooth="yes"/>
      <point x="395" y="625"/>
      <point x="375" y="605"/>
      <point x="351" y="605" type="curve" smooth="yes"/>
      <point x="349" y="605" type="line" smooth="yes"/>
      <point x="325" y="605"/>
      <point x="305" y="625"/>
      <point x="305" y="649" type="curve" smooth="yes"/>
      <point x="305" y="651" type="line" smooth="yes"/>
      <point x="305" y="675"/>
      <point x="325" y="695"/>
      <point x="349" y="695" type="curve"/>
    </contour>
    <contour>
      <point x="49" y="595" type="line"/>
      <point x="51" y="595" type="line" smooth="yes"/>
      <point x="75" y="595"/>
      <point x="95" y="575"/>
      <point x="95" y="551" type="curve" smooth="yes"/>
      <point x="95" y="549" type="line" smooth="yes"/>
      <point x="95" y="525"/>
      <point x="75" y="505"/>
      <point x="51" y="505" type="curve" smooth="yes"/>
      <point x="49" y="505" type="line" smooth="yes"/>
      <point x="25" y="505"/>
      <point x="5" y="525"/>
      <point x="5" y="549" type="curve" smooth="yes"/>
      <point x="5" y="551" type="line" smooth="yes"/>
      <point x="5" y="575"/>
      <point x="25" y="595"/>
      <point x="49" y="595" type="curve"/>
    </contour>
    <contour>
      <point x="449" y="595" type="line"/>
      <point x="451" y="595" type="line" smooth="yes"/>
      <point x="475" y="595"/>
      <point x="495" y="575"/>
      <point x="495" y="551" type="curve" smooth="yes"/>
      <point x="495" y="549" type="line" smooth="yes"/>
      <point x="495" y="525"/>
      <point x="475" y="505"/>
      <point x="451" y="505" type="curve" smooth="yes"/>
      <point x="449" y="505" type="line" smooth="yes"/>
      <point x="425" y="505"/>
      <point x="405" y="525"/>
      <point x="405" y="549" type="curve" smooth="yes"/>
      <point x="405" y="551" type="line" smooth="yes"/>
      <point x="405" y="575"/>
      <point x="425" y="595"/>
      <point x="449" y="595" type="curve"/>
    </contour>
    <contour>
      <point x="49" y="495" type="line"/>
      <point x="51" y="495" type="line" smooth="yes"/>
      <point x="75" y="495"/>
      <point x="95" y="475"/>
      <point x="95" y="451" type="curve" smooth="yes"/>
      <point x="95" y="449" type="line" smooth="yes"/>
      <point x="95" y="425"/>
      <point x="75" y="405"/>
      <point x="51" y="405" type="curve" smooth="yes"/>
      <point x="49" y="405" type="line" smooth="yes"/>
      <point x="25" y="405"/>
      <point x="5" y="425"/>
      <point x="5" y="449" type="curve" smooth="yes"/>
      <point x="5" y="451" type="line" smooth="yes"/>
      <point x="5" y="475"/>
      <point x="25" y="495"/>
      <point x="49" y="495" type="curve"/>
    </contour>
    <contour>
      <point x="149" y="495" type="line"/>
      <point x="151" y="495" type="line" smooth="yes"/>
      <point x="175" y="495"/>
      <point x="195" y="475"/>
      <point x="195" y="451" type="curve" smooth="yes"/>
      <point x="195" y="449" type="line" smooth="yes"/>
      <point x="195" y="425"/>
      <point x="175" y="405"/>
      <point x="151" y="405" type="curve" smooth="yes"/>
      <point x="149" y="405" type="line" smooth="yes"/>
      <point x="125" y="405"/>
      <point x="105" y="425"/>
      <point x="105" y="449" type="curve" smooth="yes"/>
      <point x="105" y="451" type="line" smooth="yes"/>
      <point x="105" y="475"/>
      <point x="125" y="495"/>
      <point x="149" y="495" type="curve"/>
    </contour>
    <contour>
      <point x="449" y="495" type="line"/>
      <point x="451" y="495" type="line" smooth="yes"/>
      <point x="475" y="495"/>
      <point x="495" y="475"/>
      <point x="495" y="451" type="curve" smooth="yes"/>
      <point x="495" y="449" type="line" smooth="yes"/>
      <point x="495" y="425"/>
      <point x="475" y="405"/>
      <point x="451" y="405" type="curve" smooth="yes"/>
      <point x="449" y="405" type="line" smooth="yes"/>
      <point x="425" y="405"/>
      <point x="405" y="425"/>
      <point x="405" y="449" type="curve" smooth="yes"/>
      <point x="405" y="451" type="line" smooth="yes"/>
      <point x="405" y="475"/>
      <point x="425" y="495"/>
      <point x="449" y="495" type="curve"/>
    </contour>
    <contour>
      <point x="49" y="395" type="line"/>
      <point x="51" y="395" type="line" smooth="yes"/>
      <point x="75" y="395"/>
      <point x="95" y="375"/>
      <point x="95" y="351" type="curve" smooth="yes"/>
      <point x="95" y="349" type="line" smooth="yes"/>
      <point x="95" y="325"/>
      <point x="75" y="305"/>
      <point x="51" y="305" type="curve" smooth="yes"/>
      <point x="49" y="305" type="line" smooth="yes"/>
      <point x="25" y="305"/>
      <point x="5" y="325"/>
      <point x="5" y="349" type="curve" smooth="yes"/>
      <point x="5" y="351" type="line" smooth="yes"/>
      <point x="5" y="375"/>
      <point x="25" y="395"/>
      <point x="49" y="395" type="curve"/>
    </contour>
    <contour>
      <point x="249" y="395" type="line"/>
      <point x="251" y="395" type="line" smooth="yes"/>
      <point x="275" y="395"/>
      <point x="295" y="375"/>
      <point x="295" y="351" type="curve" smooth="yes"/>
      <point x="295" y="349" type="line" smooth="yes"/>
      <point x="295" y="325"/>
      <point x="275" y="305"/>
      <point x="251" y="305" type="curve" smooth="yes"/>
      <point x="249" y="305" type="line" smooth="yes"/>
      <point x="225" y="305"/>
      <point x="205" y="325"/>
      <point x="205" y="349" type="curve" smooth="yes"/>
      <point x="205" y="351" type="line" smooth="yes"/>
      <point x="205" y="375"/>
      <point x="225" y="395"/>
      <point x="249" y="395" type="curve"/>
    </contour>
    <contour>
      <point x="449" y="395" type="line"/>
      <point x="451" y="395" type="line" smooth="yes"/>
      <point x="475" y="395"/>
      <point x="495" y="375"/>
      <point x="495" y="351" type="curve" smooth="yes"/>
      <point x="495" y="349" type="line" smooth="yes"/>
      <point x="495" y="325"/>
      <point x="475" y="305"/>
      <point x="451" y="305" type="curve" smooth="yes"/>
      <point x="449" y="305" type="line" smooth="yes"/>
      <point x="425" y="305"/>
      <point x="405" y="325"/>
      <point x="405" y="349" type="curve" smooth="yes"/>
      <point x="405" y="351" type="line" smooth="yes"/>
      <point x="405" y="375"/>
      <point x="425" y="395"/>
      <point x="449" y="395" type="curve"/>
    </contour>
    <contour>
      <point x="49" y="295" type="line"/>
      <point x="51" y="295" type="line" smooth="yes"/>
      <point x="75" y="295"/>
      <point x="95" y="275"/>
      <point x="95" y="251" type="curve" smooth="yes"/>
      <point x="95" y="249" type="line" smooth="yes"/>
      <point x="95" y="225"/>
      <point x="75" y="205"/>
      <point x="51" y="205" type="curve" smooth="yes"/>
      <point x="49" y="205" type="line" smooth="yes"/>
      <point x="25" y="205"/>
      <point x="5" y="225"/>
      <point x="5" y="249" type="curve" smooth="yes"/>
      <point x="5" y="251" type="line" smooth="yes"/>
      <point x="5" y="275"/>
      <point x="25" y="295"/>
      <point x="49" y="295" type="curve"/>
    </contour>
    <contour>
      <point x="349" y="295" type="line"/>
      <point x="351" y="295" type="line" smooth="yes"/>
      <point x="375" y="295"/>
      <point x="395" y="275"/>
      <point x="395" y="251" type="curve" smooth="yes"/>
      <point x="395" y="249" type="line" smooth="yes"/>
      <point x="395" y="225"/>
      <point x="375" y="205"/>
      <point x="351" y="205" type="curve" smooth="yes"/>
      <point x="349" y="205" type="line" smooth="yes"/>
      <point x="325" y="205"/>
      <point x="305" y="225"/>
      <point x="305" y="249" type="curve" smooth="yes"/>
      <point x="305" y="251" type="line" smooth="yes"/>
      <point x="305" y="275"/>
      <point x="325" y="295"/>
      <point x="349" y="295" type="curve"/>
    </contour>
    <contour>
      <point x="449" y="295" type="line"/>
      <point x="451" y="295" type="line" smooth="yes"/>
      <point x="475" y="295"/>
      <point x="495" y="275"/>
      <point x="495" y="251" type="curve" smooth="yes"/>
      <point x="495" y="249" type="line" smooth="yes"/>
      <point x="495" y="225"/>
      <point x="475" y="205"/>
      <point x="451" y="205" type="curve" smooth="yes"/>
      <point x="449" y="205" type="line" smooth="yes"/>
      <point x="425" y="205"/>
      <point x="405" y="225"/>
      <point x="405" y="249" type="curve" smooth="yes"/>
      <point x="405" y="251" type="line" smooth="yes"/>
      <point x="405" y="275"/>
      <point x="425" y="295"/>
      <point x="449" y="295" type="curve"/>
    </contour>
    <contour>
      <point x="49" y="195" type="line"/>
      <point x="51" y="195" type="line" smooth="yes"/>
      <point x="75" y="195"/>
      <point x="95" y="175"/>
      <point x="95" y="151" type="curve" smooth="yes"/>
      <point x="95" y="149" type="line" smooth="yes"/>
      <point x="95" y="125"/>
      <point x="75" y="105"/>
      <point x="51" y="105" type="curve" smooth="yes"/>
      <point x="49" y="105" type="line" smooth="yes"/>
      <point x="25" y="105"/>
      <point x="5" y="125"/>
      <point x="5" y="149" type="curve" smooth="yes"/>
      <point x="5" y="151" type="line" smooth="yes"/>
      <point x="5" y="175"/>
      <point x="25" y="195"/>
      <point x="49" y="195" type="curve"/>
    </contour>
    <contour>
      <point x="449" y="195" type="line"/>
      <point x="451" y="195" type="line" smooth="yes"/>
      <point x="475" y="195"/>
      <point x="495" y="175"/>
      <point x="495" y="151" type="curve" smooth="yes"/>
      <point x="495" y="149" type="line" smooth="yes"/>
      <point x="495" y="125"/>
      <point x="475" y="105"/>
      <point x="451" y="105" type="curve" smooth="yes"/>
      <point x="449" y="105" type="line" smooth="yes"/>
      <point x="425" y="105"/>
      <point x="405" y="125"/>
      <point x="405" y="149" type="curve" smooth="yes"/>
      <point x="405" y="151" type="line" smooth="yes"/>
      <point x="405" y="175"/>
      <point x="425" y="195"/>
      <point x="449" y="195" type="curve"/>
    </contour>
    <contour>
      <point x="49" y="95" type="line"/>
      <point x="51" y="95" type="line" smooth="yes"/>
      <point x="75" y="95"/>
      <point x="95" y="75"/>
      <point x="95" y="51" type="curve" smooth="yes"/>
      <point x="95" y="49" type="line" smooth="yes"/>
      <point x="95" y="25"/>
      <point x="75" y="5"/>
      <point x="51" y="5" type="curve" smooth="yes"/>
      <point x="49" y="5" type="line" smooth="yes"/>
      <point x="25" y="5"/>
      <point x="5" y="25"/>
      <point x="5" y="49" type="curve" smooth="yes"/>
      <point x="5" y="51" type="line" smooth="yes"/>
      <point x="5" y="75"/>
      <point x="25" y="95"/>
      <point x="49" y="95" type="curve"/>
    </contour>
    <contour>
      <point x="449" y="95" type="line"/>
      <point x="451" y="95" type="line" smooth="yes"/>
      <point x="475" y="95"/>
      <point x="495" y="75"/>
      <point x="495" y="51" type="curve" smooth="yes"/>
      <point x="495" y="49" type="line" smooth="yes"/>
      <point x="495" y="25"/>
      <point x="475" y="5"/>
      <point x="451" y="5" type="curve" smooth="yes"/>
      <point x="449" y="5" type="line" smooth="yes"/>
      <point x="425" y="5"/>
      <point x="405" y="25"/>
      <point x="405" y="49" type="curve" smooth="yes"/>
      <point x="405" y="51" type="line" smooth="yes"/>
      <point x="405" y="75"/>
      <point x="425" y="95"/>
      <point x="449" y="95" type="curve"/>
    </contour>
  </outline>
</glyph>
<glyph name="Ocircumflex" format="2">
  <advance width="600"/>
  <unicode hex="00D4"/>
  <outline>
    <contour>
      <point x="249" y="795" type="line"/>
      <point x="251" y="795" type="line" smooth="yes"/>
      <point x="275" y="795"/>
      <point x="295" y="775"/>
      <point x="295" y="751" type="curve" smooth="yes"/>
      <point x="295" y="749" type="line" smooth="yes"/>
      <point x="295" y="725"/>
      <point x="275" y="705"/>
      <point x="251" y="705" type="curve" smooth="yes"/>
      <point x="249" y="705" type="line" smooth="yes"/>
      <point x="225" y="705"/>
      <point x="205" y="725"/>
      <point x="205" y="749" type="curve" smooth="yes"/>
      <point x="205" y="751" type="line" smooth="yes"/>
      <point x="205" y="775"/>
      <point x="225" y="795"/>
      <point x="249" y="795" type="curve"/>
    </contour>
    <contour>
      <point x="149" y="695" type="line"/>
      <point x="151" y="695" type="line" smooth="yes"/>
      <point x="175" y="695"/>
      <point x="195" y="675"/>
      <point x="195" y="651" type="curve" smooth="yes"/>
      <point x="195" y="649" type="line" smooth="yes"/>
      <point x="195" y="625"/>
      <point x="175" y="605"/>
      <point x="151" y="605" type="curve" smooth="yes"/>
      <point x="149" y="605" type="line" smooth="yes"/>
      <point x="125" y="605"/>
      <point x="105" y="625"/>
      <point x="105" y="649" type="curve" smooth="yes"/>
      <point x="105" y="651" type="line" smooth="yes"/>
      <point x="105" y="675"/>
      <point x="125" y="695"/>
      <point x="149" y="695" type="curve"/>
    </contour>
    <contour>
      <point x="349" y="695" type="line"/>
      <point x="351" y="695" type="line" smooth="yes"/>
      <point x="375" y="695"/>
      <point x="395" y="675"/>
      <point x="395" y="651" type="curve" smooth="yes"/>
      <point x="395" y="649" type="line" smooth="yes"/>
      <point x="395" y="625"/>
      <point x="375" y="605"/>
      <point x="351" y="605" type="curve" smooth="yes"/>
      <point x="349" y="605" type="line" smooth="yes"/>
      <point x="325" y="605"/>
      <point x="305" y="625"/>
      <point x="305" y="649" type="curve" smooth="yes"/>
      <point x="305" y="651" type="line" smooth="yes"/>
      <point x="305" y="675"/>
      <point x="325" y="695"/>
      <point x="349" y="695" type="curve"/>
    </contour>
    <contour>
      <point x="149" y="595" type="line"/>
      <point x="151" y="595" type="line" smooth="yes"/>
      <point x="175" y="595"/>
      <point x="195" y="575"/>
      <point x="195" y="551" type="curve" smooth="yes"/>
      <point x="195" y="549" type="line" smooth="yes"/>
      <point x="195" y="525"/>
      <point x="175" y="505"/>
      <point x="151" y="505" type="curve" smooth="yes"/>
      <point x="149" y="505" type="line" smooth="yes"/>
      <point x="125" y="505"/>
      <point x="105" y="525"/>
      <point x="105" y="549" type="curve" smooth="yes"/>
      <point x="105" y="551" type="line" smooth="yes"/>
      <point x="105" y="575"/>
      <point x="125" y="595"/>
      <point x="149" y="595" type="curve"/>
    </contour>
    <contour>
      <point x="249" y="595" type="line"/>
      <point x="251" y="595" type="line" smooth="yes"/>
      <point x="275" y="595"/>
      <point x="295" y="575"/>
      <point x="295" y="551" type="curve" smooth="yes"/>
      <point x="295" y="549" type="line" smooth="yes"/>
      <point x="295" y="525"/>
      <point x="275" y="505"/>
      <point x="251" y="505" type="curve" smooth="yes"/>
      <point x="249" y="505" type="line" smooth="yes"/>
      <point x="225" y="505"/>
      <point x="205" y="525"/>
      <point x="205" y="549" type="curve" smooth="yes"/>
      <point x="205" y="551" type="line" smooth="yes"/>
      <point x="205" y="575"/>
      <point x="225" y="595"/>
      <point x="249" y="595" type="curve"/>
    </contour>
    <contour>
      <point x="349" y="595" type="line"/>
      <point x="351" y="595" type="line" smooth="yes"/>
      <point x="375" y="595"/>
      <point x="395" y="575"/>
      <point x="395" y="551" type="curve" smooth="yes"/>
      <point x="395" y="549" type="line" smooth="yes"/>
      <point x="395" y="525"/>
      <point x="375" y="505"/>
      <point x="351" y="505" type="curve" smooth="yes"/>
      <point x="349" y="505" type="line" smooth="yes"/>
      <point x="325" y="505"/>
      <point x="305" y="525"/>
      <point x="305" y="549" type="curve" smooth="yes"/>
      <point x="305" y="551" type="line" smooth="yes"/>
      <point x="305" y="575"/>
      <point x="325" y="595"/>
      <point x="349" y="595" type="curve"/>
    </contour>
    <contour>
      <point x="49" y="495" type="line"/>
      <point x="51" y="495" type="line" smooth="yes"/>
      <point x="75" y="495"/>
      <point x="95" y="475"/>
      <point x="95" y="451" type="curve" smooth="yes"/>
      <point x="95" y="449" type="line" smooth="yes"/>
      <point x="95" y="425"/>
      <point x="75" y="405"/>
      <point x="51" y="405" type="curve" smooth="yes"/>
      <point x="49" y="405" type="line" smooth="yes"/>
      <point x="25" y="405"/>
      <point x="5" y="425"/>
      <point x="5" y="449" type="curve" smooth="yes"/>
      <point x="5" y="451" type="line" smooth="yes"/>
      <point x="5" y="475"/>
      <point x="25" y="495"/>
      <point x="49" y="495" type="curve"/>
    </contour>
    <contour>
      <point x="449" y="495" type="line"/>
      <point x="451" y="495" type="line" smooth="yes"/>
      <point x="475" y="495"/>
      <point x="495" y="475"/>
      <point x="495" y="451" type="curve" smooth="yes"/>
      <point x="495" y="449" type="line" smooth="yes"/>
      <point x="495" y="425"/>
      <point x="475" y="405"/>
      <point x="451" y="405" type="curve" smooth="yes"/>
      <point x="449" y="405" type="line" smooth="yes"/>
      <point x="425" y="405"/>
      <point x="405" y="425"/>
      <point x="405" y="449" type="curve" smooth="yes"/>
      <point x="405" y="451" type="line" smooth="yes"/>
      <point x="405" y="475"/>
      <point x="425" y="495"/>
      <point x="449" y="495" type="curve"/>
    </contour>
    <contour>
      <point x="49" y="395" type="line"/>
      <point x="51" y="395" type="line" smooth="yes"/>
      <point x="75" y="395"/>
      <point x="95" y="375"/>
      <point x="95" y="351" type="curve" smooth="yes"/>
      <point x="95" y="349" type="line" smooth="yes"/>
      <point x="95" y="325"/>
      <point x="75" y="305"/>
      <point x="51" y="305" type="curve" smooth="yes"/>
      <point x="49" y="305" type="line" smooth="yes"/>
      <point x="25" y="305"/>
      <point x="5" y="325"/>
      <point x="5" y="349" type="curve" smooth="yes"/>
      <point x="5" y="351" type="line" smooth="yes"/>
      <point x="5" y="375"/>
      <point x="25" y="395"/>
      <point x="49" y="395" type="curve"/>
    </contour>
    <contour>
      <point x="449" y="395" type="line"/>
      <point x="451" y="395" type="line" smooth="yes"/>
      <point x="475" y="395"/>
      <point x="495" y="375"/>
      <point x="495" y="351" type="curve" smooth="yes"/>
      <point x="495" y="349" type="line" smooth="yes"/>
      <point x="495" y="325"/>
      <point x="475" y="305"/>
      <point x="451" y="305" type="curve" smooth="yes"/>
      <point x="449" y="305" type="line" smooth="yes"/>
      <point x="425" y="305"/>
      <point x="405" y="325"/>
      <point x="405" y="349" type="curve" smooth="yes"/>
      <point x="405" y="351" type="line" smooth="yes"/>
      <point x="405" y="375"/>
      <point x="425" y="395"/>
      <point x="449" y="395" type="curve"/>
    </contour>
    <contour>
      <point x="49" y="295" type="line"/>
      <point x="51" y="295" type="line" smooth="yes"/>
      <point x="75" y="295"/>
      <point x="95" y="275"/>
      <point x="95" y="251" type="curve" smooth="yes"/>
      <point x="95" y="249" type="line" smooth="yes"/>
      <point x="95" y="225"/>
      <point x="75" y="205"/>
      <point x="51" y="205" type="curve" smooth="yes"/>
      <point x="49" y="205" type="line" smooth="yes"/>
      <point x="25" y="205"/>
      <point x="5" y="225"/>
      <point x="5" y="249" type="curve" smooth="yes"/>
      <point x="5" y="251" type="line" smooth="yes"/>
      <point x="5" y="275"/>
      <point x="25" y="295"/>
      <point x="49" y="295" type="curve"/>
    </contour>
    <contour>
      <point x="449" y="295" type="line"/>
      <point x="451" y="295" type="line" smooth="yes"/>
      <point x="475" y="295"/>
      <point x="495" y="275"/>
      <point x="495" y="251" type="curve" smooth="yes"/>
      <point x="495" y="249" type="line" smooth="yes"/>
      <point x="495" y="225"/>
      <point x="475" y="205"/>
      <point x="451" y="205" type="curve" smooth="yes"/>
      <point x="449" y="205" type="line" smooth="yes"/>
      <point x="425" y="205"/>
      <point x="405" y="225"/>
      <point x="405" y="249" type="curve" smooth="yes"/>
      <point x="405" y="251" type="line" smooth="yes"/>
      <point x="405" y="275"/>
      <point x="425" y="295"/>
      <point x="449" y="295" type="curve"/>
    </contour>
    <contour>
      <point x="49" y="195" type="line"/>
      <point x="51" y="195" type="line" smooth="yes"/>
      <point x="75" y="195"/>
      <point x="95" y="175"/>
      <point x="95" y="151" type="curve" smooth="yes"/>
      <point x="95" y="149" type="line" smooth="yes"/>
      <point x="95" y="125"/>
      <point x="75" y="105"/>
      <point x="51" y="105" type="curve" smooth="yes"/>
      <point x="49" y="105" type="line" smooth="yes"/>
      <point x="25" y="105"/>
      <point x="5" y="125"/>
      <point x="5" y="149" type="curve" smooth="yes"/>
      <point x="5" y="151" type="line" smooth="yes"/>
      <point x="5" y="175"/>
      <point x="25" y="195"/>
      <point x="49" y="195" type="curve"/>
    </contour>
    <contour>
      <point x="449" y="195" type="line"/>
      <point x="451" y="195" type="line" smooth="yes"/>
      <point x="475" y="195"/>
      <point x="495" y="175"/>
      <point x="495" y="151" type="curve" smooth="yes"/>
      <point x="495" y="149" type="line" smooth="yes"/>
      <point x="495" y="125"/>
      <point x="475" y="105"/>
      <point x="451" y="105" type="curve" smooth="yes"/>
      <point x="449" y="105" type="line" smooth="yes"/>
      <point x="425" y="105"/>
      <point x="405" y="125"/>
      <point x="405" y="149" type="curve" smooth="yes"/>
      <point x="405" y="151" type="line" smooth="yes"/>
      <point x="405" y="175"/>
      <point x="425" y="195"/>
      <point x="449" y="195" type="curve"/>
    </contour>
    <contour>
      <point x="149" y="95" type="line"/>
      <point x="151" y="95" type="line" smooth="yes"/>
      <point x="175" y="95"/>
      <point x="195" y="75"/>
      <point x="195" y="51" type="curve" smooth="yes"/>
      <point x="195" y="49" type="line" smooth="yes"/>
      <point x="195" y="25"/>
      <point x="175" y="5"/>
      <point x="151" y="5" type="curve" smooth="yes"/>
      <point x="149" y="5" type="line" smooth="yes"/>
      <point x="125" y="5"/>
      <point x="105" y="25"/>
      <point x="105" y="49" type="curve" smooth="yes"/>
      <point x="105" y="51" type="line" smooth="yes"/>
      <point x="105" y="75"/>
      <point x="125" y="95"/>
      <point x="149" y="95" type="curve"/>
    </contour>
    <contour>
      <point x="249" y="95" type="line"/>
      <point x="251" y="95" type="line" smooth="yes"/>
      <point x="275" y="95"/>
      <point x="295" y="75"/>
      <point x="295" y="51" type="curve" smooth="yes"/>
      <point x="295" y="49" type="line" smooth="yes"/>
      <point x="295" y="25"/>
      <point x="275" y="5"/>
      <point x="251" y="5" type="curve" smooth="yes"/>
      <point x="249" y="5" type="line" smooth="yes"/>
      <point x="225" y="5"/>
      <point x="205" y="25"/>
      <point x="205" y="49" type="curve" smooth="yes"/>
      <point x="205" y="51" type="line" smooth="yes"/>
      <point x="205" y="75"/>
      <point x="225" y="95"/>
      <point x="249" y="95" type="curve"/>
    </contour>
    <contour>
      <point x="349" y="95" type="line"/>
      <point x="351" y="95" type="line" smooth="yes"/>
      <point x="375" y="95"/>
      <point x="395" y="75"/>
      <point x="395" y="51" type="curve" smooth="yes"/>
      <point x="395" y="49" type="line" smooth="yes"/>
      <point x="395" y="25"/>
      <point x="375" y="5"/>
      <point x="351" y="5" type="curve" smooth="yes"/>
      <point x="349" y="5" type="line" smooth="yes"/>
      <point x="325" y="5"/>
      <point x="305" y="25"/>
      <point x="305" y="49" type="curve" smooth="yes"/>
      <point x="305" y="51" type="line" smooth="yes"/>
      <point x="305" y="75"/>
      <point x="325" y="95"/>
      <point x="349" y="95" type="curve"/>
    </contour>
  </outline>
</glyph>
<glyph name="eacute" format="2">
  <advance width="600"/>
  <unicode hex="00E9"/>
  <outline>
    <contour>
      <point x="349" y="795" type="line"/>
      <point x="351" y="795" type="line" smooth="yes"/>
      <point x="375" y="795"/>
      <point x="395" y="775"/>
      <point x="395" y="751" type="curve" smooth="yes"/>
      <point x="395" y="749" type="line" smooth="yes"/>
      <point x="395" y="725"/>
      <point x="375" y="705"/>
      <point x="351" y="705" type="curve" smooth="yes"/>
      <point x="349" y="705" type="line" smooth="yes"/>
      <point x="325" y="705"/>
      <point x="305" y="725"/>
      <point x="305" y="749" type="curve" smooth="yes"/>
      <point x="305" y="751" type="line" smooth="yes"/>
      <point x="305" y="775"/>
      <point x="325" y="795"/>
      <point x="349" y="795" type="curve"/>
    </contour>
    <contour>
      <point x="249" y="695" type="line"/>
      <point x="251" y="695" type="line" smooth="yes"/>
      <point x="275" y="695"/>
      <point x="295" y="675"/>
      <point x="295" y="651" type="curve" smooth="yes"/>
      <point x="295" y="649" type="line" smooth="yes"/>
      <point x="295" y="625"/>
      <point x="275" y="605"/>
      <point x="251" y="605" type="curve" smooth="yes"/>
      <point x="249" y="605" type="line" smooth="yes"/>
      <point x="225" y="605"/>
      <point x="205" y="625"/>
      <point x="205" y="649" type="curve" smooth="yes"/>
      <point x="205" y="651" type="line" smooth="yes"/>
      <point x="205" y="675"/>
      <point x="225" y="695"/>
      <point x="249" y="695" type="curve"/>
    </contour>
    <contour>
      <point x="149" y="495" type="line"/>
      <point x="151" y="495" type="line" smooth="yes"/>
      <point x="175" y="495"/>
      <point x="195" y="475"/>
      <point x="195" y="451" type="curve" smooth="yes"/>
      <point x="195" y="449" type="line" smooth="yes"/>
      <point x="195" y="425"/>
      <point x="175" y="405"/>
      <point x="151" y="405" type="curve" smooth="yes"/>
      <point x="149" y="405" type="line" smooth="yes"/>
      <point x="125" y="405"/>
      <point x="105" y="425"/>
      <point x="105" y="449" type="curve" smooth="yes"/>
      <point x="105" y="451" type="line" smooth="yes"/>
      <point x="105" y="475"/>
      <point x="125" y="495"/>
      <point x="149" y="495" type="curve"/>
    </contour>
    <contour>
      <point x="249" y="495" type="line"/>
      <point x="251" y="495" type="line" smooth="yes"/>
      <point x="275" y="495"/>
      <point x="295" y="475"/>
      <point x="295" y="451" type="curve" smooth="yes"/>
      <point x="295" y="449" type="line" smooth="yes"/>
      <point x="295" y="425"/>
      <point x="275" y="405"/>
      <point x="251" y="405" type="curve" smooth="yes"/>
      <point x="249" y="405" type="line" smooth="yes"/>
      <point x="225" y="405"/>
      <point x="205" y="425"/>
      <point x="205" y="449" type="curve" smooth="yes"/>
      <point x="205" y="451" type="line" smooth="yes"/>
      <point x="205" y="475"/>
      <point x="225" y="495"/>
      <point x="249" y="495" type="curve"/>
    </contour>
    <contour>
      <point x="349" y="495" type="line"/>
      <point x="351" y="495" type="line" smooth="yes"/>
      <point x="375" y="495"/>
      <point x="395" y="475"/>
      <point x="395" y="451" type="curve" smooth="yes"/>
      <point x="395" y="449" type="line" smooth="yes"/>
      <point x="395" y="425"/>
      <point x="375" y="405"/>
      <point x="351" y="405" type="curve" smooth="yes"/>
      <point x="349" y="405" type="line" smooth="yes"/>
      <point x="325" y="405"/>
      <point x="305" y="425"/>
      <point x="305" y="449" type="curve" smooth="yes"/>
      <point x="305" y="451" type="line" smooth="yes"/>
      <point x="305" y="475"/>
      <point x="325" y="495"/>
      <point x="349" y="495" type="curve"/>
    </contour>
    <contour>
      <point x="49" y="395" type="line"/>
      <point x="51" y="395" type="line" smooth="yes"/>
      <point x="75" y="395"/>
      <point x="95" y="375"/>
      <point x="95" y="351" type="curve" smooth="yes"/>
      <point x="95" y="349" type="line" smooth="yes"/>
      <point x="95" y="325"/>
      <point x="75" y="305"/>
      <point x="51" y="305" type="curve" smooth="yes"/>
      <point x="49" y="305" type="line" smooth="yes"/>
      <point x="25" y="305"/>
      <point x="5" y="325"/>
      <point x="5" y="349" type="curve" smooth="yes"/>
      <point x="5" y="351" type="line" smooth="yes"/>
      <point x="5" y="375"/>
      <point x="25" y="395"/>
      <point x="49" y="395" type="curve"/>
    </contour>
    <contour>
      <point x="449" y="395" type="line"/>
      <point x="451" y="395" type="line" smooth="yes"/>
      <point x="475" y="395"/>
      <point x="495" y="375"/>
      <point x="495" y="351" type="curve" smooth="yes"/>
      <point x="495" y="349" type="line" smooth="yes"/>
      <point x="495" y="325"/>
      <point x="475" y="305"/>
      <point x="451" y="305" type="curve" smooth="yes"/>
      <point x="449" y="305" type="line" smooth="yes"/>
      <point x="425" y="305"/>
      <point x="405" y="325"/>
      <point x="405" y="349" type="curve" smooth="yes"/>
      <point x="405" y="351" type="line" smooth="yes"/>
      <point x="405" y="375"/>
      <point x="425" y="395"/>
      <point x="449" y="395" type="curve"/>
    </contour>
    <contour>
      <point x="49" y="295" type="line"/>
      <point x="51" y="295" type="line" smooth="yes"/>
      <point x="75" y="295"/>
      <point x="95" y="275"/>
      <point x="95" y="251" type="curve" smooth="yes"/>
      <point x="95" y="249" type="line" smooth="yes"/>
      <point x="95" y="225"/>
      <point x="75" y="205"/>
      <point x="51" y="205" type="curve" smooth="yes"/>
      <point x="49" y="205" type="line" smooth="yes"/>
      <point x="25" y="205"/>
      <point x="5" y="225"/>
      <point x="5" y="249" type="curve" smooth="yes"/>
      <point x="5" y="251" type="line" smooth="yes"/>
      <point x="5" y="275"/>
      <point x="25" y="295"/>
      <point x="49" y="295" type="curve"/>
    </contour>
    <contour>
      <point x="149" y="295" type="line"/>
      <point x="151" y="295" type="line" smooth="yes"/>
      <point x="175" y="295"/>
      <point x="195" y="275"/>
      <point x="195" y="251" type="curve" smooth="yes"/>
      <point x="195" y="249" type="line" smooth="yes"/>
      <point x="195" y="225"/>
      <point x="175" y="205"/>
      <point x="151" y="205" type="curve" smooth="yes"/>
      <point x="149" y="205" type="line" smooth="yes"/>
      <point x="125" y="205"/>
      <point x="105" y="225"/>
      <point x="105" y="249" type="curve" smooth="yes"/>
      <point x="105" y="251" type="line" smooth="yes"/>
      <point x="105" y="275"/>
      <point x="125" y="295"/>
      <point x="149" y="295" type="curve"/>
    </contour>
    <contour>
      <point x="249" y="295" type="line"/>
      <point x="251" y="295" type="line" smooth="yes"/>
      <point x="275" y="295"/>
      <point x="295" y="275"/>
      <point x="295" y="251" type="curve" smooth="yes"/>
      <point x="295" y="249" type="line" smooth="yes"/>
      <point x="295" y="225"/>
      <point x="275" y="205"/>
      <point x="251" y="205" type="curve" smooth="yes"/>
      <point x="249" y="205" type="line" smooth="yes"/>
      <point x="225" y="205"/>
      <point x="205" y="225"/>
      <point x="205" y="249" type="curve" smooth="yes"/>
      <point x="205" y="251" type="line" smooth="yes"/>
      <point x="205" y="275"/>
      <point x="225" y="295"/>
      <point x="249" y="295" type="curve"/>
    </contour>
    <contour>
      <point x="349" y="295" type="line"/>
      <point x="351" y="295" type="line" smooth="yes"/>
      <point x="375" y="295"/>
      <point x="395" y="275"/>
      <point x="395" y="251" type="curve" smooth="yes"/>
      <point x="395" y="249" type="line" smooth="yes"/>
      <point x="395" y="225"/>
      <point x="375" y="205"/>
      <point x="351" y="205" type="curve" smooth="yes"/>
      <point x="349" y="205" type="line" smooth="yes"/>
      <point x="325" y="205"/>
      <point x="305" y="225"/>
      <point x="305" y="249" type="curve" smooth="yes"/>
      <point x="305" y="251" type="line" smooth="yes"/>
      <point x="305" y="275"/>
      <point x="325" y="295"/>
      <point x="349" y="295" type="curve"/>
    </contour>
    <contour>
      <point x="449" y="295" type="line"/>
      <point x="451" y="295" type="line" smooth="yes"/>
      <point x="475" y="295"/>
      <point x="495" y="275"/>
      <point x="495" y="251" type="curve" smooth="yes"/>
      <point x="495" y="249" type="line" smooth="yes"/>
      <point x="495" y="225"/>
      <point x="475" y="205"/>
      <point x="451" y="205" type="curve" smooth="yes"/>
      <point x="449" y="205" type="line" smooth="yes"/>
      <point x="425" y="205"/>
      <point x="405" y="225"/>
      <point x="405" y="249" type="curve" smooth="yes"/>
      <point x="405" y="251" type="line" smooth="yes"/>
      <point x="405" y="275"/>
      <point x="425" y="295"/>
      <point x="449" y="295" type="curve"/>
    </contour>
    <contour>
      <point x="49" y="195" type="line"/>
      <point x="51" y="195" type="line" smooth="yes"/>
      <point x="75" y="195"/>
      <point x="95" y="175"/>
      <point x="95" y="151" type="curve" smooth="yes"/>
      <point x="95" y="149" type="line" smooth="yes"/>
      <point x="95" y="125"/>
      <point x="75" y="105"/>
      <point x="51" y="105" type="curve" smooth="yes"/>
      <point x="49" y="105" type="line" smooth="yes"/>
      <point x="25" y="105"/>
      <point x="5" y="125"/>
      <point x="5" y="149" type="curve" smooth="yes"/>
      <point x="5" y="151" type="line" smooth="yes"/>
      <point x="5" y="175"/>
      <point x="25" y="195"/>
      <point x="49" y="195" type="curve"/>
    </contour>
    <contour>
      <point x="149" y="95" type="line"/>
      <point x="151" y="95" type="line" smooth="yes"/>
      <point x="175" y="95"/>
      <point x="195" y="75"/>
      <point x="195" y="51" type="curve" smooth="yes"/>
      <point x="195" y="49" type="line" smooth="yes"/>
      <point x="195" y="25"/>
      <point x="175" y="5"/>
      <point x="151" y="5" type="curve" smooth="yes"/>
      <point x="149" y="5" type="line" smooth="yes"/>
      <point x="125" y="5"/>
      <point x="105" y="25"/>
      <point x="105" y="49" type="curve" smooth="yes"/>
      <point x="105" y="51" type="line" smooth="yes"/>
      <point x="105" y="75"/>
      <point x="125" y="95"/>
      <point x="149" y="95" type="curve"/>
    </contour>
    <contour>
      <point x="249" y="95" type="line"/>
      <point x="251" y="95" type="line" smooth="yes"/>
      <point x="275" y="95"/>
      <point x="295" y="75"/>
      <point x="295" y="51" type="curve" smooth="yes"/>
      <point x="295" y="49" type="line" smooth="yes"/>
      <point x="295" y="25"/>
      <point x="275" y="5"/>
      <point x="251" y="5" type="curve" smooth="yes"/>
      <point x="249" y="5" type="line" smooth="yes"/>
      <point x="225" y="5"/>
      <point x="205" y="25"/>
      <point x="205" y="49" type="curve" smooth="yes"/>
      <point x="205" y="51" type="line" smooth="yes"/>
      <point x="205" y="75"/>
      <point x="225" y="95"/>
      <point x="249" y="95" type="curve"/>
    </contour>
    <contour>
      <point x="349" y="95" type="line"/>
      <point x="351" y="95" type="line" smooth="yes"/>
      <point x="375" y="95"/>
      <point x="395" y="75"/>
      <point x="395" y="51" type="curve" smooth="yes"/>
      <point x="395" y="49" type="line" smooth="yes"/>
      <point x="395" y="25"/>
      <point x="375" y="5"/>
      <point x="351" y="5" type="curve" smooth="yes"/>
      <point x="349" y="5" type="line" smooth="yes"/>
      <point x="325" y="5"/>
      <point x="305" y="25"/>
      <point x="305" y="49" type="curve" smooth="yes"/>
      <point x="305" y="51" type="line" smooth="yes"/>
      <point x="305" y="75"/>
      <point x="325" y="95"/>
      <point x="349" y="95" type="curve"/>
    </contour>
  </outline>
</glyph>
<glyph name="idieresis" format="2">
  <advance width="600"/>
  <unicode hex="00EF"/>
  <outline>
    <contour>
      <point x="149" y="695" type="line"/>
      <point x="151" y="695" type="line" smooth="yes"/>
      <point x="175" y="695"/>
      <point x="195" y="675"/>
      <point x="195" y="651" type="curve" smooth="yes"/>
      <point x="195" y="649" type="line" smooth="yes"/>
      <point x="195" y="625"/>
      <point x="175" y="605"/>
      <point x="151" y="605" type="curve" smooth="yes"/>
      <point x="149" y="605" type="line" smooth="yes"/>
      <point x="125" y="605"/>
      <point x="105" y="625"/>
      <point x="105" y="649" type="curve" smooth="yes"/>
      <point x="105" y="651" type="line" smooth="yes"/>
      <point x="105" y="675"/>
      <point x="125" y="695"/>
      <point x="149" y="695" type="curve"/>
    </contour>
    <contour>
      <point x="349" y="695" type="line"/>
      <point x="351" y="695" type="line" smooth="yes"/>
      <point x="375" y="695"/>
      <point x="395" y="675"/>
      <point x="395" y="651" type="curve" smooth="yes"/>
      <point x="395" y="649" type="line" smooth="yes"/>
      <point x="395" y="625"/>
      <point x="375" y="605"/>
      <point x="351" y="605" type="curve" smooth="yes"/>
      <point x="349" y="605" type="line" smooth="yes"/>
      <point x="325" y="605"/>
      <point x="305" y="625"/>
      <point x="305" y="649" type="curve" smooth="yes"/>
      <point x="305" y="651" type="line" smooth="yes"/>
      <point x="305" y="675"/>
      <point x="325" y="695"/>
      <point x="349" y="695" type="curve"/>
    </contour>
    <contour>
      <point x="149" y="495" type="line"/>
      <point x="151" y="495" type="line" smooth="yes"/>
      <point x="175" y="495"/>
      <point x="195" y="475"/>
      <point x="195" y="451" type="curve" smooth="yes"/>
      <point x="195" y="449" type="line" smooth="yes"/>
      <point x="195" y="425"/>
      <point x="175" y="405"/>
      <point x="151" y="405" type="curve" smooth="yes"/>
      <point x="149" y="405" type="line" smooth="yes"/>
      <point x="125" y="405"/>
      <point x="105" y="425"/>
      <point x="105" y="449" type="curve" smooth="yes"/>
      <point x="105" y="451" type="line" smooth="yes"/>
      <point x="105" y="475"/>
      <point x="125" y="495"/>
      <point x="149" y="495" type="curve"/>
    </contour>
    <contour>
      <point x="249" y="495" type="line"/>
      <point x="251" y="495" type="line" smooth="yes"/>
      <point x="275" y="495"/>
      <point x="295" y="475"/>
      <point x="295" y="451" type="curve" smooth="yes"/>
      <point x="295" y="449" type="line" smooth="yes"/>
      <point x="295" y="425"/>
      <point x="275" y="405"/>
      <point x="251" y="405" type="curve" smooth="yes"/>
      <point x="249" y="405" type="line" smooth="yes"/>
      <point x="225" y="405"/>
      <point x="205" y="425"/>
      <point x="205" y="449" type="curve" smooth="yes"/>
      <point x="205" y="451" type="line" smooth="yes"/>
      <point x="205" y="475"/>
      <point x="225" y="495"/>
      <point x="249" y="495" type="curve"/>
    </contour>
    <contour>
      <point x="249" y="395" type="line"/>
      <point x="251" y="395" type="line" smooth="yes"/>
      <point x="275" y="395"/>
      <point x="295" y="375"/>
      <point x="295" y="351" type="curve" smooth="yes"/>
      <point x="295" y="349" type="line" smooth="yes"/>
      <point x="295" y="325"/>
      <point x="275" y="305"/>
      <point x="251" y="305" type="curve" smooth="yes"/>
      <point x="249" y="305" type="line" smooth="yes"/>
      <point x="225" y="305"/>
      <point x="205" y="325"/>
      <point x="205" y="349" type="curve" smooth="yes"/>
      <point x="205" y="351" type="line" smooth="yes"/>
      <point x="205" y="375"/>
      <point x="225" y="395"/>
      <point x="249" y="395" type="curve"/>
    </contour>
    <contour>
      <point x="249" y="295" type="line"/>
      <point x="251" y="295" type="line" smooth="yes"/>
      <point x="275" y="295"/>
      <point x="295" y="275"/>
      <point x="295" y="251" type="curve" smooth="yes"/>
      <point x="295" y="249" type="line" smooth="yes"/>
      <point x="295" y="225"/>
      <point x="275" y="205"/>
      <point x="251" y="205" type="curve" smooth="yes"/>
      <point x="249" y="205" type="line" smooth="yes"/>
      <point x="225" y="205"/>
      <point x="205" y="225"/>
      <point x="205" y="249" type="curve" smooth="yes"/>
      <point x="205" y="251" type="line" smooth="yes"/>
      <point x="205" y="275"/>
      <point x="225" y="295"/>
      <point x="249" y="295" type="curve"/>
    </contour>
    <contour>
      <point x="249" y="195" type="line"/>
      <point x="251" y="195" type="line" smooth="yes"/>
      <point x="275" y="195"/>
      <point x="295" y="175"/>
      <point x="295" y="151" type="curve" smooth="yes"/>
      <point x="295" y="149" type="line" smooth="yes"/>
      <point x="295" y="125"/>
      <point x="275" y="105"/>
      <point x="251" y="105" type="curve" smooth="yes"/>
      <point x="249" y="105" type="line" smooth="yes"/>
      <point x="225" y="105"/>
      <point x="205" y="125"/>
      <point x="205" y="149" type="curve" smooth="yes"/>
      <point x="205" y="151" type="line" smooth="yes"/>
      <point x="205" y="175"/>
      <point x="225" y="195"/>
      <point x="249" y="195" type="curve"/>
    </contour>
    <contour>
      <point x="149" y="95" type="line"/>
      <point x="151" y="95" type="line" smooth="yes"/>
      <point x="175" y="95"/>
      <point x="195" y="75"/>
      <point x="195" y="51" type="curve" smooth="yes"/>
      <point x="195" y="49" type="line" smooth="yes"/>
      <point x="195" y="25"/>
      <point x="175" y="5"/>
      <point x="151" y="5" type="curve" smooth="yes"/>
      <point x="149" y="5" type="line" smooth="yes"/>
      <point x="125" y="5"/>
      <point x="105" y="25"/>
      <point x="105" y="49" type="curve" smooth="yes"/>
      <point x="105" y="51" type="line" smooth="yes"/>
      <point x="105" y="75"/>
      <point x="125" y="95"/>
      <point x="149" y="95" type="curve"/>
    </contour>
    <contour>
      <point x="249" y="95" type="line"/>
      <point x="251" y="95" type="line" smooth="yes"/>
      <point x="275" y="95"/>
      <point x="295" y="75"/>
      <point x="295" y="51" type="curve" smooth="yes"/>
      <point x="295" y="49" type="line" smooth="yes"/>
      <point x="295" y="25"/>
      <point x="275" y="5"/>
      <point x="251" y="5" type="curve" smooth="yes"/>
      <point x="249" y="5" type="line" smooth="yes"/>
      <point x="225" y="5"/>
      <point x="205" y="25"/>
      <point x="205" y="49" type="curve" smooth="yes"/>
      <point x="205" y="51" type="line" smooth="yes"/>
      <point x="205" y="75"/>
      <point x="225" y="95"/>
      <point x="249" y="95" type="curve"/>
    </contour>
    <contour>
      <point x="349" y="95" type="line"/>
      <point x="351" y="95" type="line" smooth="yes"/>
      <point x="375" y="95"/>
      <point x="395" y="75"/>
      <point x="395" y="51" type="curve" smooth="yes"/>
      <point x="395" y="49" type="line" smooth="yes"/>
      <point x="395" y="25"/>
      <point x="375" y="5"/>
      <point x="351" y="5" type="curve" smooth="yes"/>
      <point x="349" y="5" type="line" smooth="yes"/>
      <point x="325" y="5"/>
      <point x="305" y="25"/>
      <point x="305" y="49" type="curve" smooth="yes"/>
      <point x="305" y="51" type="line" smooth="yes"/>
      <point x="305" y="75"/>
      <point x="325" y="95"/>
      <point x="349" y="95" type="curve"/>
    </contour>
  </outline>
</glyph>
<glyph name="divide" format="2">
  <advance width="600"/>
  <unicode hex="00F7"/>
  <outline>
    <contour>
      <point x="249" y="595" type="line"/>
      <point x="251" y="595" type="line" smooth="yes"/>
      <point x="275" y="595"/>
      <point x="295" y="575"/>
      <point x="295" y="551" type="curve" smooth="yes"/>
      <point x="295" y="549" type="line" smooth="yes"/>
      <point x="295" y="525"/>
      <point x="275" y="505"/>
      <point x="251" y="505" type="curve" smooth="yes"/>
      <point x="249" y="505" type="line" smooth="yes"/>
      <point x="225" y="505"/>
      <point x="205" y="525"/>
      <point x="205" y="549" type="curve" smooth="yes"/>
      <point x="205" y="551" type="line" smooth="yes"/>
      <point x="205" y="575"/>
      <point x="225" y="595"/>
      <point x="249" y="595" type="curve"/>
    </contour>
    <contour>
      <point x="49" y="395" type="line"/>
      <point x="51" y="395" type="line" smooth="yes"/>
      <point x="75" y="395"/>
      <point x="95" y="375"/>
      <point x="95" y="351" type="curve" smooth="yes"/>
      <point x="95" y="349" type="line" smooth="yes"/>
      <point x="95" y="325"/>
      <point x="75" y="305"/>
      <point x="51" y="305" type="curve" smooth="yes"/>
      <point x="49" y="305" type="line" smooth="yes"/>
      <point x="25" y="305"/>
      <point x="5" y="325"/>
      <point x="5" y="349" type="curve" smooth="yes"/>
      <point x="5" y="351" type="line" smooth="yes"/>
      <point x="5" y="375"/>
      <point x="25" y="395"/>
      <point x="49" y="395" type="curve"/>
    </contour>
    <contour>
      <point x="149" y="395" type="line"/>
      <point x="151" y="395" type="line" smooth="yes"/>
      <point x="175" y="395"/>
      <point x="195" y="375"/>
      <point x="195" y="351" type="curve" smooth="yes"/>
      <point x="195" y="349" type="line" smooth="yes"/>
      <point x="195" y="325"/>
      <point x="175" y="305"/>
      <point x="151" y="305" type="curve" smooth="yes"/>
      <point x="149" y="305" type="line" smooth="yes"/>
      <point x="125" y="305"/>
      <point x="105" y="325"/>
      <point x="105" y="349" type="curve" smooth="yes"/>
      <point x="105" y="351" type="line" smooth="yes"/>
      <point x="105" y="375"/>
      <point x="125" y="395"/>
      <point x="149" y="395" type="curve"/>
    </contour>
    <contour>
      <point x="249" y="395" type="line"/>
      <point x="251" y="395" type="line" smooth="yes"/>
      <point x="275" y="395"/>
      <point x="295" y="375"/>
      <point x="295" y="351" type="curve" smooth="yes"/>
      <point x="295" y="349" type="line" smooth="yes"/>
      <point x="295" y="325"/>
      <point x="275" y="305"/>
      <point x="251" y="305" type="curve" smooth="yes"/>
      <point x="249" y="305" type="line" smooth="yes"/>
      <point x="225" y="305"/>
      <point x="205" y="325"/>
      <point x="205" y="349" type="curve" smooth="yes"/>
      <point x="205" y="351" type="line" smooth="yes"/>
      <point x="205" y="375"/>
      <point x="225" y="395"/>
      <point x="249" y="395" type="curve"/>
    </contour>
    <contour>
      <point x="349" y="395" type="line"/>
      <point x="351" y="395" type="line" smooth="yes"/>
      <point x="375" y="395"/>
      <point x="395" y="375"/>
      <point x="395" y="351" type="curve" smooth="yes"/>
      <point x="395" y="349" type="line" smooth="yes"/>
      <point x="395" y="325"/>
      <point x="375" y="305"/>
      <point x="351" y="305" type="curve" smooth="yes"/>
      <point x="349" y="305" type="line" smooth="yes"/>
      <point x="325" y="305"/>
      <point x="305" y="325"/>
      <point x="305" y="349" type="curve" smooth="yes"/>
      <point x="305" y="351" type="line" smooth="yes"/>
      <point x="305" y="375"/>
      <point x="325" y="395"/>
      <point x="349" y="395" type="curve"/>
    </contour>
    <contour>
      <point x="449" y="395" type="line"/>
      <point x="451" y="395" type="line" smooth="yes"/>
      <point x="475" y="395"/>
      <point x="495" y="375"/>
      <point x="495" y="351" type="curve" smooth="yes"/>
      <point x="495" y="349" type="line" smooth="yes"/>
      <point x="495" y="325"/>
      <point x="475" y="305"/>
      <point x="451" y="305" type="curve" smooth="yes"/>
      <point x="449" y="305" type="line" smooth="yes"/>
      <point x="425" y="305"/>
      <point x="405" y="325"/>
      <point x="405" y="349" type="curve" smooth="yes"/>
      <point x="405" y="351" type="line" smooth="yes"/>
      <point x="405" y="375"/>
      <point x="425" y="395"/>
      <point x="449" y="395" type="curve"/>
    </contour>
    <contour>
      <point x="249" y="195" type="line"/>
      <point x="251" y="195" type="line" smooth="yes"/>
      <point x="275" y="195"/>
      <point x="295" y="175"/>
      <point x="295" y="151" type="curve" smooth="yes"/>
      <point x="295" y="149" type="line" smooth="yes"/>
      <point x="295" y="125"/>
      <point x="275" y="105"/>
      <point x="251" y="105" type="curve" smooth="yes"/>
      <point x="249" y="105" type="line" smooth="yes"/>
      <point x="225" y="105"/>
      <point x="205" y="125"/>
      <point x="205" y="149" type="curve" smooth="yes"/>
      <point x="205" y="151" type="line" smooth="yes"/>
      <point x="205" y="175"/>
      <point x="225" y="195"/>
      <point x="249" y="195" type="curve"/>
    </contour>
  </outline>
</glyph>
